<!-- Generated by IcoMoon.io -->
<svg version="1.1" xmlns="http://www.w3.org/2000/svg" width="34" height="32" viewBox="0 0 34 32">
<title>clock</title>
<path fill="#fff" d="M16.762 0c-4.478 0-8.686 1.665-11.852 4.687s-4.91 7.040-4.91 11.313 1.744 8.291 4.91 11.313c3.166 3.023 7.375 4.687 11.852 4.687s8.686-1.665 11.852-4.687c3.166-3.021 4.91-7.040 4.91-11.313s-1.744-8.291-4.91-11.313c-3.166-3.022-7.375-4.687-11.852-4.687v0zM27.177 25.877c-2.782 2.639-6.481 4.092-10.415 4.092s-7.633-1.453-10.415-4.092c-2.782-2.638-4.315-6.146-4.315-9.877s1.532-7.238 4.315-9.877c2.782-2.639 6.481-4.092 10.415-4.092s7.633 1.453 10.415 4.092c2.782 2.639 4.315 6.146 4.315 9.877s-1.532 7.239-4.315 9.877v0zM16.762 24.889c-0.561 0-1.016 0.455-1.016 1.016v1.016c0 0.561 0.455 1.016 1.016 1.016s1.016-0.455 1.016-1.016v-1.016c0-0.561-0.455-1.016-1.016-1.016v0zM24.51 18.144l-6.675-2.74v-10.341c0-0.552-0.468-1-1.044-1s-1.044 0.448-1.044 1v11c0 0.4 0.248 0.762 0.633 0.919l7.309 3c0.134 0.055 0.274 0.081 0.41 0.081 0.405-0 0.791-0.227 0.961-0.606 0.227-0.507-0.018-1.095-0.549-1.313v0zM6.349 14.984h-1.016c-0.561 0-1.016 0.455-1.016 1.016s0.455 1.016 1.016 1.016h1.016c0.561 0 1.016-0.455 1.016-1.016s-0.455-1.016-1.016-1.016v0zM26.159 16c0 0.561 0.455 1.016 1.016 1.016h1.016c0.561 0 1.016-0.455 1.016-1.016s-0.455-1.016-1.016-1.016h-1.016c-0.561 0-1.016 0.455-1.016 1.016v0z"></path>
</svg>
