<?xml version="1.0" encoding="UTF-8"?>
<svg width="64px" height="80px" viewBox="0 0 64 80" version="1.1" xmlns="http://www.w3.org/2000/svg" xmlns:xlink="http://www.w3.org/1999/xlink">
    <title>faturalarım</title>
    <g id="Symbols" stroke="none" stroke-width="1" fill="none" fill-rule="evenodd">
        <g id="faturalarım-copy" fill="#F8B716" fill-rule="nonzero">
            <g id="Group">
                <path d="M47.4999975,12 L4.49999748,12 C3.32532786,11.9453042 2.17950623,12.3740756 1.32930906,13.1864862 C0.479111894,13.9988969 -0.00127270001,15.1240559 -2.522433e-06,16.3 L-2.522433e-06,78.3 L5.8,72.9 C6.77631533,72.0563087 8.22368467,72.0563087 9.2,72.9 L16.8,79.7 L24.3,72.9 C25.2910336,72.0968236 26.7089664,72.0968236 27.7,72.9 L35.2,79.7 L42.8,72.9 C43.7763153,72.0563087 45.2236847,72.0563087 46.2,72.9 L51.9999975,78.3 L51.9999975,16.3 C52.0012727,15.1240559 51.5208881,13.9988969 50.6706909,13.1864862 C49.8204938,12.3740756 48.6746721,11.9453042 47.4999975,12 Z M13.6,27 L26.4,27 C27.2284271,27 27.9,27.6715729 27.9,28.5 C27.9,29.3284271 27.2284271,30 26.4,30 L13.6,30 C12.7715729,30 12.1,29.3284271 12.1,28.5 C12.1,27.6715729 12.7715729,27 13.6,27 L13.6,27 Z M38.4,56 L13.6,56 C12.7715729,56 12.1,55.3284271 12.1,54.5 C12.1,53.6715729 12.7715729,53 13.6,53 L38.4,53 C39.2284271,53 39.9,53.6715729 39.9,54.5 C39.9,55.3284271 39.2284271,56 38.4,56 Z M38.4,43 L13.6,43 C12.7715729,43 12.1,42.3284271 12.1,41.5 C12.1,40.6715729 12.7715729,40 13.6,40 L38.4,40 C39.2284271,40 39.9,40.6715729 39.9,41.5 C39.9,42.3284271 39.2284271,43 38.4,43 L38.4,43 Z" id="Shape"></path>
                <path d="M59.4999999,0 L16.4999999,0 C13.9986269,0.0543904603 11.9994087,2.09803568 11.9999999,4.6 L11.9999999,9 L47.4999999,9 C49.4626545,8.9732984 51.3555125,9.72744468 52.7620747,11.0964986 C54.1686369,12.4655524 54.9736568,14.3373406 54.9999999,16.3 L54.9999999,61 C55.9631451,60.2947797 57.2827675,60.3360179 58.2,61.1 L63.9999999,66.5 L63.9999999,4.6 C64.0005913,2.09803568 62.0013731,0.0543904603 59.4999999,0 L59.4999999,0 Z" id="Path"></path>
            </g>
        </g>
    </g>
</svg>