<svg xmlns="http://www.w3.org/2000/svg" width="18" height="23" viewBox="0 0 18 23">
    <g fill="none" fill-rule="evenodd">
        <g fill="#757AA5" fill-rule="nonzero">
            <g>
                <g>
                    <g>
                        <path d="M13.36 3.45H1.265c-.33-.016-.653.108-.892.341-.24.234-.374.557-.374.895v17.825l1.631-1.552c.275-.243.682-.243.956 0l2.138 1.955 2.11-1.955c.278-.231.677-.231.956 0L9.9 22.914l2.137-1.955c.275-.243.682-.243.957 0l1.631 1.552V4.686c0-.338-.135-.661-.374-.895-.239-.233-.561-.357-.892-.341zM3.824 7.763h3.6c.233 0 .422.193.422.43 0 .239-.189.432-.422.432h-3.6c-.233 0-.422-.193-.422-.431s.189-.432.422-.432zM10.8 16.1H3.825c-.233 0-.422-.193-.422-.431s.189-.431.422-.431H10.8c.233 0 .422.193.422.43 0 .239-.189.432-.422.432zm0-3.738H3.825c-.233 0-.422-.193-.422-.43 0-.239.189-.432.422-.432H10.8c.233 0 .422.193.422.431s-.189.432-.422.432z" transform="translate(-103 -631) translate(0 608) translate(103 23)"/>
                        <path d="M16.734 0H4.641c-.704.016-1.266.603-1.266 1.323v1.264h9.984c.552-.007 1.085.21 1.48.603.396.394.622.932.63 1.496v12.852c.27-.203.642-.191.9.028L18 19.12V1.323C18 .603 17.438.016 16.734 0z" transform="translate(-103 -631) translate(0 608) translate(103 23)"/>
                    </g>
                </g>
            </g>
        </g>
    </g>
</svg>
