<?xml version="1.0" encoding="UTF-8"?>
<svg width="182px" height="200px" viewBox="0 0 182 200" version="1.1" xmlns="http://www.w3.org/2000/svg" xmlns:xlink="http://www.w3.org/1999/xlink">
    <!-- Generator: Sketch 51.3 (57544) - http://www.bohemiancoding.com/sketch -->
    <title>icon:3_2_</title>
    <desc>Created with Sketch.</desc>
    <defs></defs>
    <g id="Pin-Reset" stroke="none" stroke-width="1" fill="none" fill-rule="evenodd">
        <g id="Payment-Copy-3" transform="translate(-293.000000, -164.000000)" fill="#F28821" fill-rule="nonzero">
            <g id="finger-print" transform="translate(269.000000, 160.000000)">
                <path d="M98.2012618,95.9970714 L98.2012618,105.148907 C100.075382,106.218968 101.869184,107.120072 103.555892,107.908538 L103.555892,95.9970714 L98.2012618,95.9970714 Z M101.949503,34.468574 C89.6606261,45.4226177 82.6192871,61.3608921 82.6192871,78.1721108 L82.6192871,94.1667042 C84.4666346,95.7154765 86.2336626,97.0952917 87.9739175,98.3906285 L87.9739175,78.1721108 C87.9739175,63.0223023 94.3191547,48.6609597 105.430013,38.7769768 L101.949503,34.468574 Z M122.082914,174.364947 C121.841955,174.393107 117.852756,174.731021 112.069755,171.830592 C111.213014,173.492003 110.302727,175.125253 109.365666,176.702185 C115.095121,179.630773 119.619784,180.025006 121.574224,180.025006 C122.190006,180.025006 122.56483,179.996846 122.64515,179.968687 L122.082914,174.364947 Z M118.709497,156.483667 C118.093714,158.285875 117.451158,160.031764 116.755056,161.721334 C120.663937,163.157468 125.590197,164.17121 131.721249,164.17121 L131.721249,158.539311 C126.313072,158.539311 122.056141,157.694526 118.709497,156.483667 Z M135.737221,71.5827889 L135.067893,71.5827889 C130.810961,71.5827889 127.383998,75.2153638 127.383998,79.6645641 L127.383998,122.635954 C127.383998,127.085154 130.810961,130.717729 135.067893,130.717729 L135.737221,130.717729 C139.994153,130.717729 143.447889,127.085154 143.447889,122.635954 L143.447889,79.6645641 C143.447889,75.2153638 139.994153,71.5827889 135.737221,71.5827889 Z M138.093259,122.635954 C138.093259,123.98761 137.022333,125.08583 135.737221,125.08583 L135.067893,125.08583 C133.782781,125.08583 132.738628,123.98761 132.738628,122.635954 L132.738628,79.6645641 C132.738628,78.3129083 133.782781,77.214688 135.067893,77.214688 L135.737221,77.214688 C137.022333,77.214688 138.093259,78.3129083 138.093259,79.6645641 L138.093259,122.635954 Z M135.415944,55.4473981 C123.769622,55.4473981 114.3187,65.3876999 114.3187,77.6370804 L114.3187,111.597432 C116.380232,112.047984 118.174033,112.2451 119.67333,112.301419 L119.67333,77.6370804 C119.67333,68.5134039 126.741442,61.0792971 135.415944,61.0792971 C144.063672,61.0792971 151.131784,68.5134039 151.131784,77.6370804 L151.131784,86.0004506 L156.486415,86.0004506 L156.486415,77.6370804 C156.486415,65.3876999 147.035492,55.4473981 135.415944,55.4473981 Z M151.131784,110.076819 L151.131784,124.747916 C151.131784,133.843433 144.063672,141.27754 135.415944,141.27754 C130.918054,141.27754 126.848535,139.278216 123.957034,136.068033 C123.608983,138.236314 123.180613,140.376436 122.725469,142.432079 C126.259526,145.248029 130.650323,146.909439 135.415944,146.909439 C147.035492,146.909439 156.486415,136.969137 156.486415,124.747916 L156.486415,110.076819 L151.131784,110.076819 Z M163.286795,28.0200496 C149.418302,19.9382744 132.310258,18.7274161 117.585024,24.6972291 L119.512691,29.9630547 C132.792175,24.5845911 148.213511,25.6828114 160.6898,32.9479613 C161.385902,33.3421942 162.082003,33.7645866 162.778105,34.2151385 L165.589286,29.4280243 C164.839638,28.9211534 164.063217,28.4706015 163.286795,28.0200496 Z M168.909157,133.223924 C168.802065,134.153188 166.017657,156.314711 140.529616,158.539311 L140.984759,164.14305 C170.943917,161.524217 174.183468,134.125028 174.210242,133.843433 L168.909157,133.223924 Z M137.557796,38.0448299 L134.880481,38.0448299 C114.666751,38.0448299 98.2012618,55.3347601 98.2012618,76.5951791 L103.555892,76.5951791 C103.555892,58.4323046 117.611797,43.676729 134.880481,43.676729 L137.557796,43.676729 C154.826479,43.676729 168.882384,58.4323046 168.882384,76.5951791 L168.882384,125.846137 L174.237015,125.846137 L174.237015,76.5951791 C174.237015,55.3347601 157.771526,38.0448299 137.557796,38.0448299 Z M183.446979,48.2385672 C181.064169,44.1554404 178.199441,40.4102275 174.933117,37.0874071 L171.184875,41.1142149 C174.156695,44.1272809 176.753691,47.5345799 178.895543,51.1953143 C183.661164,59.3052489 186.177841,68.6542014 186.177841,78.1721108 L191.532471,78.1721108 C191.532471,67.6123001 188.748063,57.2496058 183.446979,48.2385672 Z M186.177841,86.535481 L186.177841,122.720433 C186.177841,151.189682 164.143536,174.364947 137.075879,174.364947 L137.075879,179.996846 C167.115356,179.996846 191.532471,154.287227 191.532471,122.720433 L191.532471,86.535481 L186.177841,86.535481 Z M137.075879,4 C99.4328268,4 68.8043404,36.2144627 68.8043404,75.8067132 L68.8043404,81.1288579 C70.6249148,83.0437035 72.418716,84.8459112 74.1589709,86.5073215 L74.1589709,75.8067132 C74.1589709,39.3120072 102.377874,9.63189908 137.075879,9.63189908 C171.773885,9.63189908 199.992787,39.3120072 199.992787,75.8067132 L199.992787,125.08583 C199.992787,161.580536 171.773885,191.260644 137.075879,191.260644 L135.737221,191.260644 C125.001187,191.260644 114.666751,188.444695 105.40324,182.981753 C104.305541,184.558684 103.207841,186.079297 102.110142,187.543591 C112.337486,193.682361 123.823169,196.892543 135.737221,196.892543 L137.075879,196.892543 C174.718931,196.892543 205.347418,164.678081 205.347418,125.08583 L205.347418,75.8067132 C205.347418,36.2144627 174.718931,4 137.075879,4 Z M191.532471,122.720433 L191.532471,86.535481 L186.177841,86.535481 L186.177841,122.720433 C186.177841,151.189682 164.143536,174.364947 137.075879,174.364947 L137.075879,179.996846 C167.115356,179.996846 191.532471,154.287227 191.532471,122.720433 Z M183.446979,48.2385672 C181.064169,44.1554404 178.199441,40.4102275 174.933117,37.0874071 L171.184875,41.1142149 C174.156695,44.1272809 176.753691,47.5345799 178.895543,51.1953143 C183.661164,59.3052489 186.177841,68.6542014 186.177841,78.1721108 L191.532471,78.1721108 C191.532471,67.6123001 188.748063,57.2496058 183.446979,48.2385672 Z M98.2012618,76.5951791 L103.555892,76.5951791 C103.555892,58.4323046 117.611797,43.676729 134.880481,43.676729 L137.557796,43.676729 C154.826479,43.676729 168.882384,58.4323046 168.882384,76.5951791 L168.882384,125.846137 L174.237015,125.846137 L174.237015,76.5951791 C174.237015,55.3347601 157.771526,38.0448299 137.557796,38.0448299 L134.880481,38.0448299 C114.666751,38.0448299 98.2012618,55.3347601 98.2012618,76.5951791 Z M140.984759,164.14305 C170.943917,161.524217 174.183468,134.125028 174.210242,133.843433 L168.909157,133.223924 C168.802065,134.153188 166.017657,156.314711 140.529616,158.539311 L140.984759,164.14305 Z M160.6898,32.9479613 C161.385902,33.3421942 162.082003,33.7645866 162.778105,34.2151385 L165.589286,29.4280243 C164.839638,28.9211534 164.063217,28.4706015 163.286795,28.0200496 C149.418302,19.9382744 132.310258,18.7274161 117.585024,24.6972291 L119.512691,29.9630547 C132.792175,24.5845911 148.213511,25.6828114 160.6898,32.9479613 Z M156.486415,124.747916 L156.486415,110.076819 L151.131784,110.076819 L151.131784,124.747916 C151.131784,133.843433 144.063672,141.27754 135.415944,141.27754 C130.918054,141.27754 126.848535,139.278216 123.957034,136.068033 C123.608983,138.236314 123.180613,140.376436 122.725469,142.432079 C126.259526,145.248029 130.650323,146.909439 135.415944,146.909439 C147.035492,146.909439 156.486415,136.969137 156.486415,124.747916 Z M135.415944,55.4473981 C123.769622,55.4473981 114.3187,65.3876999 114.3187,77.6370804 L114.3187,111.597432 C116.380232,112.047984 118.174033,112.2451 119.67333,112.301419 L119.67333,77.6370804 C119.67333,68.5134039 126.741442,61.0792971 135.415944,61.0792971 C144.063672,61.0792971 151.131784,68.5134039 151.131784,77.6370804 L151.131784,86.0004506 L156.486415,86.0004506 L156.486415,77.6370804 C156.486415,65.3876999 147.035492,55.4473981 135.415944,55.4473981 Z M135.067893,71.5827889 C130.810961,71.5827889 127.383998,75.2153638 127.383998,79.6645641 L127.383998,122.635954 C127.383998,127.085154 130.810961,130.717729 135.067893,130.717729 L135.737221,130.717729 C139.994153,130.717729 143.447889,127.085154 143.447889,122.635954 L143.447889,79.6645641 C143.447889,75.2153638 139.994153,71.5827889 135.737221,71.5827889 L135.067893,71.5827889 Z M138.093259,79.6645641 L138.093259,122.635954 C138.093259,123.98761 137.022333,125.08583 135.737221,125.08583 L135.067893,125.08583 C133.782781,125.08583 132.738628,123.98761 132.738628,122.635954 L132.738628,79.6645641 C132.738628,78.3129083 133.782781,77.214688 135.067893,77.214688 L135.737221,77.214688 C137.022333,77.214688 138.093259,78.3129083 138.093259,79.6645641 Z M131.721249,158.539311 C126.313072,158.539311 122.056141,157.694526 118.709497,156.483667 C118.093714,158.285875 117.451158,160.031764 116.755056,161.721334 C120.663937,163.157468 125.590197,164.17121 131.721249,164.17121 L131.721249,158.539311 Z M112.069755,171.830592 C111.213014,173.492003 110.302727,175.125253 109.365666,176.702185 C115.095121,179.630773 119.619784,180.025006 121.574224,180.025006 C122.190006,180.025006 122.56483,179.996846 122.64515,179.968687 L122.082914,174.364947 C121.841955,174.393107 117.852756,174.731021 112.069755,171.830592 Z M105.430013,38.7769768 L101.949503,34.468574 C89.6606261,45.4226177 82.6192871,61.3608921 82.6192871,78.1721108 L82.6192871,94.1667042 C84.4666346,95.7154765 86.2336626,97.0952917 87.9739175,98.3906285 L87.9739175,78.1721108 C87.9739175,63.0223023 94.3191547,48.6609597 105.430013,38.7769768 Z M103.555892,95.9970714 L98.2012618,95.9970714 L98.2012618,105.148907 C100.075382,106.218968 101.869184,107.120072 103.555892,107.908538 L103.555892,95.9970714 Z M122.082914,174.364947 C121.841955,174.393107 117.852756,174.731021 112.069755,171.830592 C111.213014,173.492003 110.302727,175.125253 109.365666,176.702185 C115.095121,179.630773 119.619784,180.025006 121.574224,180.025006 C122.190006,180.025006 122.56483,179.996846 122.64515,179.968687 L122.082914,174.364947 Z M186.177841,86.535481 L186.177841,122.720433 C186.177841,151.189682 164.143536,174.364947 137.075879,174.364947 L137.075879,179.996846 C167.115356,179.996846 191.532471,154.287227 191.532471,122.720433 L191.532471,86.535481 L186.177841,86.535481 Z M118.709497,156.483667 C118.093714,158.285875 117.451158,160.031764 116.755056,161.721334 C120.663937,163.157468 125.590197,164.17121 131.721249,164.17121 L131.721249,158.539311 C126.313072,158.539311 122.056141,157.694526 118.709497,156.483667 Z M168.909157,133.223924 C168.802065,134.153188 166.017657,156.314711 140.529616,158.539311 L140.984759,164.14305 C170.943917,161.524217 174.183468,134.125028 174.210242,133.843433 L168.909157,133.223924 Z M98.2012618,95.9970714 L98.2012618,105.148907 C100.075382,106.218968 101.869184,107.120072 103.555892,107.908538 L103.555892,95.9970714 L98.2012618,95.9970714 Z M135.415944,55.4473981 C123.769622,55.4473981 114.3187,65.3876999 114.3187,77.6370804 L114.3187,111.597432 C116.380232,112.047984 118.174033,112.2451 119.67333,112.301419 L119.67333,77.6370804 C119.67333,68.5134039 126.741442,61.0792971 135.415944,61.0792971 C144.063672,61.0792971 151.131784,68.5134039 151.131784,77.6370804 L151.131784,86.0004506 L156.486415,86.0004506 L156.486415,77.6370804 C156.486415,65.3876999 147.035492,55.4473981 135.415944,55.4473981 Z M151.131784,110.076819 L151.131784,124.747916 C151.131784,133.843433 144.063672,141.27754 135.415944,141.27754 C130.918054,141.27754 126.848535,139.278216 123.957034,136.068033 C123.608983,138.236314 123.180613,140.376436 122.725469,142.432079 C126.259526,145.248029 130.650323,146.909439 135.415944,146.909439 C147.035492,146.909439 156.486415,136.969137 156.486415,124.747916 L156.486415,110.076819 L151.131784,110.076819 Z M135.737221,71.5827889 L135.067893,71.5827889 C130.810961,71.5827889 127.383998,75.2153638 127.383998,79.6645641 L127.383998,122.635954 C127.383998,127.085154 130.810961,130.717729 135.067893,130.717729 L135.737221,130.717729 C139.994153,130.717729 143.447889,127.085154 143.447889,122.635954 L143.447889,79.6645641 C143.447889,75.2153638 139.994153,71.5827889 135.737221,71.5827889 Z M138.093259,122.635954 C138.093259,123.98761 137.022333,125.08583 135.737221,125.08583 L135.067893,125.08583 C133.782781,125.08583 132.738628,123.98761 132.738628,122.635954 L132.738628,79.6645641 C132.738628,78.3129083 133.782781,77.214688 135.067893,77.214688 L135.737221,77.214688 C137.022333,77.214688 138.093259,78.3129083 138.093259,79.6645641 L138.093259,122.635954 Z M137.557796,38.0448299 L134.880481,38.0448299 C114.666751,38.0448299 98.2012618,55.3347601 98.2012618,76.5951791 L103.555892,76.5951791 C103.555892,58.4323046 117.611797,43.676729 134.880481,43.676729 L137.557796,43.676729 C154.826479,43.676729 168.882384,58.4323046 168.882384,76.5951791 L168.882384,125.846137 L174.237015,125.846137 L174.237015,76.5951791 C174.237015,55.3347601 157.771526,38.0448299 137.557796,38.0448299 Z M183.446979,48.2385672 C181.064169,44.1554404 178.199441,40.4102275 174.933117,37.0874071 L171.184875,41.1142149 C174.156695,44.1272809 176.753691,47.5345799 178.895543,51.1953143 C183.661164,59.3052489 186.177841,68.6542014 186.177841,78.1721108 L191.532471,78.1721108 C191.532471,67.6123001 188.748063,57.2496058 183.446979,48.2385672 Z M163.286795,28.0200496 C149.418302,19.9382744 132.310258,18.7274161 117.585024,24.6972291 L119.512691,29.9630547 C132.792175,24.5845911 148.213511,25.6828114 160.6898,32.9479613 C161.385902,33.3421942 162.082003,33.7645866 162.778105,34.2151385 L165.589286,29.4280243 C164.839638,28.9211534 164.063217,28.4706015 163.286795,28.0200496 Z M71.0934449,204 L69.3853178,202.966547 C61.9289948,199.097432 24.7276995,176.978148 24.7276995,121.42228 L24.7276995,117.415184 L28.3126246,118.772471 C28.4170399,118.803447 42.9280886,123.289254 68.6463788,95.4141699 L71.0987996,92.7953368 L73.5271245,95.4029061 C99.2347055,123.261095 113.735045,118.814711 113.874265,118.772471 L117.45919,117.415184 L117.45919,121.42228 C117.45919,176.986596 80.2552177,199.100248 72.7988947,202.966547 L72.4829715,203.107344 L71.0934449,204 Z M30.1278444,124.66907 C31.4879205,173.058346 63.0266941,193.200834 71.0961222,197.565555 C79.1628731,193.200834 110.704324,173.063978 112.0644,124.66907 C105.713808,124.928137 91.5454561,122.421942 71.0961222,100.832057 C50.6414338,122.43039 36.4115033,124.897162 30.1278444,124.66907 Z" id="icon:3_2_"></path>
            </g>
        </g>
    </g>
</svg>