<svg xmlns="http://www.w3.org/2000/svg" width="61" height="61" viewBox="0 0 61 61">
    <g fill="none" fill-rule="evenodd">
        <g>
            <g>
                <g transform="translate(-157 -603) translate(0 608) translate(162)">
                    <rect width="56" height="56" x="-2.5" y="-2.5" fill="#757AA5" stroke="#282A3C" stroke-width="5" rx="28"/>
                    <path fill="#FFF" stroke="#FFF" d="M26 17.5c-.414 0-.79.168-1.06.44-.272.27-.44.646-.44 1.06v5.5H19c-.414 0-.79.168-1.06.44-.272.27-.44.646-.44 1.06 0 .414.168.79.44 1.06.27.272.646.44 1.06.44h5.5V33c0 .414.168.79.44 1.06.27.272.646.44 1.06.44.414 0 .79-.168 1.06-.44.272-.27.44-.646.44-1.06v-5.5H33c.414 0 .79-.168 1.06-.44.272-.27.44-.646.44-1.06 0-.414-.168-.79-.44-1.06-.27-.272-.646-.44-1.06-.44h-5.5V19c0-.414-.168-.79-.44-1.06-.27-.272-.646-.44-1.06-.44z"/>
                </g>
            </g>
        </g>
    </g>
</svg>
