<?xml version="1.0" encoding="UTF-8"?>
<svg width="61px" height="61px" viewBox="0 0 61 61" version="1.1" xmlns="http://www.w3.org/2000/svg" xmlns:xlink="http://www.w3.org/1999/xlink">
    <title>Bg</title>
    <g id="Symbols" stroke="none" stroke-width="1" fill="none" fill-rule="evenodd">
        <g id="Group" transform="translate(5.000000, 5.000000)">
            <rect id="Bg" stroke="#282A3C" stroke-width="5" fill="#F8B716" x="-2.5" y="-2.5" width="56" height="56" rx="28"></rect>
            <path d="M26,17.5 L26.1533663,17.5077443 C26.5063455,17.5435913 26.8231444,17.701824 27.0606602,17.9393398 C27.3321068,18.2107864 27.5,18.5857864 27.5,19 L27.5,19 L27.5,24.5 L33,24.5 C33.4142136,24.5 33.7892136,24.6678932 34.0606602,24.9393398 C34.3321068,25.2107864 34.5,25.5857864 34.5,26 C34.5,26.4142136 34.3321068,26.7892136 34.0606602,27.0606602 C33.7892136,27.3321068 33.4142136,27.5 33,27.5 L33,27.5 L27.4990833,27.5 L27.5,33 C27.5,33.4142136 27.3321068,33.7892136 27.0606602,34.0606602 C26.7892136,34.3321068 26.4142136,34.5 26,34.5 C25.5857864,34.5 25.2107864,34.3321068 24.9393398,34.0606602 C24.6678932,33.7892136 24.5,33.4142136 24.5,33.0000833 L24.5,33.0000833 L24.4990833,27.5 L19,27.5 C18.5857864,27.5 18.2107864,27.3321068 17.9393398,27.0606602 C17.6678932,26.7892136 17.5,26.4142136 17.5,26 C17.5,25.5857864 17.6678932,25.2107864 17.9393398,24.9393398 C18.2107864,24.6678932 18.5857864,24.5 19,24.5 L19,24.5 L24.5,24.5 L24.5,19 C24.5,18.5857864 24.6678932,18.2107864 24.9393398,17.9393398 C25.2107864,17.6678932 25.5857864,17.5 26,17.5 L26,17.5 Z" id="Combined-Shape" stroke="#32354E" fill="#32354E"></path>
        </g>
    </g>
</svg>