<svg xmlns="http://www.w3.org/2000/svg" width="23" height="24" viewBox="0 0 23 24">
    <g fill="none" fill-rule="evenodd">
        <g fill="#757AA5" fill-rule="nonzero">
            <g>
                <g>
                    <path d="M.179 9.977C.579 4.77 4.796.633 10.103.24c.205-.018.409.05.56.187.152.137.238.33.238.533v9.072c0 .398-.33.72-.735.72H.918c-.206.002-.403-.08-.544-.228-.14-.148-.211-.346-.195-.547zM12.87 2.7h-.056c-.405 0-.734.322-.734.72v9.4c.005.25-.122.485-.335.62l-8.038 5.117c-.175.109-.294.285-.33.486-.034.2.019.405.146.565 2.998 3.86 8.294 5.214 12.832 3.283 4.538-1.931 7.146-6.65 6.32-11.434-.825-4.784-4.872-8.398-9.805-8.757zM.176 12.314c.064 1.95.64 3.852 1.671 5.52.052.085.137.144.235.166.098.022.2.004.284-.05l8.368-5.348c.138-.087.201-.253.155-.407-.047-.154-.191-.26-.355-.26H.548c-.101 0-.198.04-.268.112-.07.072-.108.168-.104.267z" transform="translate(-252 -630) translate(0 608) translate(252 22)"/>
                </g>
            </g>
        </g>
    </g>
</svg>
