<?xml version="1.0" encoding="UTF-8"?>
<svg width="94px" height="100px" viewBox="0 0 94 100" version="1.1" xmlns="http://www.w3.org/2000/svg" xmlns:xlink="http://www.w3.org/1999/xlink">
    <title>harcamalarım</title>
    <g id="Symbols" stroke="none" stroke-width="1" fill="none" fill-rule="evenodd">
        <g id="harcamalarım-copy" fill="#F8B716" fill-rule="nonzero">
            <g id="harcamalarım">
                <path d="M0.73,41.57 C2.36375311,19.8803082 19.6007116,2.63909996 41.29,1 C42.1296502,0.926949467 42.9613013,1.21046666 43.5814842,1.78118716 C44.2016672,2.35190765 44.5531717,3.15718406 44.5500213,4 L44.5500213,41.8 C44.5500213,43.4568542 43.2068542,44.8001389 41.55,44.8001389 L3.75,44.8001389 C2.90938069,44.8080816 2.10393767,44.463088 1.5297996,43.8490264 C0.955661531,43.2349648 0.665510694,42.4081809 0.73,41.57 Z M52.6,11.25 L52.37,11.25 C50.7131458,11.25 49.37,12.5931458 49.37,14.25 L49.37,53.42 C49.3911525,54.4592708 48.8728055,55.4354278 48,56 L15.15,77.32 C14.4362281,77.7746993 13.9477116,78.5097248 13.8048763,79.3438829 C13.662041,80.1780411 13.8781756,81.033726 14.4,81.7 C26.6522959,97.7804059 48.2954804,103.425752 66.84114,95.3785957 C85.3867995,87.3314397 96.0485217,67.6686564 92.6743468,47.7359408 C89.3001719,27.8032251 72.7609342,12.7449722 52.6,11.25 Z M0.72,51.31 C0.979827317,59.4366199 3.33233636,67.3586855 7.55,74.31 C7.76240541,74.6606098 8.10823037,74.9097942 8.50804133,75.0003175 C8.90785229,75.0908407 9.32728546,75.0149222 9.67,74.79 L43.87,52.51 C44.4340091,52.1472508 44.6912111,51.4559924 44.5014917,50.8127974 C44.3117723,50.1696024 43.7205902,49.7285868 43.05,49.7299966 L2.24,49.7299966 C1.82625664,49.7296775 1.43026016,49.8980298 1.14341553,50.1961972 C0.856570898,50.4943647 0.703667895,50.896579 0.72,51.31 L0.72,51.31 Z" id="Shape"></path>
            </g>
        </g>
    </g>
</svg>