<?xml version="1.0" encoding="UTF-8"?>
<svg width="772px" height="116px" viewBox="0 0 772 116" version="1.1" xmlns="http://www.w3.org/2000/svg" xmlns:xlink="http://www.w3.org/1999/xlink">
    <!-- Generator: Sketch 51.3 (57544) - http://www.bohemiancoding.com/sketch -->
    <title>Group</title>
    <desc>Created with Sketch.</desc>
    <defs>
        <rect id="path-1" x="0" y="0" width="92" height="92"></rect>
        <polygon id="path-3" points="0 92 92 92 92 0 0 0"></polygon>
    </defs>
    <g id="Page-1" stroke="none" stroke-width="1" fill="none" fill-rule="evenodd">
        <g id="Group" transform="translate(1.000000, 0.000000)">
            <g id="limasolonline-logo" transform="translate(679.000000, 0.000000)">
                <mask id="mask-2" fill="white">
                    <use xlink:href="#path-1"></use>
                </mask>
                <g id="Rectangle-path"></g>
                <g id="Group" mask="url(#mask-2)">
                    <polygon id="Shape" fill="#FFFFFF" fill-rule="nonzero" points="0 92 92 92 92 0 0 0"></polygon>
                    <g id="Clipped">
                        <mask id="mask-4" fill="white">
                            <use xlink:href="#path-3"></use>
                        </mask>
                        <g id="Shape"></g>
                        <g id="Group" mask="url(#mask-4)" fill-rule="nonzero">
                            <g transform="translate(6.474074, 13.203704)" id="Shape">
                                <path d="M18.2539926,13.5263852 C17.7460333,14.0812815 17.1941185,14.4164852 16.6606037,14.7400185 C15.9096111,15.195163 15.2005296,15.6251778 14.4784148,16.7030259 C13.3691333,18.3776815 13.8246185,22.2123778 14.0190963,23.8492963 L14.0610074,24.2080963 C14.1398037,24.9347259 13.9051185,26.1391593 13.6079926,27.663037 C13.2296,29.604237 12.7585259,32.0206852 12.8268444,34.0808889 C13.0019852,39.4208926 13.2002111,45.4725333 22.7050889,55.5842704 C31.2796593,64.7202963 47.5988407,67.0614407 51.9116815,65.5626926 C55.5904889,64.2803148 61.1463519,64.4789667 62.8033741,64.6507852 C63.0447889,64.6767667 63.2790481,64.7085407 63.5099852,64.7404 C65.0479185,64.9508074 66.1582222,65.1017556 67.6886593,63.407763 C68.297563,62.7372704 68.6349815,60.9334741 68.6915444,58.046037 C68.7367778,55.7837741 68.9120037,55.1718037 69.6491111,52.5969963 C69.9555222,51.5274963 70.3633037,50.1043074 70.9064444,48.0599481 C72.6191778,41.6219926 74.2368444,35.5401111 67.1928815,23.1184074 C60.2280556,10.8299333 46.3830778,7.96004444 40.7543815,7.29704815 C38.1258222,6.99361852 34.0552481,7.60967778 30.4628185,8.15699259 C28.1013148,8.51655926 25.8704852,8.85602222 24.3550407,8.87868148 C21.6838037,8.91974074 20.1524296,11.0060111 19.0343741,12.5289519 C18.7451704,12.9229333 18.4949815,13.2640148 18.2539926,13.5263852 Z M48.2890963,67.3463 C41.0351519,67.3463 28.7169481,63.9308 21.7366185,56.4937074 C11.8888704,46.0173778 11.6818704,39.6991926 11.4991481,34.1245037 C11.4258037,31.9142037 11.9128074,29.4164889 12.3038074,27.4090148 C12.5577444,26.1073 12.7974556,24.877737 12.7404667,24.3538481 L12.6998333,24.006037 C12.4701741,22.0732704 11.9928815,18.0508259 13.3728815,15.9671111 C14.2605111,14.6419704 15.1695222,14.0904815 15.9716259,13.6043296 C16.4669778,13.3033704 16.8945222,13.0444074 17.2733407,12.6295556 L17.2749593,12.6278519 C17.4665407,12.42 17.6970519,12.1065185 17.9635963,11.7427778 C19.100563,10.1937704 21.0036,7.60132963 24.334937,7.55098519 C25.7598296,7.52926296 27.9470444,7.19644444 30.2629741,6.84360741 C33.9383741,6.28368519 38.1032481,5.65084444 40.9089926,5.97778519 C46.7397481,6.66505926 61.0842519,9.64645556 68.3486741,22.4629926 C75.6600333,35.3574741 73.9744741,41.6932074 72.1904407,48.4019667 C71.6439778,50.4562926 71.2340667,51.887063 70.926037,52.9624407 C70.1935296,55.5222556 70.0614926,55.9832778 70.0200074,58.0727852 C69.9538185,61.4262704 69.5384556,63.3466 68.6730593,64.2995667 C66.6728259,66.5131889 64.9738074,66.2818259 63.3301593,66.0564259 C63.1109778,66.0261852 62.8892407,65.9960296 62.6633296,65.9717519 C60.6793667,65.7672222 55.5434667,65.7043556 52.3491926,66.8166185 C51.344263,67.1669852 49.9491,67.3463 48.2890963,67.3463 Z" fill="#FAD200"></path>
                                <path d="M25.4703704,8.15699259 C50.5629444,3.84304444 61.3268593,13.1631556 66.0185185,20.9667148 C79.6175667,36.9717333 69.4324,52.0886963 70.926037,48.0599481 C71.4130407,47.4766 69.5912704,58.591137 69.6491111,58.9481481 C69.8410333,60.2473074 68.6928222,63.3983926 68.1404815,64.0153889 C66.1162259,66.2683667 64.5430259,65.6748815 62.6974037,65.4804037 C60.8591926,65.2792815 55.5058148,65.1568704 52.089463,66.347163 C47.4183333,67.9816111 30.9624296,65.5643111 22.182563,56.2035667 C12.5963333,45.9929296 12.3047444,39.7871037 12.1278148,34.2734926 C12.0071074,30.5788407 13.5217,25.9421259 13.3558444,24.4417593 C13.1889667,22.9431815 12.5485444,18.5175556 13.8947259,16.5009667 C14.053937,16.2545259 14.9206111,15.183237 14.8963333,15.3174889 C14.6230593,17.0641259 20.5434296,7.9171963 25.4703704,8.15699259 Z" fill="#FAD200"></path>
                                <path d="M4.45186296,4.65426296 C4.45186296,4.65426296 6.17856667,5.36837037 8.39380741,6.53515185 C11.6903037,8.27182222 16.0832185,11.0159778 17.5013815,13.9093778 C17.9431519,14.8296333 18.3655852,13.1163889 18.3655852,13.1163889 C18.3655852,13.1163889 10.7314593,4.83195926 5.08887778,3.41371111 C3.73613704,3.06675185 3.5374,4.26368889 4.45186296,4.65426296 Z" fill="#406E2C"></path>
                                <path d="M8.37455556,8.9976 C8.37455556,8.9976 5.57247407,14.5043963 5.4676963,18.9467185 C5.34945926,23.3974741 1.63725926,30.3559963 1.24004074,30.6577222 C0.970088889,30.8639556 10.0700815,27.3401852 11.2913815,20.9667148 C12.5091889,14.6067037 9.69381852,10.1341407 8.37455556,8.9976 Z" fill="#406E2C"></path>
                                <path d="M8.62593704,9.29268148 L8.09617037,9.17188889 C8.09617037,9.1568963 8.52286296,7.24585185 8.04344074,6.32048519 L8.53623704,6.07404444 C9.09615926,7.17208148 8.64357037,9.21388519 8.62593704,9.29268148 Z" fill="#406E2C"></path>
                                <path d="M7.80125926,8.84511852 C7.80125926,8.84511852 2.3707037,8.79307037 0.7061,14.9654185 C-0.710359259,20.1905926 0.366637037,21.8116667 0.91982963,23.8852444 C1.31542963,25.3470222 2.17878148,29.3534519 1.34226296,30.4984259 C0.504040741,31.6383741 5.01008148,26.5389333 5.4676963,18.9467185 C5.70834444,14.9034037 7.9764,9.95985185 8.37455556,8.9976 C8.42984074,8.87697778 7.80125926,8.84511852 7.80125926,8.84511852 Z" fill="#87AC27"></path>
                                <path d="M11.5310926,5.37501481 C11.5310926,5.37501481 15.9298852,5.68517407 18.8902407,4.51847778 C21.8515333,3.35663704 27.4655778,3.86297778 27.7740333,4.04237778 C27.9844407,4.17143333 23.1280333,-0.845888889 18.596863,0.124711111 C14.0623704,1.09198889 11.9041185,4.19153704 11.5310926,5.37501481 Z" fill="#406E2C"></path>
                                <path d="M9.9176,6.39425556 L9.50104444,6.03554074 C10.081837,5.33812963 11.5763259,5.06655926 11.6433667,5.04986296 L11.7380926,5.59291852 C11.3601259,5.65331481 10.2981222,5.93834444 9.9176,6.39425556 Z" fill="#406E2C"></path>
                                <path d="M11.5856111,5.79412593 C11.5856111,5.79412593 13.060763,9.38314815 17.5876741,8.763 C21.4315704,8.23987778 22.1976407,7.07982593 23.3996037,6.13111852 C24.2553741,5.46386296 26.6584481,3.77574815 27.6408037,4.02057037 C28.6172815,4.25857778 24.0182185,2.70292593 18.8902407,4.51847778 C16.1528148,5.48899259 12.2694778,5.37501481 11.5310926,5.37501481 C11.429637,5.37501481 11.5856111,5.79412593 11.5856111,5.79412593 Z" fill="#87AC27"></path>
                            </g>
                        </g>
                    </g>
                </g>
            </g>
            <path d="M0,46.497 L8.946,46.497 L8.946,88.671 L30.317,88.671 L30.317,96.765 L0,96.765 L0,46.497 Z M36.21,62.685 L44.73,62.685 L44.73,96.765 L36.21,96.765 L36.21,62.685 Z M35.003,51.112 C35.003,49.7393265 35.5118282,48.5441718 36.5295,47.5265 C37.5471718,46.5088282 38.8369922,46 40.399,46 C41.9610078,46 43.2744947,46.4851618 44.3395,47.4555 C45.4045053,48.4258382 45.937,49.6446593 45.937,51.112 C45.937,52.5793407 45.4045053,53.7981618 44.3395,54.7685 C43.2744947,55.7388382 41.9610078,56.224 40.399,56.224 C38.8369922,56.224 37.5471718,55.7151718 36.5295,54.6975 C35.5118282,53.6798282 35.003,52.4846735 35.003,51.112 Z M54.173,62.685 L62.267,62.685 L62.267,68.01 L62.409,68.01 C63.1663371,66.4006586 64.3851583,64.9688396 66.0655,63.7145 C67.7458417,62.4601604 70.0059858,61.833 72.846,61.833 C78.1946934,61.833 81.7446579,63.9393123 83.496,68.152 C84.7266728,65.9746558 86.2649908,64.3771718 88.111,63.3595 C89.9570092,62.3418282 92.1579872,61.833 94.714,61.833 C96.9860114,61.833 98.9029922,62.2116629 100.465,62.969 C102.027008,63.7263371 103.293162,64.76766 104.2635,66.093 C105.233838,67.41834 105.931998,68.9684911 106.358,70.7435 C106.784002,72.5185089 106.997,74.4236565 106.997,76.459 L106.997,96.765 L98.477,96.765 L98.477,77.453 C98.477,76.4116615 98.3823343,75.4058382 98.193,74.4355 C98.0036657,73.4651618 97.6723357,72.6131703 97.199,71.8795 C96.7256643,71.1458297 96.0866707,70.5660021 95.282,70.14 C94.4773293,69.7139979 93.4360064,69.501 92.158,69.501 C90.83266,69.501 89.7085046,69.7494975 88.7855,70.2465 C87.8624954,70.7435025 87.1051696,71.4061625 86.5135,72.2345 C85.9218304,73.0628375 85.4958346,74.0094947 85.2355,75.0745 C84.9751654,76.1395053 84.845,77.2163279 84.845,78.305 L84.845,96.765 L76.325,96.765 L76.325,76.459 C76.325,74.3289894 75.8753378,72.6368396 74.976,71.3825 C74.0766622,70.1281604 72.5856771,69.501 70.503,69.501 C69.0829929,69.501 67.8878382,69.7376643 66.9175,70.211 C65.9471618,70.6843357 65.1425032,71.3233293 64.5035,72.128 C63.8644968,72.9326707 63.4030014,73.8556615 63.119,74.897 C62.8349986,75.9383385 62.693,77.0269943 62.693,78.163 L62.693,96.765 L54.173,96.765 L54.173,62.685 Z M114.594,79.725 C114.594,77.0269865 115.079162,74.577511 116.0495,72.3765 C117.019838,70.175489 118.333325,68.2940078 119.99,66.732 C121.646675,65.1699922 123.610989,63.9630043 125.883,63.111 C128.155011,62.2589957 130.568987,61.833 133.125,61.833 C135.681013,61.833 138.094989,62.2589957 140.367,63.111 C142.639011,63.9630043 144.603325,65.1699922 146.26,66.732 C147.916675,68.2940078 149.230162,70.175489 150.2005,72.3765 C151.170838,74.577511 151.656,77.0269865 151.656,79.725 C151.656,82.4230135 151.170838,84.872489 150.2005,87.0735 C149.230162,89.274511 147.916675,91.1559922 146.26,92.718 C144.603325,94.2800078 142.639011,95.4869957 140.367,96.339 C138.094989,97.1910043 135.681013,97.617 133.125,97.617 C130.568987,97.617 128.155011,97.1910043 125.883,96.339 C123.610989,95.4869957 121.646675,94.2800078 119.99,92.718 C118.333325,91.1559922 117.019838,89.274511 116.0495,87.0735 C115.079162,84.872489 114.594,82.4230135 114.594,79.725 Z M123.114,79.725 C123.114,81.05034 123.338831,82.3283272 123.7885,83.559 C124.238169,84.7896728 124.900829,85.8783286 125.7765,86.825 C126.652171,87.7716714 127.705327,88.5289972 128.936,89.097 C130.166673,89.6650028 131.562992,89.949 133.125,89.949 C134.687008,89.949 136.083327,89.6650028 137.314,89.097 C138.544673,88.5289972 139.597829,87.7716714 140.4735,86.825 C141.349171,85.8783286 142.011831,84.7896728 142.4615,83.559 C142.911169,82.3283272 143.136,81.05034 143.136,79.725 C143.136,78.39966 142.911169,77.1216728 142.4615,75.891 C142.011831,74.6603272 141.349171,73.5716714 140.4735,72.625 C139.597829,71.6783286 138.544673,70.9210028 137.314,70.353 C136.083327,69.7849972 134.687008,69.501 133.125,69.501 C131.562992,69.501 130.166673,69.7849972 128.936,70.353 C127.705327,70.9210028 126.652171,71.6783286 125.7765,72.625 C124.900829,73.5716714 124.238169,74.6603272 123.7885,75.891 C123.338831,77.1216728 123.114,78.39966 123.114,79.725 Z M159.608,62.685 L167.702,62.685 L167.702,68.152 L167.844,68.152 C168.648671,66.4479915 169.879325,64.9688396 171.536,63.7145 C173.192675,62.4601604 175.440986,61.833 178.281,61.833 C180.553011,61.833 182.481825,62.2116629 184.0675,62.969 C185.653175,63.7263371 186.942995,64.7203272 187.937,65.951 C188.931005,67.1816728 189.640998,68.6016586 190.067,70.211 C190.493002,71.8203414 190.706,73.5006579 190.706,75.252 L190.706,96.765 L182.186,96.765 L182.186,79.512 C182.186,78.5653286 182.138667,77.5121725 182.044,76.3525 C181.949333,75.1928275 181.700835,74.1041718 181.2985,73.0865 C180.896165,72.0688282 180.269004,71.2168368 179.417,70.5305 C178.564996,69.8441632 177.405341,69.501 175.938,69.501 C174.517993,69.501 173.322838,69.7376643 172.3525,70.211 C171.382162,70.6843357 170.577503,71.3233293 169.9385,72.128 C169.299497,72.9326707 168.838001,73.8556615 168.554,74.897 C168.269999,75.9383385 168.128,77.0269943 168.128,78.163 L168.128,96.765 L159.608,96.765 L159.608,62.685 Z" id="Limon" stroke="#F9D109" fill="#396A30"></path>
            <path d="M221.159,46.456 L238.871,46.456 C241.079011,46.456 243.130991,46.7199974 245.027,47.248 C246.923009,47.7760026 248.554993,48.5559948 249.923,49.588 C251.291007,50.6200052 252.370996,51.939992 253.163,53.548 C253.955004,55.156008 254.351,57.0399892 254.351,59.2 C254.351,62.1280146 253.535008,64.5159908 251.903,66.364 C250.270992,68.2120092 248.159013,69.5679957 245.567,70.432 L245.567,70.576 C247.103008,70.6720005 248.542993,71.0679965 249.887,71.764 C251.231007,72.4600035 252.394995,73.3719944 253.379,74.5 C254.363005,75.6280056 255.142997,76.9359926 255.719,78.424 C256.295003,79.9120074 256.583,81.5199914 256.583,83.248 C256.583,85.5520115 256.115005,87.5799912 255.179,89.332 C254.242995,91.0840088 252.959008,92.559994 251.327,93.76 C249.694992,94.960006 247.799011,95.8719969 245.639,96.496 C243.478989,97.1200031 241.151012,97.432 238.655,97.432 L221.159,97.432 L221.159,46.456 Z M228.071,67.624 L237.503,67.624 C238.799006,67.624 240.022994,67.4920013 241.175,67.228 C242.327006,66.9639987 243.334996,66.5200031 244.199,65.896 C245.063004,65.2719969 245.746997,64.4800048 246.251,63.52 C246.755003,62.5599952 247.007,61.384007 247.007,59.992 C247.007,57.9759899 246.359006,56.2240074 245.063,54.736 C243.766994,53.2479926 241.727014,52.504 238.943,52.504 L228.071,52.504 L228.071,67.624 Z M228.071,91.384 L238.223,91.384 C239.279005,91.384 240.442994,91.2760011 241.715,91.06 C242.987006,90.8439989 244.174994,90.4120032 245.279,89.764 C246.383006,89.1159968 247.318996,88.2400055 248.087,87.136 C248.855004,86.0319945 249.239,84.5680091 249.239,82.744 C249.239,79.7199849 248.25501,77.4520076 246.287,75.94 C244.31899,74.4279924 241.655017,73.672 238.295,73.672 L228.071,73.672 L228.071,91.384 Z M265.367,63.304 L271.847,63.304 L271.847,97.432 L265.367,97.432 L265.367,63.304 Z M263.855,51.064 C263.855,49.7679935 264.322995,48.6520047 265.259,47.716 C266.195005,46.7799953 267.310994,46.312 268.607,46.312 C269.903006,46.312 271.018995,46.7799953 271.955,47.716 C272.891005,48.6520047 273.359,49.7679935 273.359,51.064 C273.359,52.3600065 272.891005,53.4759953 271.955,54.412 C271.018995,55.3480047 269.903006,55.816 268.607,55.816 C267.310994,55.816 266.195005,55.3480047 265.259,54.412 C264.322995,53.4759953 263.855,52.3600065 263.855,51.064 Z M282.647,43 L289.127,43 L289.127,97.432 L282.647,97.432 L282.647,43 Z M299.927,43 L306.407,43 L306.407,97.432 L299.927,97.432 L299.927,43 Z M317.207,63.304 L323.687,63.304 L323.687,97.432 L317.207,97.432 L317.207,63.304 Z M315.695,51.064 C315.695,49.7679935 316.162995,48.6520047 317.099,47.716 C318.035005,46.7799953 319.150994,46.312 320.447,46.312 C321.743006,46.312 322.858995,46.7799953 323.795,47.716 C324.731005,48.6520047 325.199,49.7679935 325.199,51.064 C325.199,52.3600065 324.731005,53.4759953 323.795,54.412 C322.858995,55.3480047 321.743006,55.816 320.447,55.816 C319.150994,55.816 318.035005,55.3480047 317.099,54.412 C316.162995,53.4759953 315.695,52.3600065 315.695,51.064 Z M333.983,63.304 L340.463,63.304 L340.463,68.56 L340.607,68.56 C341.423004,66.7359909 342.83899,65.2600056 344.855,64.132 C346.87101,63.0039944 349.198987,62.44 351.839,62.44 C353.471008,62.44 355.042992,62.6919975 356.555,63.196 C358.067008,63.7000025 359.386994,64.4799947 360.515,65.536 C361.643006,66.5920053 362.542997,67.9479917 363.215,69.604 C363.887003,71.2600083 364.223,73.2159887 364.223,75.472 L364.223,97.432 L357.743,97.432 L357.743,77.272 C357.743,75.6879921 357.527002,74.3320056 357.095,73.204 C356.662998,72.0759944 356.087004,71.1640035 355.367,70.468 C354.646996,69.7719965 353.819005,69.2680016 352.883,68.956 C351.946995,68.6439984 350.975005,68.488 349.967,68.488 C348.622993,68.488 347.375006,68.7039978 346.223,69.136 C345.070994,69.5680022 344.063004,70.2519953 343.199,71.188 C342.334996,72.1240047 341.663002,73.3119928 341.183,74.752 C340.702998,76.1920072 340.463,77.8959902 340.463,79.864 L340.463,97.432 L333.983,97.432 L333.983,63.304 Z M408.215,97.144 C408.215,99.736013 407.771004,102.099989 406.883,104.236 C405.994996,106.372011 404.735008,108.219992 403.103,109.78 C401.470992,111.340008 399.503012,112.551996 397.199,113.416 C394.894988,114.280004 392.351014,114.712 389.567,114.712 C386.302984,114.712 383.315014,114.256005 380.603,113.344 C377.890986,112.431995 375.311012,110.848011 372.863,108.592 L377.255,103.12 C378.935008,104.944009 380.75899,106.323995 382.727,107.26 C384.69501,108.196005 386.926988,108.664 389.423,108.664 C391.823012,108.664 393.814992,108.316003 395.399,107.62 C396.983008,106.923997 398.242995,106.024006 399.179,104.92 C400.115005,103.815994 400.774998,102.556007 401.159,101.14 C401.543002,99.7239929 401.735,98.2960072 401.735,96.856 L401.735,91.816 L401.519,91.816 C400.270994,93.8800103 398.579011,95.4039951 396.443,96.388 C394.306989,97.3720049 392.063012,97.864 389.711,97.864 C387.214988,97.864 384.899011,97.4200044 382.763,96.532 C380.626989,95.6439956 378.791008,94.4200078 377.255,92.86 C375.718992,91.2999922 374.519004,89.4520107 373.655,87.316 C372.790996,85.1799893 372.359,82.8640125 372.359,80.368 C372.359,77.8719875 372.766996,75.5320109 373.583,73.348 C374.399004,71.1639891 375.562992,69.2560082 377.075,67.624 C378.587008,65.9919918 380.410989,64.7200046 382.547,63.808 C384.683011,62.8959954 387.070987,62.44 389.711,62.44 C392.015012,62.44 394.258989,62.943995 396.443,63.952 C398.627011,64.960005 400.342994,66.3759909 401.591,68.2 L401.735,68.2 L401.735,63.304 L408.215,63.304 L408.215,97.144 Z M390.503,68.488 C388.774991,68.488 387.215007,68.787997 385.823,69.388 C384.430993,69.988003 383.255005,70.8039948 382.295,71.836 C381.334995,72.8680052 380.591003,74.1159927 380.063,75.58 C379.534997,77.0440073 379.271,78.6399914 379.271,80.368 C379.271,83.8240173 380.27899,86.5959896 382.295,88.684 C384.31101,90.7720104 387.046983,91.816 390.503,91.816 C393.959017,91.816 396.69499,90.7720104 398.711,88.684 C400.72701,86.5959896 401.735,83.8240173 401.735,80.368 C401.735,78.6399914 401.471003,77.0440073 400.943,75.58 C400.414997,74.1159927 399.671005,72.8680052 398.711,71.836 C397.750995,70.8039948 396.575007,69.988003 395.183,69.388 C393.790993,68.787997 392.231009,68.488 390.503,68.488 Z M441.191,86.776 C442.439006,88.6480094 444.03499,90.0279956 445.979,90.916 C447.92301,91.8040044 449.92699,92.248 451.991,92.248 C453.143006,92.248 454.318994,92.0680018 455.519,91.708 C456.719006,91.3479982 457.810995,90.8080036 458.795,90.088 C459.779005,89.3679964 460.582997,88.4800053 461.207,87.424 C461.831003,86.3679947 462.143,85.144007 462.143,83.752 C462.143,81.7839902 461.519006,80.2840052 460.271,79.252 C459.022994,78.2199948 457.475009,77.3560035 455.627,76.66 C453.778991,75.9639965 451.763011,75.2920032 449.579,74.644 C447.394989,73.9959968 445.379009,73.0960058 443.531,71.944 C441.682991,70.7919942 440.135006,69.2440097 438.887,67.3 C437.638994,65.3559903 437.015,62.7280166 437.015,59.416 C437.015,57.9279926 437.338997,56.3440084 437.987,54.664 C438.635003,52.9839916 439.654993,51.448007 441.047,50.056 C442.439007,48.663993 444.226989,47.5000047 446.411,46.564 C448.595011,45.6279953 451.222985,45.16 454.295,45.16 C457.079014,45.16 459.742987,45.5439962 462.287,46.312 C464.831013,47.0800038 467.06299,48.6399882 468.983,50.992 L463.367,56.104 C462.502996,54.7599933 461.279008,53.6800041 459.695,52.864 C458.110992,52.0479959 456.31101,51.64 454.295,51.64 C452.37499,51.64 450.779006,51.8919975 449.507,52.396 C448.234994,52.9000025 447.215004,53.547996 446.447,54.34 C445.678996,55.132004 445.139002,55.9839954 444.827,56.896 C444.514998,57.8080046 444.359,58.6479962 444.359,59.416 C444.359,61.5760108 444.982994,63.2319942 446.231,64.384 C447.479006,65.5360058 449.026991,66.4719964 450.875,67.192 C452.723009,67.9120036 454.738989,68.5599971 456.923,69.136 C459.107011,69.7120029 461.122991,70.5159948 462.971,71.548 C464.819009,72.5800052 466.366994,73.9719912 467.615,75.724 C468.863006,77.4760088 469.487,79.8879846 469.487,82.96 C469.487,85.4080122 469.019005,87.6159902 468.083,89.584 C467.146995,91.5520098 465.887008,93.2079933 464.303,94.552 C462.718992,95.8960067 460.847011,96.9279964 458.687,97.648 C456.526989,98.3680036 454.223012,98.728 451.775,98.728 C448.510984,98.728 445.415015,98.1520058 442.487,97 C439.558985,95.8479942 437.231009,94.072012 435.503,91.672 L441.191,86.776 Z M473.951,63.304 L481.439,63.304 L491.591,89.944 L491.735,89.944 L501.383,63.304 L508.367,63.304 L492.167,104.776 C491.590997,106.264007 490.991003,107.619994 490.367,108.844 C489.742997,110.068006 488.999004,111.111996 488.135,111.976 C487.270996,112.840004 486.227006,113.511998 485.003,113.992 C483.778994,114.472002 482.279009,114.712 480.503,114.712 C479.542995,114.712 478.571005,114.652001 477.587,114.532 C476.602995,114.411999 475.655005,114.160002 474.743,113.776 L475.535,107.872 C476.831006,108.400003 478.126994,108.664 479.423,108.664 C480.431005,108.664 481.282997,108.532001 481.979,108.268 C482.675003,108.003999 483.274997,107.620003 483.779,107.116 C484.283003,106.611997 484.702998,106.024003 485.039,105.352 C485.375002,104.679997 485.710998,103.912004 486.047,103.048 L488.135,97.648 L473.951,63.304 Z M532.199,71.872 C531.430996,70.9119952 530.483006,70.1080032 529.355,69.46 C528.226994,68.8119968 526.847008,68.488 525.215,68.488 C523.678992,68.488 522.347006,68.8119968 521.219,69.46 C520.090994,70.1080032 519.527,71.0559938 519.527,72.304 C519.527,73.312005 519.850997,74.1279969 520.499,74.752 C521.147003,75.3760031 521.914996,75.8799981 522.803,76.264 C523.691004,76.6480019 524.638995,76.935999 525.647,77.128 C526.655005,77.320001 527.518996,77.4879993 528.239,77.632 C529.631007,77.9680017 530.938994,78.3759976 532.163,78.856 C533.387006,79.3360024 534.442996,79.9599962 535.331,80.728 C536.219004,81.4960038 536.914997,82.4319945 537.419,83.536 C537.923003,84.6400055 538.175,85.9839921 538.175,87.568 C538.175,89.4880096 537.767004,91.1319932 536.951,92.5 C536.134996,93.8680068 535.079006,94.9839957 533.783,95.848 C532.486994,96.7120043 531.011008,97.3359981 529.355,97.72 C527.698992,98.1040019 526.031008,98.296 524.351,98.296 C521.518986,98.296 519.035011,97.8640043 516.899,97 C514.762989,96.1359957 512.855008,94.5520115 511.175,92.248 L516.071,88.216 C517.127005,89.2720053 518.302994,90.2079959 519.599,91.024 C520.895006,91.8400041 522.478991,92.248 524.351,92.248 C525.167004,92.248 525.994996,92.1640008 526.835,91.996 C527.675004,91.8279992 528.418997,91.5640018 529.067,91.204 C529.715003,90.8439982 530.242998,90.3880028 530.651,89.836 C531.059002,89.2839972 531.263,88.6480036 531.263,87.928 C531.263,86.9679952 530.963003,86.1760031 530.363,85.552 C529.762997,84.9279969 529.043004,84.4360018 528.203,84.076 C527.362996,83.7159982 526.475005,83.4280011 525.539,83.212 C524.602995,82.9959989 523.775004,82.8160007 523.055,82.672 C521.662993,82.3359983 520.343006,81.9520022 519.095,81.52 C517.846994,81.0879978 516.743005,80.5120036 515.783,79.792 C514.822995,79.0719964 514.055003,78.1600055 513.479,77.056 C512.902997,75.9519945 512.615,74.5840082 512.615,72.952 C512.615,71.1759911 512.986996,69.6280066 513.731,68.308 C514.475004,66.9879934 515.458994,65.8960043 516.683,65.032 C517.907006,64.1679957 519.298992,63.5200022 520.859,63.088 C522.419008,62.6559978 523.990992,62.44 525.575,62.44 C527.879012,62.44 530.086989,62.8719957 532.199,63.736 C534.311011,64.6000043 535.990994,66.0399899 537.239,68.056 L532.199,71.872 Z M564.311,68.92 L555.023,68.92 L555.023,84.4 C555.023,85.3600048 555.047,86.3079953 555.095,87.244 C555.143,88.1800047 555.322998,89.0199963 555.635,89.764 C555.947002,90.5080037 556.426997,91.1079977 557.075,91.564 C557.723003,92.0200023 558.670994,92.248 559.919,92.248 C560.687004,92.248 561.478996,92.1760007 562.295,92.032 C563.111004,91.8879993 563.854997,91.6240019 564.527,91.24 L564.527,97.144 C563.758996,97.5760022 562.763006,97.8759992 561.539,98.044 C560.314994,98.2120008 559.367003,98.296 558.695,98.296 C556.198988,98.296 554.267007,97.9480035 552.899,97.252 C551.530993,96.5559965 550.523003,95.6560055 549.875,94.552 C549.226997,93.4479945 548.843001,92.2120068 548.723,90.844 C548.602999,89.4759932 548.543,88.096007 548.543,86.704 L548.543,68.92 L541.055,68.92 L541.055,63.304 L548.543,63.304 L548.543,53.728 L555.023,53.728 L555.023,63.304 L564.311,63.304 L564.311,68.92 Z M577.559,82.744 C577.559,84.2320074 577.882997,85.5879939 578.531,86.812 C579.179003,88.0360061 580.030995,89.0799957 581.087,89.944 C582.143005,90.8080043 583.366993,91.4799976 584.759,91.96 C586.151007,92.4400024 587.590993,92.68 589.079,92.68 C591.09501,92.68 592.846993,92.2120047 594.335,91.276 C595.823007,90.3399953 597.190994,89.1040077 598.439,87.568 L603.335,91.312 C599.734982,95.9680233 594.695032,98.296 588.215,98.296 C585.526987,98.296 583.091011,97.8400046 580.907,96.928 C578.722989,96.0159954 576.875008,94.756008 575.363,93.148 C573.850992,91.539992 572.687004,89.6440109 571.871,87.46 C571.054996,85.2759891 570.647,82.9120127 570.647,80.368 C570.647,77.8239873 571.090996,75.4600109 571.979,73.276 C572.867004,71.0919891 574.090992,69.196008 575.651,67.588 C577.211008,65.979992 579.070989,64.7200046 581.231,63.808 C583.391011,62.8959954 585.742987,62.44 588.287,62.44 C591.311015,62.44 593.86699,62.9679947 595.955,64.024 C598.04301,65.0800053 599.758993,66.4599915 601.103,68.164 C602.447007,69.8680085 603.418997,71.7879893 604.019,73.924 C604.619003,76.0600107 604.919,78.231989 604.919,80.44 L604.919,82.744 L577.559,82.744 Z M598.007,77.56 C597.959,76.1199928 597.731002,74.800006 597.323,73.6 C596.914998,72.399994 596.303004,71.3560044 595.487,70.468 C594.670996,69.5799956 593.651006,68.8840025 592.427,68.38 C591.202994,67.8759975 589.775008,67.624 588.143,67.624 C586.558992,67.624 585.107007,67.923997 583.787,68.524 C582.466993,69.124003 581.351005,69.9039952 580.439,70.864 C579.526995,71.8240048 578.819003,72.8919941 578.315,74.068 C577.810997,75.2440059 577.559,76.4079942 577.559,77.56 L598.007,77.56 Z M612.695,63.304 L618.743,63.304 L618.743,68.632 L618.887,68.632 C619.031001,68.1519976 619.402997,67.5520036 620.003,66.832 C620.603003,66.1119964 621.370995,65.4280032 622.307,64.78 C623.243005,64.1319968 624.346994,63.5800023 625.619,63.124 C626.891006,62.6679977 628.294992,62.44 629.831,62.44 C632.375013,62.44 634.510991,62.9679947 636.239,64.024 C637.967009,65.0800053 639.382994,66.6639894 640.487,68.776 C641.591006,66.6639894 643.15099,65.0800053 645.167,64.024 C647.18301,62.9679947 649.22299,62.44 651.287,62.44 C653.927013,62.44 656.086992,62.8719957 657.767,63.736 C659.447008,64.6000043 660.766995,65.7399929 661.727,67.156 C662.687005,68.5720071 663.346998,70.179991 663.707,71.98 C664.067002,73.780009 664.247,75.6399904 664.247,77.56 L664.247,97.432 L657.767,97.432 L657.767,78.424 C657.767,77.1279935 657.683001,75.880006 657.515,74.68 C657.346999,73.479994 656.999003,72.4240046 656.471,71.512 C655.942997,70.5999954 655.199005,69.8680028 654.239,69.316 C653.278995,68.7639972 652.007008,68.488 650.423,68.488 C647.302984,68.488 645.071007,69.4479904 643.727,71.368 C642.382993,73.2880096 641.711,75.7599849 641.711,78.784 L641.711,97.432 L635.231,97.432 L635.231,79.576 C635.231,77.9439918 635.147001,76.4560067 634.979,75.112 C634.810999,73.7679933 634.475003,72.6040049 633.971,71.62 C633.466997,70.6359951 632.747005,69.8680028 631.811,69.316 C630.874995,68.7639972 629.615008,68.488 628.031,68.488 C626.878994,68.488 625.763005,68.7159977 624.683,69.172 C623.602995,69.6280023 622.655004,70.3119954 621.839,71.224 C621.022996,72.1360046 620.375002,73.2999929 619.895,74.716 C619.414998,76.1320071 619.175,77.7999904 619.175,79.72 L619.175,97.432 L612.695,97.432 L612.695,63.304 Z M692.183,71.872 C691.414996,70.9119952 690.467006,70.1080032 689.339,69.46 C688.210994,68.8119968 686.831008,68.488 685.199,68.488 C683.662992,68.488 682.331006,68.8119968 681.203,69.46 C680.074994,70.1080032 679.511,71.0559938 679.511,72.304 C679.511,73.312005 679.834997,74.1279969 680.483,74.752 C681.131003,75.3760031 681.898996,75.8799981 682.787,76.264 C683.675004,76.6480019 684.622995,76.935999 685.631,77.128 C686.639005,77.320001 687.502996,77.4879993 688.223,77.632 C689.615007,77.9680017 690.922994,78.3759976 692.147,78.856 C693.371006,79.3360024 694.426996,79.9599962 695.315,80.728 C696.203004,81.4960038 696.898997,82.4319945 697.403,83.536 C697.907003,84.6400055 698.159,85.9839921 698.159,87.568 C698.159,89.4880096 697.751004,91.1319932 696.935,92.5 C696.118996,93.8680068 695.063006,94.9839957 693.767,95.848 C692.470994,96.7120043 690.995008,97.3359981 689.339,97.72 C687.682992,98.1040019 686.015008,98.296 684.335,98.296 C681.502986,98.296 679.019011,97.8640043 676.883,97 C674.746989,96.1359957 672.839008,94.5520115 671.159,92.248 L676.055,88.216 C677.111005,89.2720053 678.286994,90.2079959 679.583,91.024 C680.879006,91.8400041 682.462991,92.248 684.335,92.248 C685.151004,92.248 685.978996,92.1640008 686.819,91.996 C687.659004,91.8279992 688.402997,91.5640018 689.051,91.204 C689.699003,90.8439982 690.226998,90.3880028 690.635,89.836 C691.043002,89.2839972 691.247,88.6480036 691.247,87.928 C691.247,86.9679952 690.947003,86.1760031 690.347,85.552 C689.746997,84.9279969 689.027004,84.4360018 688.187,84.076 C687.346996,83.7159982 686.459005,83.4280011 685.523,83.212 C684.586995,82.9959989 683.759004,82.8160007 683.039,82.672 C681.646993,82.3359983 680.327006,81.9520022 679.079,81.52 C677.830994,81.0879978 676.727005,80.5120036 675.767,79.792 C674.806995,79.0719964 674.039003,78.1600055 673.463,77.056 C672.886997,75.9519945 672.599,74.5840082 672.599,72.952 C672.599,71.1759911 672.970996,69.6280066 673.715,68.308 C674.459004,66.9879934 675.442994,65.8960043 676.667,65.032 C677.891006,64.1679957 679.282992,63.5200022 680.843,63.088 C682.403008,62.6559978 683.974992,62.44 685.559,62.44 C687.863012,62.44 690.070989,62.8719957 692.183,63.736 C694.295011,64.6000043 695.974994,66.0399899 697.223,68.056 L692.183,71.872 Z" id="Billing-Systems" stroke="#F8C60C" fill="#F28821"></path>
        </g>
    </g>
</svg>