<?xml version="1.0" encoding="UTF-8"?>
<svg width="865px" height="102px" viewBox="0 0 865 102" version="1.1" xmlns="http://www.w3.org/2000/svg" xmlns:xlink="http://www.w3.org/1999/xlink">
    <!-- Generator: Sketch 51.3 (57544) - http://www.bohemiancoding.com/sketch -->
    <title>Group</title>
    <desc>Created with Sketch.</desc>
    <defs>
        <rect id="path-1" x="0" y="0" width="92" height="92"></rect>
        <polygon id="path-3" points="0 92 92 92 92 0 0 0"></polygon>
    </defs>
    <g id="Page-1" stroke="none" stroke-width="1" fill="none" fill-rule="evenodd">
        <g id="Group" transform="translate(1.000000, 0.000000)">
            <g id="limasolonline-logo" transform="translate(772.000000, 0.000000)">
                <mask id="mask-2" fill="white">
                    <use xlink:href="#path-1"></use>
                </mask>
                <g id="Rectangle-path"></g>
                <g id="Group" mask="url(#mask-2)">
                    <polygon id="Shape" fill="#FFFFFF" fill-rule="nonzero" points="0 92 92 92 92 0 0 0"></polygon>
                    <g id="Clipped">
                        <mask id="mask-4" fill="white">
                            <use xlink:href="#path-3"></use>
                        </mask>
                        <g id="Shape"></g>
                        <g id="Group" mask="url(#mask-4)" fill-rule="nonzero">
                            <g transform="translate(6.474074, 13.203704)" id="Shape">
                                <path d="M18.2539926,13.5263852 C17.7460333,14.0812815 17.1941185,14.4164852 16.6606037,14.7400185 C15.9096111,15.195163 15.2005296,15.6251778 14.4784148,16.7030259 C13.3691333,18.3776815 13.8246185,22.2123778 14.0190963,23.8492963 L14.0610074,24.2080963 C14.1398037,24.9347259 13.9051185,26.1391593 13.6079926,27.663037 C13.2296,29.604237 12.7585259,32.0206852 12.8268444,34.0808889 C13.0019852,39.4208926 13.2002111,45.4725333 22.7050889,55.5842704 C31.2796593,64.7202963 47.5988407,67.0614407 51.9116815,65.5626926 C55.5904889,64.2803148 61.1463519,64.4789667 62.8033741,64.6507852 C63.0447889,64.6767667 63.2790481,64.7085407 63.5099852,64.7404 C65.0479185,64.9508074 66.1582222,65.1017556 67.6886593,63.407763 C68.297563,62.7372704 68.6349815,60.9334741 68.6915444,58.046037 C68.7367778,55.7837741 68.9120037,55.1718037 69.6491111,52.5969963 C69.9555222,51.5274963 70.3633037,50.1043074 70.9064444,48.0599481 C72.6191778,41.6219926 74.2368444,35.5401111 67.1928815,23.1184074 C60.2280556,10.8299333 46.3830778,7.96004444 40.7543815,7.29704815 C38.1258222,6.99361852 34.0552481,7.60967778 30.4628185,8.15699259 C28.1013148,8.51655926 25.8704852,8.85602222 24.3550407,8.87868148 C21.6838037,8.91974074 20.1524296,11.0060111 19.0343741,12.5289519 C18.7451704,12.9229333 18.4949815,13.2640148 18.2539926,13.5263852 Z M48.2890963,67.3463 C41.0351519,67.3463 28.7169481,63.9308 21.7366185,56.4937074 C11.8888704,46.0173778 11.6818704,39.6991926 11.4991481,34.1245037 C11.4258037,31.9142037 11.9128074,29.4164889 12.3038074,27.4090148 C12.5577444,26.1073 12.7974556,24.877737 12.7404667,24.3538481 L12.6998333,24.006037 C12.4701741,22.0732704 11.9928815,18.0508259 13.3728815,15.9671111 C14.2605111,14.6419704 15.1695222,14.0904815 15.9716259,13.6043296 C16.4669778,13.3033704 16.8945222,13.0444074 17.2733407,12.6295556 L17.2749593,12.6278519 C17.4665407,12.42 17.6970519,12.1065185 17.9635963,11.7427778 C19.100563,10.1937704 21.0036,7.60132963 24.334937,7.55098519 C25.7598296,7.52926296 27.9470444,7.19644444 30.2629741,6.84360741 C33.9383741,6.28368519 38.1032481,5.65084444 40.9089926,5.97778519 C46.7397481,6.66505926 61.0842519,9.64645556 68.3486741,22.4629926 C75.6600333,35.3574741 73.9744741,41.6932074 72.1904407,48.4019667 C71.6439778,50.4562926 71.2340667,51.887063 70.926037,52.9624407 C70.1935296,55.5222556 70.0614926,55.9832778 70.0200074,58.0727852 C69.9538185,61.4262704 69.5384556,63.3466 68.6730593,64.2995667 C66.6728259,66.5131889 64.9738074,66.2818259 63.3301593,66.0564259 C63.1109778,66.0261852 62.8892407,65.9960296 62.6633296,65.9717519 C60.6793667,65.7672222 55.5434667,65.7043556 52.3491926,66.8166185 C51.344263,67.1669852 49.9491,67.3463 48.2890963,67.3463 Z" fill="#FAD200"></path>
                                <path d="M25.4703704,8.15699259 C50.5629444,3.84304444 61.3268593,13.1631556 66.0185185,20.9667148 C79.6175667,36.9717333 69.4324,52.0886963 70.926037,48.0599481 C71.4130407,47.4766 69.5912704,58.591137 69.6491111,58.9481481 C69.8410333,60.2473074 68.6928222,63.3983926 68.1404815,64.0153889 C66.1162259,66.2683667 64.5430259,65.6748815 62.6974037,65.4804037 C60.8591926,65.2792815 55.5058148,65.1568704 52.089463,66.347163 C47.4183333,67.9816111 30.9624296,65.5643111 22.182563,56.2035667 C12.5963333,45.9929296 12.3047444,39.7871037 12.1278148,34.2734926 C12.0071074,30.5788407 13.5217,25.9421259 13.3558444,24.4417593 C13.1889667,22.9431815 12.5485444,18.5175556 13.8947259,16.5009667 C14.053937,16.2545259 14.9206111,15.183237 14.8963333,15.3174889 C14.6230593,17.0641259 20.5434296,7.9171963 25.4703704,8.15699259 Z" fill="#FAD200"></path>
                                <path d="M4.45186296,4.65426296 C4.45186296,4.65426296 6.17856667,5.36837037 8.39380741,6.53515185 C11.6903037,8.27182222 16.0832185,11.0159778 17.5013815,13.9093778 C17.9431519,14.8296333 18.3655852,13.1163889 18.3655852,13.1163889 C18.3655852,13.1163889 10.7314593,4.83195926 5.08887778,3.41371111 C3.73613704,3.06675185 3.5374,4.26368889 4.45186296,4.65426296 Z" fill="#406E2C"></path>
                                <path d="M8.37455556,8.9976 C8.37455556,8.9976 5.57247407,14.5043963 5.4676963,18.9467185 C5.34945926,23.3974741 1.63725926,30.3559963 1.24004074,30.6577222 C0.970088889,30.8639556 10.0700815,27.3401852 11.2913815,20.9667148 C12.5091889,14.6067037 9.69381852,10.1341407 8.37455556,8.9976 Z" fill="#406E2C"></path>
                                <path d="M8.62593704,9.29268148 L8.09617037,9.17188889 C8.09617037,9.1568963 8.52286296,7.24585185 8.04344074,6.32048519 L8.53623704,6.07404444 C9.09615926,7.17208148 8.64357037,9.21388519 8.62593704,9.29268148 Z" fill="#406E2C"></path>
                                <path d="M7.80125926,8.84511852 C7.80125926,8.84511852 2.3707037,8.79307037 0.7061,14.9654185 C-0.710359259,20.1905926 0.366637037,21.8116667 0.91982963,23.8852444 C1.31542963,25.3470222 2.17878148,29.3534519 1.34226296,30.4984259 C0.504040741,31.6383741 5.01008148,26.5389333 5.4676963,18.9467185 C5.70834444,14.9034037 7.9764,9.95985185 8.37455556,8.9976 C8.42984074,8.87697778 7.80125926,8.84511852 7.80125926,8.84511852 Z" fill="#87AC27"></path>
                                <path d="M11.5310926,5.37501481 C11.5310926,5.37501481 15.9298852,5.68517407 18.8902407,4.51847778 C21.8515333,3.35663704 27.4655778,3.86297778 27.7740333,4.04237778 C27.9844407,4.17143333 23.1280333,-0.845888889 18.596863,0.124711111 C14.0623704,1.09198889 11.9041185,4.19153704 11.5310926,5.37501481 Z" fill="#406E2C"></path>
                                <path d="M9.9176,6.39425556 L9.50104444,6.03554074 C10.081837,5.33812963 11.5763259,5.06655926 11.6433667,5.04986296 L11.7380926,5.59291852 C11.3601259,5.65331481 10.2981222,5.93834444 9.9176,6.39425556 Z" fill="#406E2C"></path>
                                <path d="M11.5856111,5.79412593 C11.5856111,5.79412593 13.060763,9.38314815 17.5876741,8.763 C21.4315704,8.23987778 22.1976407,7.07982593 23.3996037,6.13111852 C24.2553741,5.46386296 26.6584481,3.77574815 27.6408037,4.02057037 C28.6172815,4.25857778 24.0182185,2.70292593 18.8902407,4.51847778 C16.1528148,5.48899259 12.2694778,5.37501481 11.5310926,5.37501481 C11.429637,5.37501481 11.5856111,5.79412593 11.5856111,5.79412593 Z" fill="#87AC27"></path>
                            </g>
                        </g>
                    </g>
                </g>
            </g>
            <path d="M0,46.497 L8.946,46.497 L8.946,88.671 L30.317,88.671 L30.317,96.765 L0,96.765 L0,46.497 Z M36.21,62.685 L44.73,62.685 L44.73,96.765 L36.21,96.765 L36.21,62.685 Z M35.003,51.112 C35.003,49.7393265 35.5118282,48.5441718 36.5295,47.5265 C37.5471718,46.5088282 38.8369922,46 40.399,46 C41.9610078,46 43.2744947,46.4851618 44.3395,47.4555 C45.4045053,48.4258382 45.937,49.6446593 45.937,51.112 C45.937,52.5793407 45.4045053,53.7981618 44.3395,54.7685 C43.2744947,55.7388382 41.9610078,56.224 40.399,56.224 C38.8369922,56.224 37.5471718,55.7151718 36.5295,54.6975 C35.5118282,53.6798282 35.003,52.4846735 35.003,51.112 Z M54.173,62.685 L62.267,62.685 L62.267,68.01 L62.409,68.01 C63.1663371,66.4006586 64.3851583,64.9688396 66.0655,63.7145 C67.7458417,62.4601604 70.0059858,61.833 72.846,61.833 C78.1946934,61.833 81.7446579,63.9393123 83.496,68.152 C84.7266728,65.9746558 86.2649908,64.3771718 88.111,63.3595 C89.9570092,62.3418282 92.1579872,61.833 94.714,61.833 C96.9860114,61.833 98.9029922,62.2116629 100.465,62.969 C102.027008,63.7263371 103.293162,64.76766 104.2635,66.093 C105.233838,67.41834 105.931998,68.9684911 106.358,70.7435 C106.784002,72.5185089 106.997,74.4236565 106.997,76.459 L106.997,96.765 L98.477,96.765 L98.477,77.453 C98.477,76.4116615 98.3823343,75.4058382 98.193,74.4355 C98.0036657,73.4651618 97.6723357,72.6131703 97.199,71.8795 C96.7256643,71.1458297 96.0866707,70.5660021 95.282,70.14 C94.4773293,69.7139979 93.4360064,69.501 92.158,69.501 C90.83266,69.501 89.7085046,69.7494975 88.7855,70.2465 C87.8624954,70.7435025 87.1051696,71.4061625 86.5135,72.2345 C85.9218304,73.0628375 85.4958346,74.0094947 85.2355,75.0745 C84.9751654,76.1395053 84.845,77.2163279 84.845,78.305 L84.845,96.765 L76.325,96.765 L76.325,76.459 C76.325,74.3289894 75.8753378,72.6368396 74.976,71.3825 C74.0766622,70.1281604 72.5856771,69.501 70.503,69.501 C69.0829929,69.501 67.8878382,69.7376643 66.9175,70.211 C65.9471618,70.6843357 65.1425032,71.3233293 64.5035,72.128 C63.8644968,72.9326707 63.4030014,73.8556615 63.119,74.897 C62.8349986,75.9383385 62.693,77.0269943 62.693,78.163 L62.693,96.765 L54.173,96.765 L54.173,62.685 Z M114.594,79.725 C114.594,77.0269865 115.079162,74.577511 116.0495,72.3765 C117.019838,70.175489 118.333325,68.2940078 119.99,66.732 C121.646675,65.1699922 123.610989,63.9630043 125.883,63.111 C128.155011,62.2589957 130.568987,61.833 133.125,61.833 C135.681013,61.833 138.094989,62.2589957 140.367,63.111 C142.639011,63.9630043 144.603325,65.1699922 146.26,66.732 C147.916675,68.2940078 149.230162,70.175489 150.2005,72.3765 C151.170838,74.577511 151.656,77.0269865 151.656,79.725 C151.656,82.4230135 151.170838,84.872489 150.2005,87.0735 C149.230162,89.274511 147.916675,91.1559922 146.26,92.718 C144.603325,94.2800078 142.639011,95.4869957 140.367,96.339 C138.094989,97.1910043 135.681013,97.617 133.125,97.617 C130.568987,97.617 128.155011,97.1910043 125.883,96.339 C123.610989,95.4869957 121.646675,94.2800078 119.99,92.718 C118.333325,91.1559922 117.019838,89.274511 116.0495,87.0735 C115.079162,84.872489 114.594,82.4230135 114.594,79.725 Z M123.114,79.725 C123.114,81.05034 123.338831,82.3283272 123.7885,83.559 C124.238169,84.7896728 124.900829,85.8783286 125.7765,86.825 C126.652171,87.7716714 127.705327,88.5289972 128.936,89.097 C130.166673,89.6650028 131.562992,89.949 133.125,89.949 C134.687008,89.949 136.083327,89.6650028 137.314,89.097 C138.544673,88.5289972 139.597829,87.7716714 140.4735,86.825 C141.349171,85.8783286 142.011831,84.7896728 142.4615,83.559 C142.911169,82.3283272 143.136,81.05034 143.136,79.725 C143.136,78.39966 142.911169,77.1216728 142.4615,75.891 C142.011831,74.6603272 141.349171,73.5716714 140.4735,72.625 C139.597829,71.6783286 138.544673,70.9210028 137.314,70.353 C136.083327,69.7849972 134.687008,69.501 133.125,69.501 C131.562992,69.501 130.166673,69.7849972 128.936,70.353 C127.705327,70.9210028 126.652171,71.6783286 125.7765,72.625 C124.900829,73.5716714 124.238169,74.6603272 123.7885,75.891 C123.338831,77.1216728 123.114,78.39966 123.114,79.725 Z M159.608,62.685 L167.702,62.685 L167.702,68.152 L167.844,68.152 C168.648671,66.4479915 169.879325,64.9688396 171.536,63.7145 C173.192675,62.4601604 175.440986,61.833 178.281,61.833 C180.553011,61.833 182.481825,62.2116629 184.0675,62.969 C185.653175,63.7263371 186.942995,64.7203272 187.937,65.951 C188.931005,67.1816728 189.640998,68.6016586 190.067,70.211 C190.493002,71.8203414 190.706,73.5006579 190.706,75.252 L190.706,96.765 L182.186,96.765 L182.186,79.512 C182.186,78.5653286 182.138667,77.5121725 182.044,76.3525 C181.949333,75.1928275 181.700835,74.1041718 181.2985,73.0865 C180.896165,72.0688282 180.269004,71.2168368 179.417,70.5305 C178.564996,69.8441632 177.405341,69.501 175.938,69.501 C174.517993,69.501 173.322838,69.7376643 172.3525,70.211 C171.382162,70.6843357 170.577503,71.3233293 169.9385,72.128 C169.299497,72.9326707 168.838001,73.8556615 168.554,74.897 C168.269999,75.9383385 168.128,77.0269943 168.128,78.163 L168.128,96.765 L159.608,96.765 L159.608,62.685 Z" id="Limon" stroke="#F9D109" fill="#396A30"></path>
            <path d="M221.159,49.408 L253.606,49.408 L253.606,57.502 L230.105,57.502 L230.105,70.708 L252.257,70.708 L252.257,78.802 L230.105,78.802 L230.105,99.676 L221.159,99.676 L221.159,49.408 Z M282.432,94.99 L282.219,94.99 C280.988327,96.9306764 279.426343,98.338829 277.533,99.2145 C275.639657,100.090171 273.557011,100.528 271.285,100.528 C269.722992,100.528 268.196507,100.315002 266.7055,99.889 C265.214493,99.4629979 263.889172,98.8240043 262.7295,97.972 C261.569828,97.1199957 260.635004,96.0550064 259.925,94.777 C259.214996,93.4989936 258.86,92.0080085 258.86,90.304 C258.86,88.4579908 259.19133,86.8841732 259.854,85.5825 C260.51667,84.2808268 261.404161,83.192171 262.5165,82.3165 C263.628839,81.440829 264.918659,80.7426693 266.386,80.222 C267.853341,79.7013307 269.379825,79.3108346 270.9655,79.0505 C272.551175,78.7901654 274.148659,78.6245004 275.758,78.5535 C277.367341,78.4824996 278.881993,78.447 280.302,78.447 L282.432,78.447 L282.432,77.524 C282.432,75.3939894 281.698341,73.7965053 280.231,72.7315 C278.763659,71.6664947 276.894011,71.134 274.622,71.134 C272.823324,71.134 271.143008,71.4534968 269.581,72.0925 C268.018992,72.7315032 266.670006,73.5953279 265.534,74.684 L261.061,70.211 C262.954343,68.2703236 265.167154,66.8740043 267.6995,66.022 C270.231846,65.1699957 272.846987,64.744 275.545,64.744 C277.959012,64.744 279.994325,65.0161639 281.651,65.5605 C283.307675,66.1048361 284.680328,66.8029957 285.769,67.655 C286.857672,68.5070043 287.69783,69.4891611 288.2895,70.6015 C288.88117,71.7138389 289.307165,72.8379943 289.5675,73.974 C289.827835,75.1100057 289.981666,76.2104947 290.029,77.2755 C290.076334,78.3405053 290.1,79.2753293 290.1,80.08 L290.1,99.676 L282.432,99.676 L282.432,94.99 Z M281.935,84.411 L280.16,84.411 C278.976661,84.411 277.651341,84.4583329 276.184,84.553 C274.716659,84.6476671 273.332173,84.8724982 272.0305,85.2275 C270.728827,85.5825018 269.628338,86.1031632 268.729,86.7895 C267.829662,87.4758368 267.38,88.4343272 267.38,89.665 C267.38,90.4696707 267.557498,91.1441639 267.9125,91.6885 C268.267502,92.2328361 268.728997,92.6943314 269.297,93.073 C269.865003,93.4516686 270.503996,93.7238325 271.214,93.8895 C271.924004,94.0551675 272.633996,94.138 273.344,94.138 C276.278681,94.138 278.44416,93.4398403 279.8405,92.0435 C281.23684,90.6471597 281.935,88.7420121 281.935,86.328 L281.935,84.411 Z M295.283,72.838 L295.283,65.596 L302.312,65.596 L302.312,55.727 L310.832,55.727 L310.832,65.596 L320.204,65.596 L320.204,72.838 L310.832,72.838 L310.832,87.748 C310.832,89.4520085 311.151497,90.800995 311.7905,91.795 C312.429503,92.789005 313.695657,93.286 315.589,93.286 C316.346337,93.286 317.174662,93.2031675 318.074,93.0375 C318.973338,92.8718325 319.683331,92.5996686 320.204,92.221 L320.204,99.392 C319.304662,99.8180021 318.204173,100.113833 316.9025,100.2795 C315.600827,100.445167 314.453005,100.528 313.459,100.528 C311.186989,100.528 309.329174,100.279502 307.8855,99.7825 C306.441826,99.2854975 305.305837,98.5281718 304.4775,97.5105 C303.649163,96.4928282 303.081168,95.2266742 302.7735,93.712 C302.465832,92.1973258 302.312,90.4460099 302.312,88.458 L302.312,72.838 L295.283,72.838 Z M357.976,99.676 L349.882,99.676 L349.882,94.209 L349.74,94.209 C348.935329,95.9130085 347.704675,97.3921604 346.048,98.6465 C344.391325,99.9008396 342.143014,100.528 339.303,100.528 C337.030989,100.528 335.102175,100.16117 333.5165,99.4275 C331.930825,98.6938297 330.641005,97.6998396 329.647,96.4455 C328.652995,95.1911604 327.943002,93.7593414 327.517,92.15 C327.090998,90.5406586 326.878,88.8603421 326.878,87.109 L326.878,65.596 L335.398,65.596 L335.398,82.849 C335.398,83.7956714 335.445333,84.8488275 335.54,86.0085 C335.634667,87.1681725 335.883165,88.2568282 336.2855,89.2745 C336.687835,90.2921718 337.303163,91.1441632 338.1315,91.8305 C338.959837,92.5168368 340.131326,92.86 341.646,92.86 C343.066007,92.86 344.261162,92.6233357 345.2315,92.15 C346.201838,91.6766643 347.006497,91.0376707 347.6455,90.233 C348.284503,89.4283293 348.745999,88.5053385 349.03,87.464 C349.314001,86.4226615 349.456,85.3340057 349.456,84.198 L349.456,65.596 L357.976,65.596 L357.976,99.676 Z M367.632,65.596 L376.152,65.596 L376.152,70.992 L376.294,70.992 C377.240671,69.0039901 378.589658,67.4656721 380.341,66.377 C382.092342,65.2883279 384.103989,64.744 386.376,64.744 C386.896669,64.744 387.405498,64.7913329 387.9025,64.886 C388.399502,64.9806671 388.908331,65.0989993 389.429,65.241 L389.429,73.477 C388.718996,73.2876657 388.020837,73.1338339 387.3345,73.0155 C386.648163,72.8971661 385.97367,72.838 385.311,72.838 C383.32299,72.838 381.725506,73.2048297 380.5185,73.9385 C379.311494,74.6721703 378.388503,75.5123286 377.7495,76.459 C377.110497,77.4056714 376.684501,78.3523286 376.4715,79.299 C376.258499,80.2456714 376.152,80.9556643 376.152,81.429 L376.152,99.676 L367.632,99.676 L367.632,65.596 Z M416.551,94.99 L416.338,94.99 C415.107327,96.9306764 413.545343,98.338829 411.652,99.2145 C409.758657,100.090171 407.676011,100.528 405.404,100.528 C403.841992,100.528 402.315507,100.315002 400.8245,99.889 C399.333493,99.4629979 398.008172,98.8240043 396.8485,97.972 C395.688828,97.1199957 394.754004,96.0550064 394.044,94.777 C393.333996,93.4989936 392.979,92.0080085 392.979,90.304 C392.979,88.4579908 393.31033,86.8841732 393.973,85.5825 C394.63567,84.2808268 395.523161,83.192171 396.6355,82.3165 C397.747839,81.440829 399.037659,80.7426693 400.505,80.222 C401.972341,79.7013307 403.498825,79.3108346 405.0845,79.0505 C406.670175,78.7901654 408.267659,78.6245004 409.877,78.5535 C411.486341,78.4824996 413.000993,78.447 414.421,78.447 L416.551,78.447 L416.551,77.524 C416.551,75.3939894 415.817341,73.7965053 414.35,72.7315 C412.882659,71.6664947 411.013011,71.134 408.741,71.134 C406.942324,71.134 405.262008,71.4534968 403.7,72.0925 C402.137992,72.7315032 400.789006,73.5953279 399.653,74.684 L395.18,70.211 C397.073343,68.2703236 399.286154,66.8740043 401.8185,66.022 C404.350846,65.1699957 406.965987,64.744 409.664,64.744 C412.078012,64.744 414.113325,65.0161639 415.77,65.5605 C417.426675,66.1048361 418.799328,66.8029957 419.888,67.655 C420.976672,68.5070043 421.81683,69.4891611 422.4085,70.6015 C423.00017,71.7138389 423.426165,72.8379943 423.6865,73.974 C423.946835,75.1100057 424.100666,76.2104947 424.148,77.2755 C424.195334,78.3405053 424.219,79.2753293 424.219,80.08 L424.219,99.676 L416.551,99.676 L416.551,94.99 Z M416.054,84.411 L414.279,84.411 C413.095661,84.411 411.770341,84.4583329 410.303,84.553 C408.835659,84.6476671 407.451173,84.8724982 406.1495,85.2275 C404.847827,85.5825018 403.747338,86.1031632 402.848,86.7895 C401.948662,87.4758368 401.499,88.4343272 401.499,89.665 C401.499,90.4696707 401.676498,91.1441639 402.0315,91.6885 C402.386502,92.2328361 402.847997,92.6943314 403.416,93.073 C403.984003,93.4516686 404.622996,93.7238325 405.333,93.8895 C406.043004,94.0551675 406.752996,94.138 407.463,94.138 C410.397681,94.138 412.56316,93.4398403 413.9595,92.0435 C415.35584,90.6471597 416.054,88.7420121 416.054,86.328 L416.054,84.411 Z M479.812,60.2 C478.865329,58.8273265 477.599175,57.8215032 476.0135,57.1825 C474.427825,56.5434968 472.759342,56.224 471.008,56.224 C469.966661,56.224 468.960838,56.3423322 467.9905,56.579 C467.020162,56.8156679 466.144504,57.1943307 465.3635,57.715 C464.582496,58.2356693 463.955336,58.9101625 463.482,59.7385 C463.008664,60.5668375 462.772,61.5489943 462.772,62.685 C462.772,64.3890085 463.363661,65.6906622 464.547,66.59 C465.730339,67.4893378 467.197658,68.27033 468.949,68.933 C470.700342,69.59567 472.617323,70.2346636 474.7,70.85 C476.782677,71.4653364 478.699658,72.3173279 480.451,73.406 C482.202342,74.4946721 483.669661,75.9383243 484.853,77.737 C486.036339,79.5356757 486.628,81.9259851 486.628,84.908 C486.628,87.6060135 486.131005,89.9608233 485.137,91.9725 C484.142995,93.9841767 482.805842,95.65266 481.1255,96.978 C479.445158,98.30334 477.492678,99.29733 475.268,99.96 C473.043322,100.62267 470.700346,100.954 468.239,100.954 C465.114984,100.954 462.109348,100.433339 459.222,99.392 C456.334652,98.3506615 453.849677,96.5993456 451.767,94.138 L458.512,87.606 C459.600672,89.262675 461.032491,90.5524954 462.8075,91.4755 C464.582509,92.3985046 466.46399,92.86 468.452,92.86 C469.493339,92.86 470.534661,92.7180014 471.576,92.434 C472.617339,92.1499986 473.563996,91.7240028 474.416,91.156 C475.268004,90.5879972 475.954331,89.866171 476.475,88.9905 C476.995669,88.114829 477.256,87.1090057 477.256,85.973 C477.256,84.1269908 476.664339,82.707005 475.481,81.713 C474.297661,80.718995 472.830342,79.8788368 471.079,79.1925 C469.327658,78.5061632 467.410677,77.8553364 465.328,77.24 C463.245323,76.6246636 461.328342,75.7845053 459.577,74.7195 C457.825658,73.6544947 456.358339,72.2345089 455.175,70.4595 C453.991661,68.6844911 453.4,66.3060149 453.4,63.324 C453.4,60.7206537 453.932495,58.4723428 454.9975,56.579 C456.062505,54.6856572 457.458825,53.1118396 459.1865,51.8575 C460.914175,50.6031604 462.890322,49.6683364 465.115,49.053 C467.339678,48.4376636 469.611655,48.13 471.931,48.13 C474.58168,48.13 477.149488,48.5323293 479.6345,49.337 C482.119512,50.1416707 484.35599,51.4669908 486.344,53.313 L479.812,60.2 Z M495.29,65.596 L503.81,65.596 L503.81,99.676 L495.29,99.676 L495.29,65.596 Z M494.083,54.023 C494.083,52.6503265 494.591828,51.4551718 495.6095,50.4375 C496.627172,49.4198282 497.916992,48.911 499.479,48.911 C501.041008,48.911 502.354495,49.3961618 503.4195,50.3665 C504.484505,51.3368382 505.017,52.5556593 505.017,54.023 C505.017,55.4903407 504.484505,56.7091618 503.4195,57.6795 C502.354495,58.6498382 501.041008,59.135 499.479,59.135 C497.916992,59.135 496.627172,58.6261718 495.6095,57.6085 C494.591828,56.5908282 494.083,55.3956735 494.083,54.023 Z M531.784,75.039 C530.127325,72.7196551 527.902681,71.56 525.11,71.56 C523.973994,71.56 522.861672,71.8439972 521.773,72.412 C520.684328,72.9800028 520.14,73.9029936 520.14,75.181 C520.14,76.2223385 520.589662,76.9796643 521.489,77.453 C522.388338,77.9263357 523.524326,78.328665 524.897,78.66 C526.269674,78.991335 527.748825,79.3344982 529.3345,79.6895 C530.920175,80.0445018 532.399326,80.5888297 533.772,81.3225 C535.144674,82.0561703 536.280662,83.0619936 537.18,84.34 C538.079338,85.6180064 538.529,87.3693222 538.529,89.594 C538.529,91.6293435 538.091171,93.3451597 537.2155,94.7415 C536.339829,96.1378403 535.20384,97.2619957 533.8075,98.114 C532.41116,98.9660043 530.837342,99.5813314 529.086,99.96 C527.334658,100.338669 525.583342,100.528 523.832,100.528 C521.18132,100.528 518.743678,100.149337 516.519,99.392 C514.294322,98.6346629 512.306342,97.2620099 510.555,95.274 L516.235,89.949 C517.323672,91.1796728 518.49516,92.1854961 519.7495,92.9665 C521.00384,93.7475039 522.530324,94.138 524.329,94.138 C524.944336,94.138 525.58333,94.0670007 526.246,93.925 C526.90867,93.7829993 527.523997,93.546335 528.092,93.215 C528.660003,92.883665 529.121498,92.4695025 529.4765,91.9725 C529.831502,91.4754975 530.009,90.89567 530.009,90.233 C530.009,89.0496608 529.559338,88.1740028 528.66,87.606 C527.760662,87.0379972 526.624674,86.5765018 525.252,86.2215 C523.879326,85.8664982 522.400175,85.5351682 520.8145,85.2275 C519.228825,84.9198318 517.749674,84.4228368 516.377,83.7365 C515.004326,83.0501632 513.868338,82.0916728 512.969,80.861 C512.069662,79.6303272 511.62,77.9263442 511.62,75.749 C511.62,73.8556572 512.010496,72.2108403 512.7915,70.8145 C513.572504,69.4181597 514.601994,68.2703378 515.88,67.371 C517.158006,66.4716622 518.625325,65.8090021 520.282,65.383 C521.938675,64.9569979 523.618991,64.744 525.323,64.744 C527.595011,64.744 529.843322,65.1344961 532.068,65.9155 C534.292678,66.6965039 536.091326,68.0336572 537.464,69.927 L531.784,75.039 Z M541.156,72.838 L541.156,65.596 L548.185,65.596 L548.185,55.727 L556.705,55.727 L556.705,65.596 L566.077,65.596 L566.077,72.838 L556.705,72.838 L556.705,87.748 C556.705,89.4520085 557.024497,90.800995 557.6635,91.795 C558.302503,92.789005 559.568657,93.286 561.462,93.286 C562.219337,93.286 563.047662,93.2031675 563.947,93.0375 C564.846338,92.8718325 565.556331,92.5996686 566.077,92.221 L566.077,99.392 C565.177662,99.8180021 564.077173,100.113833 562.7755,100.2795 C561.473827,100.445167 560.326005,100.528 559.332,100.528 C557.059989,100.528 555.202174,100.279502 553.7585,99.7825 C552.314826,99.2854975 551.178837,98.5281718 550.3505,97.5105 C549.522163,96.4928282 548.954168,95.2266742 548.6465,93.712 C548.338832,92.1973258 548.185,90.4460099 548.185,88.458 L548.185,72.838 L541.156,72.838 Z M579.567,85.618 C579.851001,88.1740128 580.844991,90.1619929 582.549,91.582 C584.253009,93.0020071 586.311988,93.712 588.726,93.712 C590.856011,93.712 592.642826,93.274171 594.0865,92.3985 C595.530174,91.522829 596.796328,90.42234 597.885,89.097 L603.991,93.712 C602.00299,96.1733456 599.778346,97.9246615 597.317,98.966 C594.855654,100.007339 592.276013,100.528 589.578,100.528 C587.021987,100.528 584.608011,100.102004 582.336,99.25 C580.063989,98.3979957 578.099675,97.1910078 576.443,95.629 C574.786325,94.0669922 573.472838,92.185511 572.5025,89.9845 C571.532162,87.783489 571.047,85.3340135 571.047,82.636 C571.047,79.9379865 571.532162,77.488511 572.5025,75.2875 C573.472838,73.086489 574.786325,71.2050078 576.443,69.643 C578.099675,68.0809922 580.063989,66.8740043 582.336,66.022 C584.608011,65.1699957 587.021987,64.744 589.578,64.744 C591.944679,64.744 594.110157,65.1581625 596.0745,65.9865 C598.038843,66.8148375 599.71916,68.0099922 601.1155,69.572 C602.51184,71.1340078 603.600496,73.0628219 604.3815,75.3585 C605.162504,77.6541781 605.553,80.2929851 605.553,83.275 L605.553,85.618 L579.567,85.618 Z M597.033,79.228 C596.985666,76.7193208 596.204674,74.7431739 594.69,73.2995 C593.175326,71.8558261 591.069013,71.134 588.371,71.134 C585.814987,71.134 583.791507,71.8676593 582.3005,73.335 C580.809493,74.8023407 579.898335,76.7666544 579.567,79.228 L597.033,79.228 Z M613.15,65.596 L621.244,65.596 L621.244,70.921 L621.386,70.921 C622.143337,69.3116586 623.362158,67.8798396 625.0425,66.6255 C626.722842,65.3711604 628.982986,64.744 631.823,64.744 C637.171693,64.744 640.721658,66.8503123 642.473,71.063 C643.703673,68.8856558 645.241991,67.2881718 647.088,66.2705 C648.934009,65.2528282 651.134987,64.744 653.691,64.744 C655.963011,64.744 657.879992,65.1226629 659.442,65.88 C661.004008,66.6373371 662.270162,67.67866 663.2405,69.004 C664.210838,70.32934 664.908998,71.8794911 665.335,73.6545 C665.761002,75.4295089 665.974,77.3346565 665.974,79.37 L665.974,99.676 L657.454,99.676 L657.454,80.364 C657.454,79.3226615 657.359334,78.3168382 657.17,77.3465 C656.980666,76.3761618 656.649336,75.5241703 656.176,74.7905 C655.702664,74.0568297 655.063671,73.4770021 654.259,73.051 C653.454329,72.6249979 652.413006,72.412 651.135,72.412 C649.80966,72.412 648.685505,72.6604975 647.7625,73.1575 C646.839495,73.6545025 646.08217,74.3171625 645.4905,75.1455 C644.89883,75.9738375 644.472835,76.9204947 644.2125,77.9855 C643.952165,79.0505053 643.822,80.1273279 643.822,81.216 L643.822,99.676 L635.302,99.676 L635.302,79.37 C635.302,77.2399894 634.852338,75.5478396 633.953,74.2935 C633.053662,73.0391604 631.562677,72.412 629.48,72.412 C628.059993,72.412 626.864838,72.6486643 625.8945,73.122 C624.924162,73.5953357 624.119503,74.2343293 623.4805,75.039 C622.841497,75.8436707 622.380001,76.7666615 622.096,77.808 C621.811999,78.8493385 621.67,79.9379943 621.67,81.074 L621.67,99.676 L613.15,99.676 L613.15,65.596 Z M675.417,46 L683.937,46 L683.937,99.676 L675.417,99.676 L675.417,46 Z M700.551,85.618 C700.835001,88.1740128 701.828991,90.1619929 703.533,91.582 C705.237009,93.0020071 707.295988,93.712 709.71,93.712 C711.840011,93.712 713.626826,93.274171 715.0705,92.3985 C716.514174,91.522829 717.780328,90.42234 718.869,89.097 L724.975,93.712 C722.98699,96.1733456 720.762346,97.9246615 718.301,98.966 C715.839654,100.007339 713.260013,100.528 710.562,100.528 C708.005987,100.528 705.592011,100.102004 703.32,99.25 C701.047989,98.3979957 699.083675,97.1910078 697.427,95.629 C695.770325,94.0669922 694.456838,92.185511 693.4865,89.9845 C692.516162,87.783489 692.031,85.3340135 692.031,82.636 C692.031,79.9379865 692.516162,77.488511 693.4865,75.2875 C694.456838,73.086489 695.770325,71.2050078 697.427,69.643 C699.083675,68.0809922 701.047989,66.8740043 703.32,66.022 C705.592011,65.1699957 708.005987,64.744 710.562,64.744 C712.928679,64.744 715.094157,65.1581625 717.0585,65.9865 C719.022843,66.8148375 720.70316,68.0099922 722.0995,69.572 C723.49584,71.1340078 724.584496,73.0628219 725.3655,75.3585 C726.146504,77.6541781 726.537,80.2929851 726.537,83.275 L726.537,85.618 L700.551,85.618 Z M718.017,79.228 C717.969666,76.7193208 717.188674,74.7431739 715.674,73.2995 C714.159326,71.8558261 712.053013,71.134 709.355,71.134 C706.798987,71.134 704.775507,71.8676593 703.2845,73.335 C701.793493,74.8023407 700.882335,76.7666544 700.551,79.228 L718.017,79.228 Z M734.489,65.596 L743.009,65.596 L743.009,70.992 L743.151,70.992 C744.097671,69.0039901 745.446658,67.4656721 747.198,66.377 C748.949342,65.2883279 750.960989,64.744 753.233,64.744 C753.753669,64.744 754.262498,64.7913329 754.7595,64.886 C755.256502,64.9806671 755.765331,65.0989993 756.286,65.241 L756.286,73.477 C755.575996,73.2876657 754.877837,73.1338339 754.1915,73.0155 C753.505163,72.8971661 752.83067,72.838 752.168,72.838 C750.17999,72.838 748.582506,73.2048297 747.3755,73.9385 C746.168494,74.6721703 745.245503,75.5123286 744.6065,76.459 C743.967497,77.4056714 743.541501,78.3523286 743.3285,79.299 C743.115499,80.2456714 743.009,80.9556643 743.009,81.429 L743.009,99.676 L734.489,99.676 L734.489,65.596 Z M762.25,65.596 L770.77,65.596 L770.77,99.676 L762.25,99.676 L762.25,65.596 Z M761.043,54.023 C761.043,52.6503265 761.551828,51.4551718 762.5695,50.4375 C763.587172,49.4198282 764.876992,48.911 766.439,48.911 C768.001008,48.911 769.314495,49.3961618 770.3795,50.3665 C771.444505,51.3368382 771.977,52.5556593 771.977,54.023 C771.977,55.4903407 771.444505,56.7091618 770.3795,57.6795 C769.314495,58.6498382 768.001008,59.135 766.439,59.135 C764.876992,59.135 763.587172,58.6261718 762.5695,57.6085 C761.551828,56.5908282 761.043,55.3956735 761.043,54.023 Z" id="Fatura-Sistemleri" stroke="#F9D109" fill="#F28821"></path>
        </g>
    </g>
</svg>