<svg xmlns="http://www.w3.org/2000/svg" width="16" height="18" viewBox="0 0 16 18">
    <g fill="none" fill-rule="evenodd">
        <g fill="#757AA5">
            <g>
                <g>
                    <path d="M8.562.238l6.563 4.463c.547.373.875.992.875 1.654v8.813c0 1.105-.895 2-2 2H2c-1.105 0-2-.895-2-2V6.355c0-.662.328-1.281.875-1.654L7.438.238c.339-.23.785-.23 1.124 0zm1.105 8.36H6.333c-.552 0-1 .447-1 1v3.142c0 .552.448 1 1 1h3.334c.552 0 1-.448 1-1V9.597c0-.552-.448-1-1-1z" transform="translate(-29 -633) translate(0 608) translate(29 25)"/>
                </g>
            </g>
        </g>
    </g>
</svg>
