<?xml version="1.0" encoding="UTF-8"?>
<svg width="21px" height="21px" viewBox="0 0 21 21" version="1.1" xmlns="http://www.w3.org/2000/svg" xmlns:xlink="http://www.w3.org/1999/xlink">
    <title>Combined Shape</title>
    <g id="Symbols" stroke="none" stroke-width="1" fill="none" fill-rule="evenodd">
        <g id="home-select" fill="#F8B716">
            <path d="M11.0173838,0.144240339 L20.0347471,5.59594086 C20.6338911,5.95817021 21,6.60732904 21,7.30746019 L21,18.0299066 C21,19.1344761 20.1045695,20.0299066 19,20.0299066 L2,20.0299066 C0.8954305,20.0299066 1.3527075e-16,19.1344761 0,18.0299066 L0,7.30746138 C8.02437003e-16,6.60732959 0.36610955,5.95817026 0.965254428,5.59594112 L9.98263745,0.14423987 C10.3007442,-0.0480801253 10.6992772,-0.0480799444 11.0173838,0.144240339 Z M13,10.0299066 L8,10.0299066 C7.44771525,10.0299066 7,10.4776218 7,11.0299066 L7,11.0299066 L7,15.0299066 C7,15.5821913 7.44771525,16.0299066 8,16.0299066 L8,16.0299066 L13,16.0299066 C13.5522847,16.0299066 14,15.5821913 14,15.0299066 L14,15.0299066 L14,11.0299066 C14,10.4776218 13.5522847,10.0299066 13,10.0299066 L13,10.0299066 Z" id="Combined-Shape"></path>
        </g>
    </g>
</svg>