<?xml version="1.0" encoding="UTF-8"?>
<svg width="52px" height="52px" viewBox="0 0 52 52" version="1.1" xmlns="http://www.w3.org/2000/svg" xmlns:xlink="http://www.w3.org/1999/xlink">
    <!-- Generator: Sketch 51.3 (57544) - http://www.bohemiancoding.com/sketch -->
    <title>Updates</title>
    <desc>Created with Sketch.</desc>
    <defs></defs>
    <g id="Page-1" stroke="none" stroke-width="1" fill="none" fill-rule="evenodd">
        <g id="toEwallet-Copy-2" transform="translate(-458.000000, -1224.000000)" fill-rule="nonzero">
            <g id="Group" transform="translate(437.000000, 1225.000000)">
                <g id="Group-4">
                    <g id="Updates" transform="translate(22.000000, 0.000000)">
                        <path d="M25,-1 C39.3366597,-1 51,10.6633403 51,25 C51,39.3366597 39.3366597,51 25,51 C10.6633403,51 -1,39.3366597 -1,25 C-1,10.6633403 10.6633403,-1 25,-1 Z M25,1 C11.7679097,1 1,11.7679097 1,25 C1,38.2320903 11.7679097,49 25,49 C38.2320903,49 49,38.2320903 49,25 C49,11.7679097 38.2320903,1 25,1 Z" id="Clock" fill="#525252"></path>
                        <polygon id="Line" fill="#F28821" points="24 6 26 6 26 26 24 26"></polygon>
                        <polygon id="Line" fill="#F28821" points="24 27 24 25 41 25 41 27"></polygon>
                    </g>
                </g>
            </g>
        </g>
    </g>
</svg>