<?xml version="1.0" encoding="UTF-8"?>
<svg width="61px" height="82px" viewBox="0 0 61 82" version="1.1" xmlns="http://www.w3.org/2000/svg" xmlns:xlink="http://www.w3.org/1999/xlink">
    <title>profile copy</title>
    <g id="profile-copy" stroke="none" stroke-width="1" fill="none" fill-rule="evenodd">
        <g id="profile" fill="#F8B716" fill-rule="nonzero">
            <path d="M30.51,37.500547 C38.0945769,37.500547 44.932139,32.9311723 47.8336959,25.9235497 C50.7352527,18.9159271 49.1292486,10.8504338 43.7647125,5.48875881 C38.4001764,0.127083808 30.3338275,-1.47461732 23.3277538,1.4306775 C16.3216802,4.33597232 11.7559549,11.1759712 11.7599973,18.760547 C11.7765315,29.1074112 20.1631284,37.4895353 30.51,37.500547 Z" id="Path"></path>
            <path d="M8,81.320547 L53,81.320547 C57.418278,81.320547 61,77.738825 61,73.320547 L61,71.490547 C60.576406,54.9500274 47.0459427,41.7616359 30.5,41.7616359 C13.9540573,41.7616359 0.423594021,54.9500274 0,71.490547 L0,73.320547 C0,75.4422789 0.842854723,77.4771102 2.34314575,78.9774012 C3.84343678,80.4776922 5.87826808,81.320547 8,81.320547 Z" id="Path"></path>
        </g>
    </g>
</svg>