<svg xmlns="http://www.w3.org/2000/svg" width="15" height="20" viewBox="0 0 15 20">
    <g fill="none" fill-rule="evenodd">
        <g fill="#757AA5" fill-rule="nonzero">
            <g>
                <g>
                    <g>
                        <path d="M7.502 9.146c1.866 0 3.547-1.114 4.26-2.823.714-1.71.319-3.677-1-4.984C9.442.03 7.459-.36 5.736.349c-1.722.709-2.845 2.377-2.844 4.227.004 2.523 2.066 4.568 4.61 4.57zM1.967 19.834h11.066c1.086 0 1.967-.873 1.967-1.95v-.447c-.104-4.035-3.431-7.251-7.5-7.251S.104 13.402 0 17.436v.447c0 .518.207 1.014.576 1.38.37.366.87.571 1.391.571z" transform="translate(-330 -632) translate(0 608) translate(330 24)"/>
                    </g>
                </g>
            </g>
        </g>
    </g>
</svg>
