<?xml version="1.0" encoding="UTF-8"?>
<svg width="46px" height="52px" viewBox="0 0 46 52" version="1.1" xmlns="http://www.w3.org/2000/svg" xmlns:xlink="http://www.w3.org/1999/xlink">
    <!-- Generator: Sketch 51.3 (57544) - http://www.bohemiancoding.com/sketch -->
    <title>Document</title>
    <desc>Created with Sketch.</desc>
    <defs></defs>
    <g id="Page-1" stroke="none" stroke-width="1" fill="none" fill-rule="evenodd">
        <g id="toEwallet-Copy-2" transform="translate(-252.000000, -1224.000000)">
            <g id="Group-5" transform="translate(222.000000, 1224.000000)">
                <g id="Document" transform="translate(30.000000, 0.000000)">
                    <path d="M40.9510464,49.726343 L5.04895364,49.726343 C3.58935737,49.726343 2.40379036,48.6036157 2.40379036,47.2243802 L2.40379036,4.77561983 C2.40379036,3.3963843 3.58935737,2.27365702 5.04895364,2.27365702 L27.2297055,2.27365702 L27.2297055,11.0553719 C27.2297055,14.7498967 30.4058893,17.7541322 34.3118711,17.7541322 L43.5962096,17.7541322 L43.5962096,47.2243802 C43.5962096,48.6036157 42.4092228,49.726343 40.9510464,49.726343 L40.9510464,49.726343 Z M41.8966603,15.4818182 L34.3118711,15.4818182 C31.7320205,15.4818182 29.6320761,13.4955579 29.6320761,11.0553719 L29.6320761,3.88119835 L41.8966603,15.4818182 Z M45.9971603,16.5790289 C45.9971603,16.5669421 45.9957405,16.5535124 45.9957405,16.5414256 C45.991481,16.4930785 45.9858016,16.4447314 45.9772825,16.3977273 C45.9758627,16.3977273 45.9758627,16.3963843 45.9758627,16.3963843 C45.9659238,16.3480372 45.9517254,16.3010331 45.9346873,16.2553719 C45.9304278,16.2432851 45.9261683,16.2311983 45.9219088,16.2191116 C45.9048707,16.1761364 45.8849929,16.1331612 45.8622754,16.0928719 C45.8608556,16.090186 45.8594358,16.086157 45.8580159,16.0834711 C45.8338786,16.0404959 45.8054818,15.9988636 45.7756652,15.9599174 C45.768566,15.9491736 45.7600469,15.9384298 45.7515279,15.927686 C45.7188715,15.8887397 45.6847954,15.8497934 45.6478795,15.8135331 L29.2813754,0.333057851 C29.2430397,0.296797521 29.2018643,0.265909091 29.1592691,0.235020661 C29.1493302,0.22696281 29.1379715,0.220247934 29.1280326,0.212190083 C29.0854374,0.183987603 29.0414223,0.157128099 28.9959874,0.134297521 C28.9931477,0.132954545 28.990308,0.13161157 28.9888882,0.130268595 C28.9448731,0.108780992 28.8980184,0.0899793388 28.8525835,0.0738636364 C28.8398049,0.0698347107 28.8284462,0.0658057851 28.8156676,0.0617768595 C28.7176986,0.0295454545 28.6154701,0.0107438017 28.5118217,0.00402892562 C28.4976233,0.00402892562 28.4848447,0.00268595041 28.4720662,0.00268595041 C28.4578678,0.00134297521 28.4450892,0 28.4308908,0 L5.04895364,0 C2.26464597,0 0,2.14204545 0,4.77561983 L0,47.2243802 C0,49.8579545 2.26464597,52 5.04895364,52 L40.9510464,52 C43.735354,52 46,49.8579545 46,47.2243802 L46,16.6179752 C46,16.6045455 45.9985802,16.5924587 45.9971603,16.5790289 L45.9971603,16.5790289 Z" id="Fill-1" fill="#525252"></path>
                    <path d="M32.7774566,22 L12.2225434,22 C11.5476879,22 11,22.4477259 11,22.9994093 C11,23.5522741 11.5476879,24 12.2225434,24 L32.7774566,24 C33.4523121,24 34,23.5522741 34,22.9994093 C34,22.4477259 33.4523121,22 32.7774566,22" id="Fill-4" fill="#F28821"></path>
                    <path d="M32.7774566,28 L12.2225434,28 C11.5476879,28 11,28.4477259 11,28.9994093 C11,29.5522741 11.5476879,30 12.2225434,30 L32.7774566,30 C33.4523121,30 34,29.5522741 34,28.9994093 C34,28.4477259 33.4523121,28 32.7774566,28" id="Fill-6" fill="#F28821"></path>
                </g>
            </g>
        </g>
    </g>
</svg>