<?xml version="1.0" encoding="UTF-8"?>
<svg width="51px" height="49px" viewBox="0 0 51 49" version="1.1" xmlns="http://www.w3.org/2000/svg" xmlns:xlink="http://www.w3.org/1999/xlink">
    <!-- Generator: Sketch 51.3 (57544) - http://www.bohemiancoding.com/sketch -->
    <title>Settings</title>
    <desc>Created with Sketch.</desc>
    <defs></defs>
    <g id="Page-1" stroke="none" stroke-width="1" fill="none" fill-rule="evenodd">
        <g id="toEwallet-Copy-2" transform="translate(-658.000000, -1227.000000)">
            <g id="Group" transform="translate(437.000000, 1223.000000)">
                <g id="Settings" transform="translate(221.000000, 4.000000)">
                    <g id="Shape">
                        <path d="M49.9375,20.4166667 L43.8695625,20.4166667 C43.445625,18.8027292 42.9048125,17.0132083 42.217375,15.6555 L46.535375,11.5058125 C46.735125,11.3138958 46.8466875,11.0546042 46.8466875,10.7840833 C46.8466875,10.5135625 46.735125,10.2542708 46.535375,10.0623542 L40.52375,4.28852083 C40.1083125,3.889375 39.4368125,3.889375 39.021375,4.28852083 L34.7023125,8.43820833 C33.2891875,7.77670833 31.426625,7.25608333 29.75,6.84979167 L29.75,1.02083333 C29.75,0.457333333 29.2750625,0 28.6875,0 L22.3125,0 C21.7249375,0 21.25,0.457333333 21.25,1.02083333 L21.25,6.84979167 C19.57125,7.25710417 17.707625,7.77772917 16.2955625,8.43922917 L11.9754375,4.28954167 C11.5610625,3.89039583 10.8885,3.89039583 10.4730625,4.28954167 L4.4625,10.063375 C4.0470625,10.4615 4.0470625,11.1076875 4.4625,11.5068333 L8.782625,15.6575417 C8.09625,17.0111667 7.5533125,18.8027292 7.12725,20.4166667 L1.0625,20.4166667 C0.4749375,20.4166667 0,20.874 0,21.4375 L0,27.5625 C0,28.126 0.4749375,28.5833333 1.0625,28.5833333 L7.12725,28.5833333 C7.5533125,30.1982917 8.09625,31.9888333 8.782625,33.3424583 L4.4625,37.4941875 C4.26275,37.6850833 4.1511875,37.9453958 4.1511875,38.2159167 C4.1511875,38.4864375 4.26275,38.7457292 4.4625,38.9376458 L10.474125,44.7114792 C10.873625,45.0942917 11.579125,45.0942917 11.9765,44.7114792 L16.2945,40.5607708 C17.7044375,41.2202292 19.569125,41.741875 21.25,42.1512292 L21.25,47.9791667 C21.25,48.5426667 21.7249375,49 22.3125,49 L28.6875,49 C29.2750625,49 29.75,48.5426667 29.75,47.9791667 L29.75,42.1512292 C31.4298125,41.741875 33.2934375,41.22125 34.7023125,40.5617917 L39.0235,44.7114792 C39.4389375,45.1096042 40.1104375,45.110625 40.525875,44.7114792 L46.535375,38.9376458 C46.9508125,38.5385 46.9508125,37.8933333 46.535375,37.4941875 L42.217375,33.3424583 C42.9026875,31.9888333 43.445625,30.1982917 43.8716875,28.5833333 L49.9375,28.5833333 C50.5250625,28.5833333 51,28.126 51,27.5625 L51,21.4375 C51,20.874 50.5250625,20.4166667 49.9375,20.4166667 L49.9375,20.4166667 Z M48.875,26.5416667 L43.03975,26.5416667 C42.548875,26.5416667 42.12175,26.86425 42.0080625,27.3205625 C41.720125,28.4598125 40.95725,31.4855625 39.9999375,32.9923125 C39.7449375,33.3955417 39.80975,33.9131042 40.156125,34.2469167 L44.2839375,38.2148958 L39.7768125,42.5452708 L35.6458125,38.5793333 C35.29625,38.2455208 34.7565,38.1842708 34.34,38.4302917 C32.7706875,39.3510833 29.6225,40.0830208 28.4378125,40.3596667 C27.96075,40.4709375 27.625,40.8813125 27.625,41.3519167 L27.625,46.9583333 L23.375,46.9583333 L23.375,41.3519167 C23.375,40.8802917 23.03925,40.4709375 22.56325,40.3596667 C21.3764375,40.0840417 18.22825,39.3510833 16.657875,38.4292708 C16.2403125,38.1842708 15.6984375,38.2434792 15.3520625,38.5783125 L11.22425,42.5462917 L6.715,38.2159167 L10.846,34.2489583 C11.1934375,33.9151458 11.256125,33.3965625 11.001125,32.9943542 C10.0416875,31.4876042 9.279875,28.4618542 8.9919375,27.3226042 C8.876125,26.86425 8.4500625,26.5416667 7.9591875,26.5416667 L2.125,26.5416667 L2.125,22.4583333 L7.9591875,22.4583333 C8.4500625,22.4583333 8.876125,22.13575 8.9898125,21.6773958 C9.27775,20.5381458 10.040625,17.5123958 10.999,16.0056458 C11.2550625,15.6024167 11.1913125,15.0848542 10.843875,14.7510417 L6.715,10.7830625 L11.2231875,6.4526875 L15.353125,10.418625 C15.701625,10.7524375 16.241375,10.8136875 16.6589375,10.5686875 C18.234625,9.6438125 21.3785625,8.91697917 22.561125,8.642375 C23.03925,8.532125 23.375,8.12175 23.375,7.650125 L23.375,2.04166667 L27.625,2.04166667 L27.625,7.650125 C27.625,8.12175 27.96075,8.532125 28.4378125,8.64339583 C30.2929375,9.07316667 32.9236875,9.73977083 34.34,10.5697083 C34.7565,10.8147083 35.2973125,10.7534583 35.64475,10.4196458 L39.773625,6.45370833 L44.282875,10.7840833 L40.1550625,14.7500208 C39.807625,15.0828125 39.743875,15.6013958 39.998875,16.0036042 C40.9625625,17.5195417 41.7190625,20.5391667 42.0038125,21.676375 C42.119625,22.13575 42.54675,22.4583333 43.037625,22.4583333 L48.875,22.4583333 L48.875,26.5416667 L48.875,26.5416667 Z" fill="#525252"></path>
                        <path d="M25.5,14.2916667 C19.641375,14.2916667 14.875,18.871125 14.875,24.5 C14.875,30.128875 19.641375,34.7083333 25.5,34.7083333 C31.358625,34.7083333 36.125,30.128875 36.125,24.5 C36.125,18.871125 31.358625,14.2916667 25.5,14.2916667 L25.5,14.2916667 Z M25.5,32.6666667 C20.8133125,32.6666667 17,29.0028958 17,24.5 C17,19.9971042 20.8133125,16.3333333 25.5,16.3333333 C30.1866875,16.3333333 34,19.9971042 34,24.5 C34,29.0028958 30.1866875,32.6666667 25.5,32.6666667 L25.5,32.6666667 Z" fill="#F28821"></path>
                    </g>
                </g>
            </g>
        </g>
    </g>
</svg>