<svg xmlns="http://www.w3.org/2000/svg" viewBox="0 0 530.3 184.83"><title>Asset 1</title><g id="Layer_2" data-name="Layer 2"><g id="Layer_1-2" data-name="Layer 1"><path d="M273.62,50.82A24.83,24.83,0,0,1,278,65.49c0,5.9-1.52,10.59-4.39,14.07A23.88,23.88,0,0,1,266.36,85c4.84,1.81,8.62,4.53,11,8.47a26,26,0,0,1,3.78,14.06A27.7,27.7,0,0,1,277,122.82a27.39,27.39,0,0,1-6.81,7.56,25.57,25.57,0,0,1-10.89,4.84,63.24,63.24,0,0,1-13.46,1.36H202.68v-96H249C260.46,40.69,268.63,44.17,273.62,50.82Zm-52,6.35V78.35h23.29c4.24,0,7.56-.76,10.14-2.42S259,71.54,259,67.46c0-4.39-1.67-7.41-5.14-8.77a34.3,34.3,0,0,0-11.35-1.52Zm0,37.06v25.56h23.29c4.24,0,7.41-.6,9.68-1.66,4.24-2.12,6.35-6,6.35-11.95,0-5-2.11-8.47-6.05-10.28a22.83,22.83,0,0,0-9.52-1.67Z" style="fill:#004282"/><path d="M353.18,131.44c-.6-.91-.91-2.57-1.06-5-.15-3.18-.15-5.9-.15-8.17V85.91c0-8.62-3-14.37-9.07-17.39a45.91,45.91,0,0,0-20.73-4.69c-11.95,0-20.42,3.18-25.41,9.38a25.65,25.65,0,0,0-5,13.16h18.15A11.91,11.91,0,0,1,312,82c1.81-2.12,5-3.33,9.38-3.33,3.93,0,6.95.61,8.92,1.67,2.12,1.06,3,3.17,3,6.05,0,2.42-1.37,4.08-3.94,5.29A31.74,31.74,0,0,1,322,93.32l-6.35.76q-10.89,1.36-16.34,4.54c-6.8,3.93-10.13,10.28-10.13,18.91,0,6.65,2.12,11.94,6.35,15.57s9.53,5.45,16,5.45a27.6,27.6,0,0,0,13.61-3.48,41.11,41.11,0,0,0,8.92-7.11c.15,1.67.3,3,.46,4.24a17,17,0,0,0,1.21,4.08H355.9v-2.72A5.6,5.6,0,0,1,353.18,131.44Zm-19.66-22.69c-.15,6.2-2,10.44-5.3,12.86A18.86,18.86,0,0,1,317,125.09a10.47,10.47,0,0,1-6.5-2.12q-2.73-2-2.73-6.81a8.44,8.44,0,0,1,4.39-7.86c1.66-1.06,4.54-1.82,8.47-2.57l4.24-.76a40.8,40.8,0,0,0,5-1.21,20.47,20.47,0,0,0,3.63-1.81v6.8Z" style="fill:#004282"/><path d="M420.79,101.64c-3.63-3.48-9.23-6-16.64-7.86-11-2.42-17.54-4.09-19.36-5.14A4.93,4.93,0,0,1,382.07,84a5.47,5.47,0,0,1,2.57-4.39q2.5-1.82,8.62-1.81c4.84,0,8.32,1.21,10.44,3.78a10.73,10.73,0,0,1,1.81,4.84h18.61c-.91-8.17-4.08-14.07-9.53-17.55S401.73,63.53,393,63.53c-9.38,0-16.64,2.42-21.78,7.11a22,22,0,0,0-7.71,16.94q0,8.39,5,12.7c3.32,3,8.92,5.45,16.94,7.41,11.19,2.73,17.69,4.54,19.36,5.6a5.39,5.39,0,0,1,2.57,4.69,5.19,5.19,0,0,1-3.18,4.84,20.07,20.07,0,0,1-8.77,1.66c-6.2,0-10.44-1.21-12.86-3.63-1.36-1.36-2.42-4.23-2.57-7.26H361.2a23,23,0,0,0,8,18.15c5.3,4.69,13.62,7.11,24.81,7.11,10.89,0,19.06-2.27,24.2-6.65s7.87-10.14,7.87-17.25A17.14,17.14,0,0,0,420.79,101.64Z" style="fill:#004282"/><path d="M484,67a29.1,29.1,0,0,1,12.25,10.43,33.81,33.81,0,0,1,5.59,14.67,89.18,89.18,0,0,1,.61,14.07H450.89c.3,7.11,2.72,12.1,7.41,15a18.68,18.68,0,0,0,10.29,2.72c4.23,0,7.71-1.06,10.28-3.18,1.52-1.21,3-2.72,4.54-7h18.91c-.91,6.36-3.48,10.59-7.56,15-6.36,7-15.28,10.28-26.63,10.28a38.38,38.38,0,0,1-24.95-8.77c-7.26-5.75-10.74-15.28-10.74-28.44,0-12.25,3.17-21.62,9.83-28.28,6.5-6.5,15-9.83,25.41-9.83A39,39,0,0,1,484,67ZM456.34,83a20.23,20.23,0,0,0-5,10.89h31.92c-.3-4.84-2-8.62-5-11.19a16.35,16.35,0,0,0-11-3.78Q460.2,79,456.34,83Z" style="fill:#004282"/><path d="M530.3,136.43H511.85V40.54H530.3Z" style="fill:#004282"/><rect x="86.22" y="86.22" width="4.39" height="4.39" style="fill:none"/><path d="M40.54,154a22.84,22.84,0,0,0,45.68,0V136.43H40.54Z" style="fill:#00ae4d"/><path d="M86.22,22.84a22.84,22.84,0,1,0-45.68,0V40.39H86.22Z" style="fill:#00ae4d"/><path d="M86.22,40.54H22.84a22.84,22.84,0,0,0,0,45.68H86.22Z" style="fill:#006b3d"/><path d="M40.54,90.6H22.84a22.92,22.92,0,0,0,0,45.83H86.22V90.6Z" style="fill:#006b3d"/><path d="M136.43,136.43H90.6V154a22.84,22.84,0,0,0,45.68,0V136.43Z" style="fill:#00ae4d"/><path d="M136.43,22.84a22.92,22.92,0,0,0-45.83,0V40.39h45.83Z" style="fill:#00ae4d"/><path d="M154,90.6H90.6v45.83H154a22.92,22.92,0,0,0,0-45.83Z" style="fill:#004282"/><path d="M136.43,86.22H154a22.84,22.84,0,0,0,0-45.68H90.6V86.22Z" style="fill:#004282"/><path d="M202.38,149.29h3.78v11.19h13.92V149.29h3.78v27.22h-3.78v-12.7H206.16v12.7h-3.78Z" style="fill:#006b3d"/><path d="M278,158.67c1.81,1.66,2.57,4.23,2.57,7.56a12.75,12.75,0,0,1-2.27,7.86,8.69,8.69,0,0,1-7.26,3.18,8.38,8.38,0,0,1-6.51-2.72,10.72,10.72,0,0,1-2.42-7.41,12.12,12.12,0,0,1,2.58-8,8.48,8.48,0,0,1,6.8-3A9.27,9.27,0,0,1,278,158.67Zm-2.12,13.16a13.2,13.2,0,0,0,1.21-5.6,10,10,0,0,0-.91-4.54,5,5,0,0,0-4.84-2.72,4.77,4.77,0,0,0-4.38,2.27,10.92,10.92,0,0,0-1.37,5.59,9.48,9.48,0,0,0,1.37,5.3,5,5,0,0,0,4.38,2.12A4.36,4.36,0,0,0,275.89,171.83Z" style="fill:#006b3d"/><path d="M318.85,149.29h3.32v27.22h-3.32Z" style="fill:#006b3d"/><path d="M372.39,157.31a7.94,7.94,0,0,1,2,2v-10h3.17v27.22h-3v-2.72a7.8,7.8,0,0,1-2.73,2.72,7,7,0,0,1-3.63.76,7.46,7.46,0,0,1-5.74-2.72,10.67,10.67,0,0,1-2.42-7.41,12.74,12.74,0,0,1,2.27-7.57,7.37,7.37,0,0,1,6.35-3.17A7.72,7.72,0,0,1,372.39,157.31Zm-7.56,14.82a4.81,4.81,0,0,0,4.38,2.12,4.34,4.34,0,0,0,3.78-2,10,10,0,0,0,1.52-5.75c0-2.57-.46-4.38-1.52-5.59a4.77,4.77,0,0,0-3.78-1.82,4.88,4.88,0,0,0-4.08,2c-1.06,1.36-1.51,3.17-1.51,5.74A8.38,8.38,0,0,0,364.83,172.13Z" style="fill:#006b3d"/><path d="M416.56,149.29h3.32v3.78h-3.32Zm0,7.56h3.32v19.82h-3.32Z" style="fill:#006b3d"/><path d="M458.91,156.7h3.17v2.87a7.47,7.47,0,0,1,3-2.42,9,9,0,0,1,3.48-.75c2.87,0,4.69.91,5.75,2.87a9.82,9.82,0,0,1,.75,4.69v12.71h-3.33V164.11a5.42,5.42,0,0,0-.6-2.87,3.26,3.26,0,0,0-3.18-1.82,6.38,6.38,0,0,0-2,.31,4.93,4.93,0,0,0-2.42,1.66,4.13,4.13,0,0,0-1.06,2,14.38,14.38,0,0,0-.3,3v10.44h-3.33V156.7Z" style="fill:#006b3d"/><path d="M525.31,157.46a19.87,19.87,0,0,1,2,1.81v-2.42h3v18a12.42,12.42,0,0,1-1.06,5.9c-1.36,2.72-3.93,4.08-7.86,4.08a9.48,9.48,0,0,1-5.3-1.36,5.3,5.3,0,0,1-2.42-4.54H517a4.42,4.42,0,0,0,.91,2.12,4.77,4.77,0,0,0,3.48,1.06q3.86,0,5-2.72a13.64,13.64,0,0,0,.6-5.75,5.7,5.7,0,0,1-2.42,2.27,8.39,8.39,0,0,1-3.78.76,8.05,8.05,0,0,1-5.6-2.27c-1.66-1.52-2.42-4.09-2.42-7.57,0-3.32.76-5.89,2.42-7.71a7.94,7.94,0,0,1,5.9-2.87A9.21,9.21,0,0,1,525.31,157.46Zm.3,3.63A5,5,0,0,0,517,162.6a13.26,13.26,0,0,0-.76,4.69,8.37,8.37,0,0,0,1.36,5.14,4.32,4.32,0,0,0,3.63,1.82,5,5,0,0,0,5-3.18,9.69,9.69,0,0,0,.75-4.24C527.12,164.11,526.67,162.3,525.61,161.09Z" style="fill:#006b3d"/></g></g></svg>