<svg xmlns="http://www.w3.org/2000/svg" width="86" height="112" viewBox="0 0 86 112">
    <g fill="none" fill-rule="evenodd">
        <g fill="#FFF" fill-rule="nonzero">
            <g>
                <g>
                    <path d="M73.191 0H29.277c-7.071.008-12.8 5.758-12.809 12.852v40.67L5.05 73.35C1.72 79.11.328 85.793 1.08 92.409l1.976 17.957 3.641-.404-1.994-17.957c-.653-5.839.579-11.733 3.513-16.818l8.252-14.321v23.813l-1.025 1.8 3.166 1.836 9.149-15.9c.482-.847 1.28-1.465 2.219-1.716.938-.252 1.938-.117 2.776.375.848.474 1.464 1.278 1.702 2.222.258.941.126 1.948-.366 2.79l-6.404 11.127c-.273.49-.313 1.075-.11 1.597l2.36 5.894c.771 1.959 1.169 4.045 1.171 6.151v2.387c.005 2.134-.405 4.248-1.207 6.224l3.385 1.396c.091-.239.165-.46.238-.698h39.67c7.07-.008 12.8-5.758 12.808-12.853V12.852C85.992 5.758 80.262.008 73.191 0zm9.15 97.311c0 5.07-4.097 9.18-9.15 9.18h-38.7c.175-1.074.267-2.16.275-3.249v-2.387c-.003-1.818-.25-3.627-.732-5.38H82.34v1.836zm0-5.508H32.716l-1.41-3.525 5.966-10.355c1.307-2.273 1.307-5.073-.001-7.346-1.308-2.273-3.725-3.672-6.34-3.672-2.616 0-5.032 1.4-6.34 3.673l-4.464 7.749V18.36H82.34v73.442zm0-77.114H20.127v-1.837c0-5.07 4.096-9.18 9.149-9.18H73.19c5.053 0 9.15 4.11 9.15 9.18v1.837z" transform="translate(-138 -278) translate(138 278)"/>
                    <path d="M38.426 7.344H42.086V11.016H38.426zM45.745 7.344H56.724V11.016H45.745zM47.574 99.148H54.893V102.82H47.574zM23.787 23.869v7.344h3.66v-5.508h5.49v-3.672h-7.32c-1.01 0-1.83.822-1.83 1.836zM23.787 34.885H27.447V38.556999999999995H23.787zM51.234 40.393c5.05.007 9.143 4.113 9.149 9.18v7.345h3.66v-7.344c0-7.098-5.735-12.853-12.809-12.853-7.074 0-12.808 5.755-12.808 12.853h3.66c.005-5.068 4.098-9.174 9.148-9.18z" transform="translate(-138 -278) translate(138 278)"/>
                    <path d="M51.234 62.426c-1.01 0-1.83-.822-1.83-1.836h-3.66c0 3.042 2.458 5.508 5.49 5.508s5.49-2.466 5.49-5.508V49.574c0-3.042-2.458-5.508-5.49-5.508s-5.49 2.466-5.49 5.508v7.344h3.66v-7.344c0-1.014.82-1.836 1.83-1.836 1.01 0 1.83.822 1.83 1.836V60.59c0 1.014-.82 1.836-1.83 1.836z" transform="translate(-138 -278) translate(138 278)"/>
                    <path d="M51.234 73.443c7.07-.008 12.8-5.758 12.809-12.853h-3.66c0 5.07-4.096 9.18-9.149 9.18-5.053 0-9.149-4.11-9.149-9.18v-7.344h-3.66v7.344c.009 7.095 5.738 12.845 12.809 12.853z" transform="translate(-138 -278) translate(138 278)"/>
                </g>
            </g>
        </g>
    </g>
</svg>
