<svg xmlns="http://www.w3.org/2000/svg" xmlns:xlink="http://www.w3.org/1999/xlink" width="48" height="48" viewBox="0 0 48 48">
    <defs>
        <rect id="isc8g2fksa" width="48" height="48" x="0" y="0" rx="10"/>
    </defs>
    <g fill="none" fill-rule="evenodd">
        <g>
            <g>
                <g transform="translate(-32 -296) translate(16 280) translate(16 16)">
                    <use fill="#EDF1F7" xlink:href="#isc8g2fksa"/>
                    <path fill="#595D80" fill-rule="nonzero" d="M20.174 12s4.253 2.652 0 8.101c-3.844 4.924-6.138 10.152-1.895 14.056 1.23 1.131 2.687 1.707 4.176 1.843-2.408-.62-4.202-2.74-2.11-6.534 1.285-2.333 4.488-5.08 3.421-8.316 0 0 2.884 3.207.92 8.093-.892 2.22 3.039 2.462 1.974.039-.644-1.464 3.04 2.91 1.056 5.437 1.871-1.142 2.885-3.022 3.628-5.029C33.452 24 30.678 14.822 20.174 12z"/>
                </g>
            </g>
        </g>
    </g>
</svg>
