<svg xmlns="http://www.w3.org/2000/svg" xmlns:xlink="http://www.w3.org/1999/xlink" viewBox="0 0 769.46 777.98"><defs><clipPath id="clip-path" transform="translate(0 0)"><rect x="40.9" width="728.56" height="728.56" style="fill:none"/></clipPath><clipPath id="clip-path-2" transform="translate(0 0)"><rect x="379.91" y="315.84" width="37.96" height="73.42" style="fill:none"/></clipPath><clipPath id="clip-path-3" transform="translate(0 0)"><rect x="71.38" y="152.35" width="302.22" height="469.99" style="fill:none"/></clipPath><clipPath id="clip-path-4" transform="translate(0 0)"><rect x="87.5" y="152.35" width="256.13" height="453.83" style="fill:none"/></clipPath><clipPath id="clip-path-5" transform="translate(0 0)"><rect x="71.38" y="224.59" width="302.22" height="397.74" style="fill:none"/></clipPath><clipPath id="clip-path-6" transform="translate(0 0)"><rect x="255.72" y="332.72" width="45.6" height="88.23" style="fill:none"/></clipPath><clipPath id="clip-path-7" transform="translate(0 0)"><rect x="301.32" y="346.61" width="56.59" height="74.35" style="fill:none"/></clipPath><clipPath id="clip-path-8" transform="translate(0 0)"><rect x="255.72" y="262.45" width="55.44" height="70.27" style="fill:none"/></clipPath><clipPath id="clip-path-9" transform="translate(0 0)"><rect x="216.13" y="457.16" width="72.27" height="78.74" style="fill:none"/></clipPath><clipPath id="clip-path-10" transform="translate(0 0)"><rect x="74.65" y="482" width="63.92" height="64.64" style="fill:none"/></clipPath><clipPath id="clip-path-11" transform="translate(0 0)"><rect x="185.71" y="342.03" width="11.96" height="9.74" style="fill:none"/></clipPath><clipPath id="clip-path-12" transform="translate(0 0)"><rect x="136.59" y="376.24" width="67.46" height="74.42" style="fill:none"/></clipPath><clipPath id="clip-path-13" transform="translate(0 0)"><path d="M164.57,592.5a226.68,226.68,0,0,0-20.42,14.33H343.63V486.9C297,513.7,212.57,562.54,164.57,592.5" style="fill:none"/></clipPath><linearGradient id="linear-gradient" x1="-4444.71" y1="-1108.03" x2="-4443.22" y2="-1108.03" gradientTransform="translate(89530.3 -357554.45) rotate(-90) scale(80.58)" gradientUnits="userSpaceOnUse"><stop offset="0" stop-color="#d6e5f6"/><stop offset="0.54" stop-color="#e9eff9"/><stop offset="1" stop-color="#f4f5fb"/><stop offset="1" stop-color="#f4f5fb"/></linearGradient><clipPath id="clip-path-14" transform="translate(0 0)"><rect x="268.77" y="135.38" width="4.5" height="4.37" style="fill:none"/></clipPath><clipPath id="clip-path-15" transform="translate(0 0)"><rect x="268.31" y="138.04" width="2" height="1.94" style="fill:none"/></clipPath><clipPath id="clip-path-16" transform="translate(0 0)"><rect x="265.71" y="142.77" width="1" height="0.97" style="fill:none"/></clipPath><clipPath id="clip-path-17" transform="translate(0 0)"><rect y="617.15" width="65.5" height="32.93" style="fill:none"/></clipPath><clipPath id="clip-path-18" transform="translate(0 0)"><path d="M15.15,619a19.33,19.33,0,0,0-6.51,4.91H6.47v5.56c0,3.8,2.9,7.59,8.68,10.48,11.57,5.79,30.34,5.79,41.91,0,5.78-2.89,8.68-6.68,8.68-10.48v-5.56H63.57A19.33,19.33,0,0,0,57.06,619c-5.79-2.89-13.37-4.34-21-4.34s-15.16,1.45-21,4.34" style="fill:none"/></clipPath><clipPath id="clip-path-19" transform="translate(0 0)"><path d="M15.15,611.86a19.33,19.33,0,0,0-6.51,4.91H6.47v5.56c0,3.79,2.9,7.58,8.68,10.48,11.57,5.78,30.34,5.78,41.91,0,5.78-2.9,8.68-6.69,8.68-10.48v-5.56H63.57a19.33,19.33,0,0,0-6.51-4.91c-5.79-2.9-13.37-4.34-21-4.34s-15.16,1.44-21,4.34" style="fill:none"/></clipPath><clipPath id="clip-path-20" transform="translate(0 0)"><path d="M15.15,604.71a19.46,19.46,0,0,0-6.51,4.91H6.47v5.57c0,3.79,2.9,7.58,8.68,10.47,11.57,5.79,30.34,5.79,41.91,0,5.78-2.89,8.68-6.68,8.68-10.47v-5.57H63.57a19.46,19.46,0,0,0-6.51-4.91c-5.79-2.89-13.37-4.34-21-4.34s-15.16,1.45-21,4.34" style="fill:none"/></clipPath><clipPath id="clip-path-21" transform="translate(0 0)"><rect x="25.02" y="728.23" width="79.37" height="39.91" style="fill:none"/></clipPath><clipPath id="clip-path-22" transform="translate(0 0)"><path d="M43.39,730.46a23.63,23.63,0,0,0-7.9,5.95H32.87v6.75c0,4.59,3.51,9.19,10.52,12.69,14,7,36.75,7,50.78,0,7-3.5,10.52-8.1,10.52-12.69v-6.75h-2.63a23.68,23.68,0,0,0-7.89-5.95c-7-3.5-16.2-5.26-25.39-5.26S50.4,727,43.39,730.46" style="fill:none"/></clipPath><clipPath id="clip-path-23" transform="translate(0 0)"><path d="M43.39,721.81a23.37,23.37,0,0,0-7.9,6H32.87v6.74c0,4.6,3.51,9.19,10.52,12.7,14,7,36.75,7,50.78,0,7-3.51,10.52-8.1,10.52-12.7v-6.74h-2.63a23.42,23.42,0,0,0-7.89-6c-7-3.51-16.2-5.26-25.39-5.26s-18.38,1.75-25.39,5.26" style="fill:none"/></clipPath><clipPath id="clip-path-24" transform="translate(0 0)"><path d="M43.39,713.15a23.37,23.37,0,0,0-7.9,6H32.87v6.74c0,4.6,3.51,9.19,10.52,12.7,14,7,36.75,7,50.78,0,7-3.51,10.52-8.1,10.52-12.7V719.1h-2.63a23.42,23.42,0,0,0-7.89-6c-7-3.51-16.2-5.26-25.39-5.26s-18.38,1.75-25.39,5.26" style="fill:none"/></clipPath><clipPath id="clip-path-25" transform="translate(0 0)"><path d="M43.39,704.35a23.37,23.37,0,0,0-7.9,5.95H32.87V717c0,4.6,3.51,9.19,10.52,12.7,14,7,36.75,7,50.78,0,7-3.51,10.52-8.1,10.52-12.7V710.3h-2.63a23.42,23.42,0,0,0-7.89-5.95c-7-3.51-16.2-5.26-25.39-5.26s-18.38,1.75-25.39,5.26" style="fill:none"/></clipPath><clipPath id="clip-path-26" transform="translate(0 0)"><path d="M43.39,695.69a23.63,23.63,0,0,0-7.9,5.95H32.87v6.75c0,4.59,3.51,9.19,10.52,12.69,14,7,36.75,7,50.78,0,7-3.5,10.52-8.1,10.52-12.69v-6.75h-2.63a23.68,23.68,0,0,0-7.89-5.95c-7-3.5-16.2-5.26-25.39-5.26s-18.38,1.76-25.39,5.26" style="fill:none"/></clipPath><clipPath id="clip-path-27" transform="translate(0 0)"><path d="M43.39,687a23.51,23.51,0,0,0-7.9,6H32.87v6.74c0,4.59,3.51,9.19,10.52,12.7,14,7,36.75,7,50.78,0,7-3.51,10.52-8.11,10.52-12.7V693h-2.63a23.56,23.56,0,0,0-7.89-6c-7-3.5-16.2-5.25-25.39-5.25S50.4,683.53,43.39,687" style="fill:none"/></clipPath><clipPath id="clip-path-28" transform="translate(0 0)"><rect x="112.36" y="646.02" width="197.52" height="102.55" style="fill:none"/></clipPath><clipPath id="clip-path-29" transform="translate(0 0)"><rect x="128.25" y="641.08" width="99.84" height="49.97" style="fill:none"/></clipPath><clipPath id="clip-path-30" transform="translate(0 0)"><rect x="251.05" y="730.04" width="65.5" height="32.93" style="fill:none"/></clipPath><clipPath id="clip-path-31" transform="translate(0 0)"><path d="M266.2,731.89a19.48,19.48,0,0,0-6.52,4.91h-2.16v5.56c0,3.8,2.9,7.59,8.68,10.48,11.57,5.79,30.33,5.79,41.9,0,5.79-2.89,8.68-6.68,8.68-10.48V736.8h-2.16a19.38,19.38,0,0,0-6.52-4.91c-5.78-2.89-13.36-4.34-21-4.34S272,729,266.2,731.89" style="fill:none"/></clipPath><clipPath id="clip-path-32" transform="translate(0 0)"><path d="M266.2,724.75a19.35,19.35,0,0,0-6.52,4.91h-2.16v5.56c0,3.79,2.9,7.58,8.68,10.48,11.57,5.78,30.33,5.78,41.9,0,5.79-2.9,8.68-6.69,8.68-10.48v-5.56h-2.16a19.25,19.25,0,0,0-6.52-4.91c-5.78-2.9-13.36-4.34-21-4.34s-15.16,1.44-20.95,4.34" style="fill:none"/></clipPath></defs><title>Asset 5</title><g id="Layer_2" data-name="Layer 2"><g id="Layer_1-2" data-name="Layer 1"><g style="opacity:0.149994000792503"><g style="clip-path:url(#clip-path)"><path d="M40.9,364.28C40.9,565.47,204,728.56,405.18,728.56S769.46,565.47,769.46,364.28,606.37,0,405.18,0,40.9,163.09,40.9,364.28" transform="translate(0 0)" style="fill:#3f7036;opacity:0.7000000000000001"/></g></g><path d="M487.82,373.39l93.79,53.91-13.05,1.34s-40.94-4.28-66-27.62" transform="translate(0 0)" style="fill:#243060"/><polyline points="490.85 396.83 430.41 429.97 468.89 384.77 487.82 377.15" style="fill:#243060"/><path d="M368.45,406.47l56.67-17.55,58.93-19.36,57.39,58.24H531.16s-35.93-12.93-49.86-39.49L430.41,430s-24.76,12.75-39.07,5.23c-20-10.53-22.89-28.73-22.89-28.73" transform="translate(0 0)" style="fill:#203c83"/><path d="M368.45,406.47l50-15.49c1.5-.46-45.82,26.19-45.88,26.22a36,36,0,0,1-4.12-10.73" transform="translate(0 0)" style="fill:#233467"/><polygon points="531.16 427.8 531.16 437.56 565.95 437.56 541.43 427.8 531.16 427.8" style="fill:#09111d"/><polygon points="567.49 428.44 570.96 437.56 603.47 425.18 577.09 424.78 567.49 428.44" style="fill:#09111d"/><path d="M402.74,313.61s-7.06,11.54-4.87,30.65c0,0,52.45.17,85.22-55.64l-8.79-7.76S437,318.41,402.74,313.61" transform="translate(0 0)" style="fill:#3f7036"/><polygon points="406.69 314.04 427.22 337.75 414.65 341.76 406.69 314.04" style="fill:#6eb75e"/><path d="M479,278.89s.4-5.12,1.17-6.78c0,0,2.66-8.94,3.17-10.3,0,0,2.16-.4,2.14,2.26a28.86,28.86,0,0,1-.91,5.94,23.31,23.31,0,0,0,4.08-5.2c1.13-2.36,3.49-6.95,5-7.56s1.53,1.05,1.53,1.05-3.63,7.06-4.4,8.58c-.67,1.33.06,1.24.06,1.24s4.83-7.78,5.89-9.06,2-1.45,2.71-.21c0,0-3.55,6.15-4.07,7.08s-2.69,3.63-1.69,4.2c0,0,4.55-6.51,5.4-7.57s1.9-1.07,2.19.28l-5.81,9.27s-.39.67.11.75,4.13-2.93,4.52-3.33,1.74-1.55,2.46-.39c0,0,.19.44-1.05,1.54s-6.28,6.84-6.28,6.84a25.41,25.41,0,0,1-8.78,6.06c-5.41,2.17-7,.67-4,1.66l-1.4-2.69Z" transform="translate(0 0)" style="fill:#facba9"/><polygon points="487.4 283.9 478.48 276.38 474.3 280.86 483.09 288.62 487.4 283.9" style="fill:#6eb75e"/><path d="M409.63,269.72a73.15,73.15,0,0,1,9,26.31s-5.32,4.48-16.52,4.48V315l-13.32-7.79V297.15l3.12-.56-2.11-4.22a7.23,7.23,0,0,1-6-4.91c-1.54-4.58,3.72-3.47,5-2.9l1.84,2.9s-.49-6.54-4.44-8.22l1.37-6.44s10.07,2.24,22.11-3.08" transform="translate(0 0)" style="fill:#facba9"/><path d="M391.88,296.59l-3.13.56v3.37a7,7,0,0,1-3.27-3.93S370,293,373.71,274.47c0,0-2.91-11.94,6-17s22.5-.75,30.91-6.76c0,0,9.39,4.51,4,13.27l3.94.25S411.81,274,401,272.46l3.25,3.14a24.73,24.73,0,0,1-16.76-2.8l-1.36,6.44s4.18,1.11,4.45,8.22l-1.85-2.9s-3-1.57-4.56.59,1.56,6.3,5.56,7.22Z" transform="translate(0 0)" style="fill:#1a1b37"/><polygon points="406.69 277.3 406.69 285.67 410.63 285.67 406.69 277.3" style="fill:#f08c7f"/><path d="M414.65,288a7.53,7.53,0,0,1-14.85,0Z" transform="translate(0 0)" style="fill:#fff"/><path d="M408.87,322.4l1.65-4.38a2.38,2.38,0,0,0-1.39-3.06l-4.37-1.64-2.49,6.59Z" transform="translate(0 0)" style="fill:#263167"/><path d="M408.64,321.4s15.1,25.8,8.2,51.75a301.44,301.44,0,0,1-14.25-45.71" transform="translate(0 0)" style="fill:#263167"/><path d="M368.45,406.47l50-15.49-9.81-69.58S404.18,306,392,307.27c-11.08,1.14-21.39,16.39-22.68,34.47-1.42,20.12-.83,64.73-.83,64.73" transform="translate(0 0)" style="fill:#6eb75e"/><path d="M386.53,309,387.7,302s11.39,1,17.48,8.85l-.37,3.05s-10.33-3.69-18.28-5" transform="translate(0 0)" style="fill:#6eb75e"/><g style="opacity:0.449997007846832"><g style="clip-path:url(#clip-path-2)"><path d="M417.87,386.86c-17.76,3.41-28.73,2.19-28.73,2.19s-8.69-42.57-9.16-52.92,1.55-20.74,12.59-20.27c11.34.48,10.81,16.5,10.81,16.5L402.72,369l12.47-1.16Z" transform="translate(0 0)" style="fill:#3f7036"/></g></g><path d="M406.13,331.55s-.89-16.1-12.74-15.46S380.52,327.46,382.13,338c1.58,10.29,14.67,50.26,14.67,50.26s30.93-1.44,69.35-26.93l-2.06-6.82-55.43,12.73Z" transform="translate(0 0)" style="fill:#3f7036"/><path d="M468.46,353.78l12.28-4.24,11.32,2.12,4.25,12.5s-2.75,1.47-5.46-5.88h-3s-4.95,3.52-9.31,3.29a64.51,64.51,0,0,0-8.64.18Z" transform="translate(0 0)" style="fill:#facba9"/><rect x="463.31" y="354.24" width="5.9" height="8.09" transform="translate(-55.35 86.83) rotate(-10.05)" style="fill:#6eb75e"/><path d="M519.2,330.74a4,4,0,0,0-1.66,2.15l-11.8,36.85,2.9.64,12.76-39.87a2.59,2.59,0,0,0-2.2.23" transform="translate(0 0)" style="fill:#203c83"/><rect x="460.31" y="367.05" width="48.21" height="3.32" style="fill:#203c83"/><path d="M110.87,649.94H320.26a41.32,41.32,0,0,0,41.32-41.33V156.72a41.33,41.33,0,0,0-41.32-41.33H110.87a41.34,41.34,0,0,0-41.33,41.33V608.61a41.33,41.33,0,0,0,41.33,41.33" transform="translate(0 0)" style="fill:#3f7036"/><path d="M106.42,123H324.71a36.91,36.91,0,0,1,36.87,36.88v453.2a36.91,36.91,0,0,1-36.87,36.88H106.42a36.92,36.92,0,0,1-36.88-36.88V159.86A36.92,36.92,0,0,1,106.42,123" transform="translate(0 0)" style="fill:#6eb75e"/><path d="M108.18,644.84H323a33.54,33.54,0,0,0,33.54-33.54V161.62A33.55,33.55,0,0,0,323,128.07H108.18a33.55,33.55,0,0,0-33.54,33.55V611.3a33.54,33.54,0,0,0,33.54,33.54" transform="translate(0 0)" style="fill:#fff"/><rect x="87.5" y="151.71" width="256.13" height="455.12" style="fill:#0666a8"/><g style="opacity:0.479995995759964"><g style="clip-path:url(#clip-path-3)"><g style="clip-path:url(#clip-path-4)"><g style="opacity:0.440001994371414"><g style="clip-path:url(#clip-path-5)"><g style="opacity:0.270004004240036"><g style="clip-path:url(#clip-path-6)"><polygon points="279.7 332.72 255.72 363.77 301.32 420.95 279.7 332.72" style="fill:#6fc6d9"/></g></g><g style="opacity:0.270004004240036"><g style="clip-path:url(#clip-path-7)"><polygon points="354.83 353.13 330.89 346.61 301.32 420.95 357.91 415.47 354.83 353.13" style="fill:#6fc6d9"/></g></g><g style="opacity:0.270004004240036"><g style="clip-path:url(#clip-path-8)"><polygon points="311.17 262.45 268.25 288.92 255.72 308.8 279.7 332.72 308.7 317.98 311.17 262.45" style="fill:#6fc6d9"/></g></g><g style="opacity:0.270004004240036"><g style="clip-path:url(#clip-path-9)"><polygon points="243.03 457.16 216.13 499.9 250.12 535.9 288.4 505.83 243.03 457.16" style="fill:#6fc6d9"/></g></g><g style="opacity:0.270004004240036"><g style="clip-path:url(#clip-path-10)"><polygon points="138.58 482 74.65 546.64 82.38 495.51 138.58 482" style="fill:#6fc6d9"/></g></g><g style="opacity:0.270004004240036"><g style="clip-path:url(#clip-path-11)"><polygon points="190.13 351.77 185.71 343.39 197.67 342.03 190.13 351.77" style="fill:#6fc6d9"/></g></g><g style="opacity:0.270004004240036"><g style="clip-path:url(#clip-path-12)"><polygon points="169.63 450.65 204.05 415.48 171.88 376.24 136.59 420.95 169.63 450.65" style="fill:#6fc6d9"/></g></g><polyline points="139.14 622.22 243.03 457.16 368.95 458.23 362.22 414.66 301.32 420.95 201.31 372.98 368.95 286.88 373.48 358.17 279.7 332.72 255.72 363.77 78.23 542.9 261.09 547.52 78.23 353.85 144.87 307.13 125.22 246.31 220.06 313.1 78.23 496.35 243.03 457.16" style="fill:none;stroke:#6fc6d9;stroke-linecap:round;stroke-linejoin:round;stroke-width:0.162000000476837px"/><polyline points="301.32 519.69 243.03 457.16 301.32 420.95 255.72 363.77 201.31 372.98 172.73 318.8 255.72 308.8 239.14 262.94 327.86 226.15" style="fill:none;stroke:#6fc6d9;stroke-linecap:round;stroke-linejoin:round;stroke-width:0.162000000476837px"/><polyline points="311.67 251.07 308.7 317.83 330.89 346.61 301.32 420.95 279.71 332.72 255.72 308.8 276.73 274.9 275.89 241.18 211.33 224.71 127.1 227.68 239.14 262.94 220.06 313.1 78.24 279.42 71.5 324.71 171.88 376.24 78.24 416.56 187.47 547.52 82.11 606.18" style="fill:none;stroke:#6fc6d9;stroke-linecap:round;stroke-linejoin:round;stroke-width:0.162000000476837px"/><polyline points="335.1 515.56 295.39 457.16 272.44 439.31 204.05 415.48 171.88 376.24 144.86 307.13 172.73 318.8 279.7 332.72 73.79 356.1" style="fill:none;stroke:#6fc6d9;stroke-linecap:round;stroke-linejoin:round;stroke-width:0.162000000476837px"/></g></g></g></g></g><polygon points="343.63 465.62 149.04 602.27 268.77 570.49 343.63 509.22 343.63 465.62" style="fill:#6eb75e"/><g style="clip-path:url(#clip-path-13)"><rect x="144.15" y="486.9" width="199.48" height="119.93" style="fill:url(#linear-gradient)"/></g><path d="M190.08,145.22h51a5.56,5.56,0,0,0,0-11.12h-51a5.56,5.56,0,0,0,0,11.12" transform="translate(0 0)" style="fill:#3f7036"/><path d="M237.17,137.21a1.45,1.45,0,1,0,1.45-1.45,1.45,1.45,0,0,0-1.45,1.45" transform="translate(0 0)" style="fill:#fff"/><path d="M237.17,142.11a1.45,1.45,0,1,0,1.45-1.45,1.45,1.45,0,0,0-1.45,1.45" transform="translate(0 0)" style="fill:#fff"/><path d="M230.58,137.21a1.46,1.46,0,1,0,1.45-1.45,1.45,1.45,0,0,0-1.45,1.45" transform="translate(0 0)" style="fill:#fff"/><path d="M230.58,142.11a1.46,1.46,0,1,0,1.45-1.45,1.45,1.45,0,0,0-1.45,1.45" transform="translate(0 0)" style="fill:#fff"/><path d="M224,137.21a1.45,1.45,0,1,0,1.45-1.45,1.45,1.45,0,0,0-1.45,1.45" transform="translate(0 0)" style="fill:#fff"/><path d="M224,142.11a1.45,1.45,0,1,0,1.45-1.45,1.45,1.45,0,0,0-1.45,1.45" transform="translate(0 0)" style="fill:#fff"/><path d="M217.41,137.21a1.45,1.45,0,1,0,1.45-1.45,1.45,1.45,0,0,0-1.45,1.45" transform="translate(0 0)" style="fill:#fff"/><path d="M217.41,142.11a1.45,1.45,0,1,0,1.45-1.45,1.45,1.45,0,0,0-1.45,1.45" transform="translate(0 0)" style="fill:#fff"/><path d="M210.82,137.21a1.45,1.45,0,1,0,1.45-1.45,1.45,1.45,0,0,0-1.45,1.45" transform="translate(0 0)" style="fill:#fff"/><path d="M210.82,142.11a1.45,1.45,0,1,0,1.45-1.45,1.45,1.45,0,0,0-1.45,1.45" transform="translate(0 0)" style="fill:#fff"/><path d="M204.23,137.21a1.45,1.45,0,1,0,1.45-1.45,1.45,1.45,0,0,0-1.45,1.45" transform="translate(0 0)" style="fill:#fff"/><path d="M204.23,142.11a1.45,1.45,0,1,0,1.45-1.45,1.45,1.45,0,0,0-1.45,1.45" transform="translate(0 0)" style="fill:#fff"/><path d="M197.64,137.21a1.45,1.45,0,1,0,1.45-1.45,1.45,1.45,0,0,0-1.45,1.45" transform="translate(0 0)" style="fill:#fff"/><path d="M197.64,142.11a1.45,1.45,0,1,0,1.45-1.45,1.45,1.45,0,0,0-1.45,1.45" transform="translate(0 0)" style="fill:#fff"/><path d="M191.05,137.21a1.46,1.46,0,1,0,1.46-1.45,1.45,1.45,0,0,0-1.46,1.45" transform="translate(0 0)" style="fill:#fff"/><path d="M191.05,142.11a1.46,1.46,0,1,0,1.46-1.45,1.45,1.45,0,0,0-1.46,1.45" transform="translate(0 0)" style="fill:#fff"/><path d="M261,139.42a7.82,7.82,0,1,0,7.81-7.57,7.7,7.7,0,0,0-7.81,7.57" transform="translate(0 0)" style="fill:#3f7036"/><path d="M261.51,139.42a7.27,7.27,0,1,0,7.26-7,7.15,7.15,0,0,0-7.26,7" transform="translate(0 0)" style="fill:#fff"/><path d="M262.39,139.42a6.39,6.39,0,1,0,6.38-6.19,6.3,6.3,0,0,0-6.38,6.19" transform="translate(0 0)" style="fill:#222c58"/><path d="M265.71,139.42a3.06,3.06,0,1,0,3.06-3,3,3,0,0,0-3.06,3" transform="translate(0 0)" style="fill:#0d0f20"/><g style="opacity:0.300002992153168"><g style="clip-path:url(#clip-path-14)"><path d="M268.77,137.56a2.25,2.25,0,1,0,2.25-2.18,2.21,2.21,0,0,0-2.25,2.18" transform="translate(0 0)" style="fill:#fff"/></g></g><g style="opacity:0.300002992153168"><g style="clip-path:url(#clip-path-15)"><path d="M268.31,139a1,1,0,1,0,1-1,1,1,0,0,0-1,1" transform="translate(0 0)" style="fill:#fff"/></g></g><g style="opacity:0.300002992153168"><g style="clip-path:url(#clip-path-16)"><path d="M265.71,143.25a.5.5,0,0,0,.5.49.49.49,0,0,0,.5-.49.48.48,0,0,0-.5-.48.49.49,0,0,0-.5.48" transform="translate(0 0)" style="fill:#fff"/></g></g><polyline points="351.55 215.28 315.66 219.32 246.61 213.84 144.95 214.99 93.05 210.7 97.05 154.27 137.44 151.71 294.13 151.71 338.94 157.7 360.78 179.95" style="fill:#6fc6d9"/><polygon points="316.47 176.45 383.74 176.45 343.63 151.71 292.4 151.71 316.47 176.45" style="fill:#3f7036"/><polygon points="249.2 176.45 316.47 176.45 292.4 151.71 241.18 151.71 249.2 176.45" style="fill:#fad103"/><polygon points="181.93 176.45 249.2 176.45 241.18 151.71 189.95 151.71 181.93 176.45" style="fill:#3f7036"/><polygon points="114.65 176.45 181.93 176.45 189.95 151.71 138.73 151.71 114.65 176.45" style="fill:#fad103"/><polygon points="47.38 176.45 114.65 176.45 138.73 151.71 87.5 151.71 47.38 176.45" style="fill:#3f7036"/><path d="M81,251.75h0a33.64,33.64,0,0,1-33.64-33.64V176.45h67.27v41.66A33.64,33.64,0,0,1,81,251.75" transform="translate(0 0)" style="fill:#3f7036"/><path d="M148.29,251.75h0a33.64,33.64,0,0,1-33.64-33.64V176.45h67.28v41.66a33.64,33.64,0,0,1-33.64,33.64" transform="translate(0 0)" style="fill:#fad103"/><path d="M215.56,251.75h0a33.64,33.64,0,0,1-33.63-33.64V176.45H249.2v41.66a33.64,33.64,0,0,1-33.64,33.64" transform="translate(0 0)" style="fill:#3f7036"/><path d="M282.84,251.75h0a33.64,33.64,0,0,1-33.64-33.64V176.45h67.27v41.66a33.64,33.64,0,0,1-33.63,33.64" transform="translate(0 0)" style="fill:#fad103"/><path d="M350.11,251.75h0a33.64,33.64,0,0,1-33.64-33.64V176.45h67.28v41.66a33.64,33.64,0,0,1-33.64,33.64" transform="translate(0 0)" style="fill:#3f7036"/><g style="opacity:0.13000500202179"><g style="clip-path:url(#clip-path-17)"><path d="M10.23,623.31C-2.9,630.4-3.47,640.77,9,646.46s33.16,4.56,46.3-2.53,13.7-17.45,1.26-23.15-33.16-4.56-46.3,2.53" transform="translate(0 0)" style="fill:#010101"/></g></g><path d="M8.64,623.91A19.33,19.33,0,0,1,15.15,619c11.57-5.79,30.34-5.79,41.91,0a19.43,19.43,0,0,1,6.51,4.91h2.16v5.56c0,3.8-2.89,7.59-8.67,10.48-11.57,5.79-30.34,5.79-41.91,0-5.78-2.89-8.68-6.68-8.68-10.48v-5.56Z" transform="translate(0 0)" style="fill:#f2a232"/><g style="clip-path:url(#clip-path-18)"><rect x="62.01" y="597.77" width="1.08" height="48.45" style="fill:#e69018"/><rect x="58.34" y="600.68" width="1.09" height="48.45" style="fill:#e69018"/><rect x="54.66" y="603.59" width="1.09" height="48.45" style="fill:#e69018"/><rect x="50.99" y="606.51" width="1.09" height="48.45" style="fill:#e69018"/><rect x="46.75" y="604.87" width="1.09" height="48.45" style="fill:#e69018"/><rect x="42.51" y="603.25" width="1.08" height="48.45" style="fill:#e69018"/><rect x="38.27" y="601.62" width="1.09" height="48.45" style="fill:#e69018"/><rect x="34.02" y="599.99" width="1.09" height="48.45" style="fill:#e69018"/><rect x="30.09" y="601.62" width="1.09" height="48.45" style="fill:#e69018"/><rect x="26.15" y="603.25" width="1.09" height="48.45" style="fill:#e69018"/><rect x="22.22" y="604.87" width="1.09" height="48.45" style="fill:#e69018"/><rect x="18.28" y="606.51" width="1.09" height="48.45" style="fill:#e69018"/><rect x="14.34" y="608.14" width="1.09" height="48.45" style="fill:#e69018"/><rect x="10.41" y="609.77" width="1.08" height="48.45" style="fill:#e69018"/></g><path d="M15.15,613.43c-11.57,5.79-11.57,15.17,0,21s30.34,5.78,41.91,0,11.57-15.17,0-21-30.34-5.78-41.91,0" transform="translate(0 0)" style="fill:#fbc780"/><path d="M54.82,616.54c-10.33-5.17-27.1-5.17-37.43,0-4.67,2.33-7.2,5.32-7.66,8.37-.56-3.71,2-7.52,7.66-10.36,10.33-5.17,27.1-5.17,37.43,0,5.68,2.84,8.22,6.65,7.66,10.36-.46-3-3-6-7.66-8.37" transform="translate(0 0)" style="fill:#e69018"/><path d="M54.82,633.27c-10.33,5.17-27.1,5.17-37.43,0-4.67-2.33-7.2-5.31-7.66-8.36.46-3,3-6,7.66-8.37,10.33-5.17,27.1-5.17,37.43,0,4.67,2.33,7.2,5.32,7.66,8.37-.46,3.05-3,6-7.66,8.36" transform="translate(0 0)" style="fill:#f2a232"/><path d="M8.64,616.77a19.33,19.33,0,0,1,6.51-4.91c11.57-5.79,30.34-5.79,41.91,0a19.43,19.43,0,0,1,6.51,4.91h2.16v5.56c0,3.79-2.89,7.58-8.67,10.48-11.57,5.78-30.34,5.78-41.91,0-5.78-2.9-8.68-6.69-8.68-10.48v-5.56Z" transform="translate(0 0)" style="fill:#f2a232"/><g style="clip-path:url(#clip-path-19)"><rect x="62.01" y="590.63" width="1.08" height="48.45" style="fill:#e69018"/><rect x="58.34" y="593.54" width="1.09" height="48.45" style="fill:#e69018"/><rect x="54.66" y="596.45" width="1.09" height="48.45" style="fill:#e69018"/><rect x="50.99" y="599.36" width="1.09" height="48.45" style="fill:#e69018"/><rect x="46.75" y="597.73" width="1.09" height="48.45" style="fill:#e69018"/><rect x="42.51" y="596.1" width="1.08" height="48.45" style="fill:#e69018"/><rect x="38.27" y="594.47" width="1.09" height="48.45" style="fill:#e69018"/><rect x="34.02" y="592.84" width="1.09" height="48.45" style="fill:#e69018"/><rect x="30.09" y="594.47" width="1.09" height="48.45" style="fill:#e69018"/><rect x="26.15" y="596.1" width="1.09" height="48.45" style="fill:#e69018"/><rect x="22.22" y="597.73" width="1.09" height="48.45" style="fill:#e69018"/><rect x="18.28" y="599.36" width="1.09" height="48.45" style="fill:#e69018"/><rect x="14.34" y="600.99" width="1.09" height="48.45" style="fill:#e69018"/><rect x="10.41" y="602.62" width="1.08" height="48.45" style="fill:#e69018"/></g><path d="M15.15,606.29c-11.57,5.79-11.57,15.17,0,21s30.34,5.79,41.91,0,11.57-15.16,0-21-30.34-5.79-41.91,0" transform="translate(0 0)" style="fill:#fbc780"/><path d="M54.82,609.4c-10.33-5.17-27.1-5.17-37.43,0-4.67,2.33-7.2,5.31-7.66,8.36-.56-3.71,2-7.52,7.66-10.35,10.33-5.17,27.1-5.17,37.43,0,5.68,2.83,8.22,6.64,7.66,10.35-.46-3-3-6-7.66-8.36" transform="translate(0 0)" style="fill:#e69018"/><path d="M54.82,626.13c-10.33,5.17-27.1,5.17-37.43,0-4.67-2.33-7.2-5.32-7.66-8.37.46-3,3-6,7.66-8.36,10.33-5.17,27.1-5.17,37.43,0,4.67,2.33,7.2,5.31,7.66,8.36-.46,3-3,6-7.66,8.37" transform="translate(0 0)" style="fill:#f2a232"/><path d="M8.64,609.62a19.46,19.46,0,0,1,6.51-4.91c11.57-5.78,30.34-5.78,41.91,0a19.56,19.56,0,0,1,6.51,4.91h2.16v5.57c0,3.79-2.89,7.58-8.67,10.47-11.57,5.79-30.34,5.79-41.91,0-5.78-2.89-8.68-6.68-8.68-10.47v-5.57Z" transform="translate(0 0)" style="fill:#f2a232"/><g style="clip-path:url(#clip-path-20)"><rect x="62.01" y="583.48" width="1.08" height="48.45" style="fill:#e69018"/><rect x="58.34" y="586.39" width="1.09" height="48.45" style="fill:#e69018"/><rect x="54.66" y="589.31" width="1.09" height="48.45" style="fill:#e69018"/><rect x="50.99" y="592.22" width="1.09" height="48.45" style="fill:#e69018"/><rect x="46.75" y="590.59" width="1.09" height="48.45" style="fill:#e69018"/><rect x="42.51" y="588.96" width="1.08" height="48.45" style="fill:#e69018"/><rect x="38.27" y="587.33" width="1.09" height="48.45" style="fill:#e69018"/><rect x="34.02" y="585.7" width="1.09" height="48.45" style="fill:#e69018"/><rect x="30.09" y="587.33" width="1.09" height="48.45" style="fill:#e69018"/><rect x="26.15" y="588.96" width="1.09" height="48.45" style="fill:#e69018"/><rect x="22.22" y="590.59" width="1.09" height="48.45" style="fill:#e69018"/><rect x="18.28" y="592.22" width="1.09" height="48.45" style="fill:#e69018"/><rect x="14.34" y="593.85" width="1.09" height="48.45" style="fill:#e69018"/><rect x="10.41" y="595.48" width="1.08" height="48.45" style="fill:#e69018"/></g><path d="M15.15,599.15c-11.57,5.78-11.57,15.16,0,21s30.34,5.79,41.91,0,11.57-15.17,0-21-30.34-5.79-41.91,0" transform="translate(0 0)" style="fill:#fbc780"/><path d="M54.82,602.26c-10.33-5.17-27.1-5.17-37.43,0-4.67,2.33-7.2,5.31-7.66,8.36-.56-3.71,2-7.52,7.66-10.36,10.33-5.16,27.1-5.16,37.43,0,5.68,2.84,8.22,6.65,7.66,10.36-.46-3-3-6-7.66-8.36" transform="translate(0 0)" style="fill:#e69018"/><path d="M54.82,619c-10.33,5.17-27.1,5.17-37.43,0-4.67-2.33-7.2-5.31-7.66-8.36.46-3,3-6,7.66-8.36,10.33-5.17,27.1-5.17,37.43,0,4.67,2.33,7.2,5.31,7.66,8.36-.46,3-3,6-7.66,8.36" transform="translate(0 0)" style="fill:#f2ac4b"/><path d="M54.2,611.7a14,14,0,0,1-5.24,4c-6.46,3.22-12.85,3.07-16.79,1.09-3.32-1.65-3.53-3.71-.91-6.56,1.89-2.09,2.55-3.09,1.05-3.84-1.22-.61-3.39-.58-5.69.58a9.54,9.54,0,0,0-3.8,3l-5.49-1.56a13.33,13.33,0,0,1,4.82-3.59c5.55-2.78,12-2.92,16-.91,3.42,1.71,3,4.07.49,6.7-1.82,1.92-2.1,2.9-.63,3.63s3.84.63,6.28-.59A11.4,11.4,0,0,0,48.72,610Z" transform="translate(0 0)" style="fill:#db8717"/><polygon points="48.07 618.7 51.63 616.91 22.08 602.14 18.52 603.92 48.07 618.7" style="fill:#db8717"/><polygon points="18.52 602.88 18.52 603.92 20.35 604.84 21.58 604.41 18.52 602.88" style="fill:#ef9518"/><polygon points="54.2 611.7 54.2 610.65 51.95 611.17 53.07 612.3 54.2 611.7" style="fill:#db8717"/><polygon points="51.63 616.91 51.63 615.87 48.06 617.65 48.06 618.7 51.63 616.91" style="fill:#e99216"/><polygon points="17.34 608.48 17.34 607.44 22.82 608.99 22.82 610.04 17.34 608.48" style="fill:#e99216"/><path d="M54.2,610.65A13.75,13.75,0,0,1,49,614.7c-6.46,3.23-12.85,3.07-16.79,1.1-3.32-1.66-3.53-3.72-.91-6.56,1.89-2.1,2.55-3.09,1.05-3.84-1.22-.61-3.39-.58-5.69.57a9.72,9.72,0,0,0-3.8,3l-5.49-1.55a13.33,13.33,0,0,1,4.82-3.59c5.55-2.78,12-2.92,16-.91,3.42,1.71,3,4.06.49,6.7-1.82,1.92-2.1,2.9-.63,3.63s3.84.63,6.28-.59A11.4,11.4,0,0,0,48.72,609Z" transform="translate(0 0)" style="fill:#fbc780"/><polygon points="48.07 617.65 51.63 615.87 22.08 601.1 18.52 602.88 48.07 617.65" style="fill:#fbc780"/><g style="opacity:0.13000500202179"><g style="clip-path:url(#clip-path-21)"><path d="M37.42,735.69c-15.91,8.59-16.6,21.15-1.53,28s40.19,5.53,56.11-3.07,16.6-21.15,1.53-28-40.19-5.52-56.11,3.07" transform="translate(0 0)" style="fill:#010101"/></g></g><path d="M35.49,736.41a23.63,23.63,0,0,1,7.9-5.95c14-7,36.75-7,50.78,0a23.68,23.68,0,0,1,7.89,5.95h2.63v6.75c0,4.59-3.51,9.19-10.52,12.69-14,7-36.76,7-50.78,0-7-3.5-10.52-8.1-10.52-12.69v-6.75Z" transform="translate(0 0)" style="fill:#f2a232"/><g style="clip-path:url(#clip-path-22)"><rect x="100.17" y="704.74" width="1.32" height="58.71" style="fill:#e69018"/><rect x="95.72" y="708.26" width="1.32" height="58.71" style="fill:#e69018"/><rect x="91.27" y="711.79" width="1.32" height="58.71" style="fill:#e69018"/><rect x="86.82" y="715.32" width="1.32" height="58.71" style="fill:#e69018"/><rect x="81.68" y="713.35" width="1.32" height="58.71" style="fill:#e69018"/><rect x="76.54" y="711.37" width="1.32" height="58.71" style="fill:#e69018"/><rect x="71.39" y="709.4" width="1.32" height="58.71" style="fill:#e69018"/><rect x="66.25" y="707.42" width="1.32" height="58.71" style="fill:#e69018"/><rect x="61.48" y="709.4" width="1.32" height="58.71" style="fill:#e69018"/><rect x="56.71" y="711.37" width="1.32" height="58.71" style="fill:#e69018"/><rect x="51.94" y="713.35" width="1.32" height="58.71" style="fill:#e69018"/><rect x="47.18" y="715.32" width="1.32" height="58.71" style="fill:#e69018"/><rect x="42.41" y="717.3" width="1.32" height="58.71" style="fill:#e69018"/><rect x="37.64" y="719.27" width="1.32" height="58.71" style="fill:#e69018"/></g><path d="M43.39,723.72c-14,7-14,18.38,0,25.39s36.75,7,50.78,0,14-18.38,0-25.39-36.76-7-50.78,0" transform="translate(0 0)" style="fill:#fbc780"/><path d="M91.46,727.49c-12.53-6.27-32.84-6.27-45.37,0-5.65,2.82-8.73,6.44-9.28,10.13-.68-4.5,2.4-9.11,9.28-12.55,12.53-6.26,32.84-6.26,45.37,0,6.88,3.44,10,8,9.28,12.55-.55-3.69-3.63-7.31-9.28-10.13" transform="translate(0 0)" style="fill:#e69018"/><path d="M91.46,747.76c-12.53,6.26-32.84,6.26-45.37,0-5.65-2.83-8.73-6.44-9.28-10.14.55-3.69,3.63-7.31,9.28-10.13,12.53-6.27,32.84-6.27,45.37,0,5.65,2.82,8.73,6.44,9.28,10.13-.55,3.7-3.63,7.31-9.28,10.14" transform="translate(0 0)" style="fill:#f2a232"/><path d="M35.49,727.76a23.37,23.37,0,0,1,7.9-6c14-7,36.75-7,50.78,0a23.42,23.42,0,0,1,7.89,6h2.63v6.74c0,4.6-3.51,9.19-10.52,12.7-14,7-36.76,7-50.78,0-7-3.51-10.52-8.1-10.52-12.7v-6.74Z" transform="translate(0 0)" style="fill:#f2a232"/><g style="clip-path:url(#clip-path-23)"><rect x="100.17" y="696.08" width="1.32" height="58.71" style="fill:#e69018"/><rect x="95.72" y="699.61" width="1.32" height="58.71" style="fill:#e69018"/><rect x="91.27" y="703.14" width="1.32" height="58.71" style="fill:#e69018"/><rect x="86.82" y="706.66" width="1.32" height="58.71" style="fill:#e69018"/><rect x="81.68" y="704.69" width="1.32" height="58.71" style="fill:#e69018"/><rect x="76.54" y="702.71" width="1.32" height="58.71" style="fill:#e69018"/><rect x="71.39" y="700.74" width="1.32" height="58.71" style="fill:#e69018"/><rect x="66.25" y="698.76" width="1.32" height="58.71" style="fill:#e69018"/><rect x="61.48" y="700.74" width="1.32" height="58.71" style="fill:#e69018"/><rect x="56.71" y="702.71" width="1.32" height="58.71" style="fill:#e69018"/><rect x="51.94" y="704.69" width="1.32" height="58.71" style="fill:#e69018"/><rect x="47.18" y="706.66" width="1.32" height="58.71" style="fill:#e69018"/><rect x="42.41" y="708.64" width="1.32" height="58.71" style="fill:#e69018"/><rect x="37.64" y="710.62" width="1.32" height="58.71" style="fill:#e69018"/></g><path d="M43.39,715.06c-14,7-14,18.38,0,25.39s36.75,7,50.78,0,14-18.38,0-25.39-36.76-7-50.78,0" transform="translate(0 0)" style="fill:#fbc780"/><path d="M91.46,718.83c-12.53-6.27-32.84-6.27-45.37,0-5.65,2.82-8.73,6.44-9.28,10.14-.68-4.5,2.4-9.12,9.28-12.55,12.53-6.27,32.84-6.27,45.37,0,6.88,3.43,10,8.05,9.28,12.55-.55-3.7-3.63-7.32-9.28-10.14" transform="translate(0 0)" style="fill:#e69018"/><path d="M91.46,739.1c-12.53,6.26-32.84,6.26-45.37,0-5.65-2.82-8.73-6.44-9.28-10.14.55-3.69,3.63-7.31,9.28-10.13,12.53-6.26,32.84-6.26,45.37,0,5.65,2.82,8.73,6.44,9.28,10.13-.55,3.7-3.63,7.32-9.28,10.14" transform="translate(0 0)" style="fill:#f2a232"/><path d="M35.49,719.1a23.5,23.5,0,0,1,7.9-6c14-7,36.75-7,50.78,0a23.55,23.55,0,0,1,7.89,6h2.63v6.74c0,4.6-3.51,9.19-10.52,12.7-14,7-36.76,7-50.78,0-7-3.51-10.52-8.1-10.52-12.7V719.1Z" transform="translate(0 0)" style="fill:#f2a232"/><g style="clip-path:url(#clip-path-24)"><rect x="100.17" y="687.42" width="1.32" height="58.71" style="fill:#e69018"/><rect x="95.72" y="690.95" width="1.32" height="58.71" style="fill:#e69018"/><rect x="91.27" y="694.48" width="1.32" height="58.71" style="fill:#e69018"/><rect x="86.82" y="698.01" width="1.32" height="58.71" style="fill:#e69018"/><rect x="81.68" y="696.03" width="1.32" height="58.71" style="fill:#e69018"/><rect x="76.54" y="694.06" width="1.32" height="58.71" style="fill:#e69018"/><rect x="71.39" y="692.08" width="1.32" height="58.71" style="fill:#e69018"/><rect x="66.25" y="690.11" width="1.32" height="58.71" style="fill:#e69018"/><rect x="61.48" y="692.08" width="1.32" height="58.71" style="fill:#e69018"/><rect x="56.71" y="694.06" width="1.32" height="58.71" style="fill:#e69018"/><rect x="51.94" y="696.03" width="1.32" height="58.71" style="fill:#e69018"/><rect x="47.18" y="698.01" width="1.32" height="58.71" style="fill:#e69018"/><rect x="42.41" y="699.98" width="1.32" height="58.71" style="fill:#e69018"/><rect x="37.64" y="701.96" width="1.32" height="58.71" style="fill:#e69018"/></g><path d="M43.39,706.4c-14,7-14,18.39,0,25.4s36.75,7,50.78,0,14-18.38,0-25.4-36.76-7-50.78,0" transform="translate(0 0)" style="fill:#fbc780"/><path d="M91.46,710.17c-12.53-6.26-32.84-6.26-45.37,0-5.65,2.83-8.73,6.44-9.28,10.14-.68-4.5,2.4-9.11,9.28-12.55,12.53-6.27,32.84-6.27,45.37,0,6.88,3.44,10,8,9.28,12.55-.55-3.7-3.63-7.31-9.28-10.14" transform="translate(0 0)" style="fill:#e69018"/><path d="M91.46,730.44c-12.53,6.27-32.84,6.27-45.37,0-5.65-2.82-8.73-6.44-9.28-10.13.55-3.7,3.63-7.31,9.28-10.14,12.53-6.26,32.84-6.26,45.37,0,5.65,2.83,8.73,6.44,9.28,10.14-.55,3.69-3.63,7.31-9.28,10.13" transform="translate(0 0)" style="fill:#f2ac4b"/><path d="M35.49,710.3a23.5,23.5,0,0,1,7.9-5.95c14-7,36.75-7,50.78,0a23.55,23.55,0,0,1,7.89,5.95h2.63V717c0,4.6-3.51,9.19-10.52,12.7-14,7-36.76,7-50.78,0-7-3.51-10.52-8.1-10.52-12.7V710.3Z" transform="translate(0 0)" style="fill:#f2a232"/><g style="clip-path:url(#clip-path-25)"><rect x="100.17" y="678.62" width="1.32" height="58.71" style="fill:#e69018"/><rect x="95.72" y="682.15" width="1.32" height="58.71" style="fill:#e69018"/><rect x="91.27" y="685.68" width="1.32" height="58.71" style="fill:#e69018"/><rect x="86.82" y="689.21" width="1.32" height="58.71" style="fill:#e69018"/><rect x="81.68" y="687.23" width="1.32" height="58.71" style="fill:#e69018"/><rect x="76.54" y="685.26" width="1.32" height="58.71" style="fill:#e69018"/><rect x="71.39" y="683.28" width="1.32" height="58.71" style="fill:#e69018"/><rect x="66.25" y="681.31" width="1.32" height="58.71" style="fill:#e69018"/><rect x="61.48" y="683.28" width="1.32" height="58.71" style="fill:#e69018"/><rect x="56.71" y="685.26" width="1.32" height="58.71" style="fill:#e69018"/><rect x="51.94" y="687.23" width="1.32" height="58.71" style="fill:#e69018"/><rect x="47.18" y="689.21" width="1.32" height="58.71" style="fill:#e69018"/><rect x="42.41" y="691.18" width="1.32" height="58.71" style="fill:#e69018"/><rect x="37.64" y="693.16" width="1.32" height="58.71" style="fill:#e69018"/></g><path d="M43.39,697.6c-14,7-14,18.38,0,25.4s36.75,7,50.78,0,14-18.38,0-25.4-36.76-7-50.78,0" transform="translate(0 0)" style="fill:#fbc780"/><path d="M91.46,701.37c-12.53-6.26-32.84-6.26-45.37,0-5.65,2.83-8.73,6.44-9.28,10.14-.68-4.5,2.4-9.11,9.28-12.55,12.53-6.27,32.84-6.27,45.37,0,6.88,3.44,10,8,9.28,12.55-.55-3.7-3.63-7.31-9.28-10.14" transform="translate(0 0)" style="fill:#e69018"/><path d="M91.46,721.64c-12.53,6.27-32.84,6.27-45.37,0-5.65-2.82-8.73-6.44-9.28-10.13.55-3.7,3.63-7.31,9.28-10.14,12.53-6.26,32.84-6.26,45.37,0,5.65,2.83,8.73,6.44,9.28,10.14-.55,3.69-3.63,7.31-9.28,10.13" transform="translate(0 0)" style="fill:#f2a232"/><path d="M35.49,701.64a23.63,23.63,0,0,1,7.9-5.95c14-7,36.75-7,50.78,0a23.68,23.68,0,0,1,7.89,5.95h2.63v6.75c0,4.59-3.51,9.19-10.52,12.69-14,7-36.76,7-50.78,0-7-3.5-10.52-8.1-10.52-12.69v-6.75Z" transform="translate(0 0)" style="fill:#f2a232"/><g style="clip-path:url(#clip-path-26)"><rect x="100.17" y="669.97" width="1.32" height="58.71" style="fill:#e69018"/><rect x="95.72" y="673.49" width="1.32" height="58.71" style="fill:#e69018"/><rect x="91.27" y="677.02" width="1.32" height="58.71" style="fill:#e69018"/><rect x="86.82" y="680.55" width="1.32" height="58.71" style="fill:#e69018"/><rect x="81.68" y="678.58" width="1.32" height="58.71" style="fill:#e69018"/><rect x="76.54" y="676.6" width="1.32" height="58.71" style="fill:#e69018"/><rect x="71.39" y="674.63" width="1.32" height="58.71" style="fill:#e69018"/><rect x="66.25" y="672.65" width="1.32" height="58.71" style="fill:#e69018"/><rect x="61.48" y="674.63" width="1.32" height="58.71" style="fill:#e69018"/><rect x="56.71" y="676.6" width="1.32" height="58.71" style="fill:#e69018"/><rect x="51.94" y="678.58" width="1.32" height="58.71" style="fill:#e69018"/><rect x="47.18" y="680.55" width="1.32" height="58.71" style="fill:#e69018"/><rect x="42.41" y="682.53" width="1.32" height="58.71" style="fill:#e69018"/><rect x="37.64" y="684.5" width="1.32" height="58.71" style="fill:#e69018"/></g><path d="M43.39,689c-14,7-14,18.38,0,25.39s36.75,7,50.78,0,14-18.38,0-25.39-36.76-7-50.78,0" transform="translate(0 0)" style="fill:#fbc780"/><path d="M91.46,692.71c-12.53-6.26-32.84-6.26-45.37,0-5.65,2.83-8.73,6.45-9.28,10.14-.68-4.5,2.4-9.11,9.28-12.55,12.53-6.26,32.84-6.26,45.37,0,6.88,3.44,10,8.05,9.28,12.55-.55-3.69-3.63-7.31-9.28-10.14" transform="translate(0 0)" style="fill:#e69018"/><path d="M91.46,713c-12.53,6.27-32.84,6.27-45.37,0-5.65-2.82-8.73-6.44-9.28-10.13.55-3.69,3.63-7.31,9.28-10.13,12.53-6.27,32.84-6.27,45.37,0,5.65,2.82,8.73,6.44,9.28,10.13-.55,3.69-3.63,7.31-9.28,10.13" transform="translate(0 0)" style="fill:#f2a232"/><path d="M35.49,693a23.51,23.51,0,0,1,7.9-6c14-7,36.75-7,50.78,0a23.56,23.56,0,0,1,7.89,6h2.63v6.74c0,4.59-3.51,9.19-10.52,12.7-14,7-36.76,7-50.78,0-7-3.51-10.52-8.11-10.52-12.7V693Z" transform="translate(0 0)" style="fill:#f2a232"/><g style="clip-path:url(#clip-path-27)"><rect x="100.17" y="661.31" width="1.32" height="58.71" style="fill:#e69018"/><rect x="95.72" y="664.84" width="1.32" height="58.71" style="fill:#e69018"/><rect x="91.27" y="668.37" width="1.32" height="58.71" style="fill:#e69018"/><rect x="86.82" y="671.89" width="1.32" height="58.71" style="fill:#e69018"/><rect x="81.68" y="669.92" width="1.32" height="58.71" style="fill:#e69018"/><rect x="76.54" y="667.95" width="1.32" height="58.71" style="fill:#e69018"/><rect x="71.39" y="665.97" width="1.32" height="58.71" style="fill:#e69018"/><rect x="66.25" y="663.99" width="1.32" height="58.71" style="fill:#e69018"/><rect x="61.48" y="665.97" width="1.32" height="58.71" style="fill:#e69018"/><rect x="56.71" y="667.95" width="1.32" height="58.71" style="fill:#e69018"/><rect x="51.94" y="669.92" width="1.32" height="58.71" style="fill:#e69018"/><rect x="47.18" y="671.89" width="1.32" height="58.71" style="fill:#e69018"/><rect x="42.41" y="673.87" width="1.32" height="58.71" style="fill:#e69018"/><rect x="37.64" y="675.84" width="1.32" height="58.71" style="fill:#e69018"/></g><path d="M43.39,680.29c-14,7-14,18.38,0,25.39s36.75,7,50.78,0,14-18.38,0-25.39-36.76-7-50.78,0" transform="translate(0 0)" style="fill:#fbc780"/><path d="M91.46,684.06c-12.53-6.27-32.84-6.27-45.37,0-5.65,2.82-8.73,6.44-9.28,10.13-.68-4.5,2.4-9.11,9.28-12.55,12.53-6.26,32.84-6.26,45.37,0,6.88,3.44,10,8.05,9.28,12.55-.55-3.69-3.63-7.31-9.28-10.13" transform="translate(0 0)" style="fill:#e69018"/><path d="M91.46,704.33c-12.53,6.26-32.84,6.26-45.37,0-5.65-2.83-8.73-6.44-9.28-10.14.55-3.69,3.63-7.31,9.28-10.13,12.53-6.27,32.84-6.27,45.37,0,5.65,2.82,8.73,6.44,9.28,10.13-.55,3.7-3.63,7.31-9.28,10.14" transform="translate(0 0)" style="fill:#f2ac4b"/><path d="M90.7,695.16c-.72,1.25-3.09,3.28-6.34,4.91C76.53,704,68.79,703.79,64,701.4c-4-2-4.28-4.5-1.1-7.95,2.28-2.54,3.09-3.74,1.27-4.65-1.48-.74-4.11-.7-6.9.69a11.76,11.76,0,0,0-4.61,3.66L46,691.27a16.2,16.2,0,0,1,5.84-4.36c6.72-3.36,14.51-3.53,19.37-1.1,4.15,2.08,3.68,4.93.59,8.13-2.2,2.32-2.53,3.51-.76,4.4s4.65.76,7.62-.72a13.87,13.87,0,0,0,5.37-4.47Z" transform="translate(0 0)" style="fill:#db8717"/><polygon points="83.27 703.65 87.59 701.49 51.78 683.59 47.46 685.75 83.27 703.65" style="fill:#db8717"/><polygon points="47.46 684.48 47.46 685.75 49.69 686.86 51.17 686.34 47.46 684.48" style="fill:#ef9518"/><polygon points="90.7 695.16 90.7 693.9 87.98 694.53 89.34 695.89 90.7 695.16" style="fill:#db8717"/><polygon points="87.59 701.49 87.59 700.22 83.27 702.38 83.27 703.65 87.59 701.49" style="fill:#e99216"/><polygon points="46.03 691.27 46.03 690 52.67 691.89 52.67 693.15 46.03 691.27" style="fill:#e99216"/><path d="M90.7,693.9c-.72,1.25-3.09,3.28-6.34,4.9-7.83,3.92-15.57,3.73-20.35,1.34-4-2-4.28-4.51-1.1-7.95,2.28-2.54,3.09-3.75,1.27-4.66-1.48-.74-4.11-.7-6.9.7a11.67,11.67,0,0,0-4.61,3.66L46,690a16.09,16.09,0,0,1,5.84-4.36c6.72-3.36,14.51-3.53,19.37-1.1,4.15,2.07,3.68,4.93.59,8.12-2.2,2.33-2.53,3.51-.76,4.4s4.65.76,7.62-.72a13.78,13.78,0,0,0,5.37-4.46Z" transform="translate(0 0)" style="fill:#fbc780"/><polygon points="83.27 702.38 87.59 700.23 51.78 682.32 47.46 684.48 83.27 702.38" style="fill:#fbc780"/><path d="M663.54,666.57l-335.82-.15a12.73,12.73,0,0,1-12.65-12.74l.09-210.2a12.72,12.72,0,0,1,12.66-12.73l335.82.14a12.74,12.74,0,0,1,12.65,12.75l-.09,210.2a12.74,12.74,0,0,1-12.66,12.73" transform="translate(0 0)" style="fill:#0666a8"/><path d="M329.42,662.28l330,.14a12.74,12.74,0,0,0,12.67-12.73l0-119.53c-88.87,96.67-263.42,124.21-342.71,132.12" transform="translate(0 0)" style="fill:#005c92"/><path d="M395.06,559.27l-60.23,0a1.48,1.48,0,0,1-1.47-1.48l0-44.37a1.47,1.47,0,0,1,1.48-1.47l60.22,0a1.47,1.47,0,0,1,1.47,1.47l0,44.37a1.47,1.47,0,0,1-1.47,1.47" transform="translate(0 0)" style="fill:#eac06e"/><path d="M396.54,550.78V531.45c-15.4,14.76-43.58,22-60.84,25.14a8.37,8.37,0,0,0,6.1,2.66l46.3,0a8.5,8.5,0,0,0,8.44-8.49" transform="translate(0 0)" style="fill:#d1a358"/><rect x="333.35" y="575.26" width="73.03" height="23.36" style="fill:#c5c3c3"/><rect x="414.81" y="575.3" width="73.03" height="23.36" style="fill:#c5c3c3"/><rect x="496.27" y="575.33" width="73.03" height="23.36" style="fill:#c5c3c3"/><rect x="577.73" y="575.37" width="73.03" height="23.35" style="fill:#c5c3c3"/><path d="M582.79,481a21.84,21.84,0,0,1,9.38-18,21.54,21.54,0,0,0-12.32-3.88,21.84,21.84,0,0,0,0,43.67,21.46,21.46,0,0,0,12.32-3.87,21.85,21.85,0,0,1-9.36-18" transform="translate(0 0)" style="fill:#e52a29"/><path d="M607.43,481a21.86,21.86,0,0,1,9.37-18,21.51,21.51,0,0,0-24.63,0,21.9,21.9,0,0,1,0,35.92,21.52,21.52,0,0,0,24.64,0,21.83,21.83,0,0,1-9.36-18" transform="translate(0 0)" style="fill:#ffcc02"/><path d="M601.53,481a21.88,21.88,0,0,0-9.36-18,21.9,21.9,0,0,0,0,35.92,21.87,21.87,0,0,0,9.38-18" transform="translate(0 0)" style="fill:#ec6d28"/><path d="M629.13,459.16A21.56,21.56,0,0,0,616.8,463a21.89,21.89,0,0,1,0,35.92,21.46,21.46,0,0,0,12.32,3.88,21.84,21.84,0,0,0,0-43.67" transform="translate(0 0)" style="fill:#09adbf"/><path d="M626.17,481a21.87,21.87,0,0,0-9.37-18,21.9,21.9,0,0,0,0,35.92A21.85,21.85,0,0,0,626.17,481" transform="translate(0 0)" style="fill:#585a5b"/><rect x="496.25" y="615.34" width="154.49" height="7.08" style="fill:#e9ecec"/><rect x="532.76" y="630.56" width="117.97" height="7.08" style="fill:#c5c6c7"/><path d="M396.55,521.3v-1.7H365.81v-7.65h-1.69v7.65l-30.74,0v1.7l30.74,0v7.28H333.37v1.69l30.75,0v.06l.9-.06c.31,0,7.54-.49,8.19,5.13a4.33,4.33,0,0,1-1,3.05c-1.31,1.52-3.69,2.31-7.08,2.35H333.37v1.69l30.89,0v7.42H333.37v1.69l30.9,0v7.64h1.69v-7.64h30.6v-1.7h-30.6v-7.45c3.46-.16,6-1.14,7.49-2.9a6,6,0,0,0,1.45-3.53h21.65v-1.7H374.73c-1-4.55-5.81-5.77-8.93-5.8v-7.25Z" transform="translate(0 0)" style="fill:#e9ecec"/><path d="M650.74,622.45v-7.08l-112.65,0q-9.55,3.72-19.21,7.07Z" transform="translate(0 0)" style="fill:#c5c6c7"/><path d="M650.76,575.38h-33a390.83,390.83,0,0,1-40,22.61v.73l73,0Z" transform="translate(0 0)" style="fill:#9b9b9d"/><path d="M319.38,445.61l0,36.53c1-15.51,8.4-49.27,54.79-49.25l-42.11,0a12.74,12.74,0,0,0-12.66,12.74" transform="translate(0 0)" style="fill:#4588bc"/><polygon points="335.18 466.43 338.63 466.43 338.63 476.67 346.7 466.43 350.87 466.43 343.61 475.39 351.2 487.27 347.09 487.27 341.23 478.13 338.63 481.26 338.63 487.27 335.18 487.27 335.18 466.43" style="fill:#fff"/><path d="M353.81,466.43h7.54a7.7,7.7,0,0,1,5.56,2,6.28,6.28,0,0,1,1.73,4.58v.12a6.11,6.11,0,0,1-4.32,6.11l4.92,8.06h-4l-4.44-7.38a.51.51,0,0,1-.21,0h-3.33v7.35h-3.46ZM361,476.82c2.68,0,4.17-1.43,4.17-3.6v-.06c0-2.35-1.52-3.57-4.11-3.57h-3.78v7.23Z" transform="translate(0 0)" style="fill:#fff"/><polygon points="372.39 466.43 385.51 466.43 385.51 469.56 375.81 469.56 375.81 475.21 384.41 475.21 384.41 478.34 375.81 478.34 375.81 484.14 385.67 484.14 385.67 487.27 372.39 487.27 372.39 466.43" style="fill:#fff"/><path d="M389.29,466.43h6.37c6,0,9.89,4.17,9.89,10.27v.24c0,6.11-3.93,10.33-9.89,10.33h-6.37Zm3.46,3.13v14.59h2.88c3.82,0,6.35-2.71,6.35-7.18v-.18c0-4.49-2.53-7.23-6.35-7.23Z" transform="translate(0 0)" style="fill:#fff"/><path d="M409.47,461.67h3.46v3.19h-3.46Zm0,4.76h3.46v20.84h-3.46Z" transform="translate(0 0)" style="fill:#fff"/><polygon points="425.28 466.43 428.73 466.43 428.73 476.67 436.8 466.43 440.97 466.43 433.7 475.39 441.3 487.27 437.19 487.27 431.32 478.13 428.73 481.26 428.73 487.27 425.28 487.27 425.28 466.43" style="fill:#fff"/><path d="M449.6,466.31h3.33l7.65,21H457l-1.73-4.91h-8.09l-1.73,4.91H442Zm4.58,13-3-8.36-3,8.36Z" transform="translate(0 0)" style="fill:#fff"/><path d="M463.56,466.43h7.53a7.68,7.68,0,0,1,5.56,2,6.28,6.28,0,0,1,1.73,4.58v.12a6.12,6.12,0,0,1-4.31,6.11l4.91,8.06h-4l-4.44-7.38a.51.51,0,0,1-.21,0H467v7.35h-3.45Zm7.17,10.39c2.68,0,4.17-1.43,4.17-3.6v-.06c0-2.35-1.52-3.57-4.11-3.57H467v7.23Z" transform="translate(0 0)" style="fill:#fff"/><polygon points="486.15 469.65 480.67 469.65 480.67 466.43 495.08 466.43 495.08 469.65 489.6 469.65 489.6 487.27 486.15 487.27 486.15 469.65" style="fill:#fff"/><rect x="498.5" y="466.43" width="3.45" height="20.84" style="fill:#fff"/><g style="opacity:0.139999002218246"><g style="clip-path:url(#clip-path-28)"><path d="M112.36,682.39c.18,8.16,6.6,16.19,19.2,22.14a91.15,91.15,0,0,0,27.9,7.52,106.18,106.18,0,0,0,34.76-.77A103.79,103.79,0,0,0,211.3,707l77.77,40.71a5.25,5.25,0,0,0,.78.41l.12.05h0c1.78.68,4.12.45,6.66-.9,5.45-2.87,13.36-8.29,13.24-13.79a6,6,0,0,0-2.47-5.2h0l-.05,0a4.86,4.86,0,0,0-1.4-.6l-74.24-31.92c5.27-4.75-6.77-16.85-6.55-22,.37-8.53,8.94-15-4.2-21.22-25.2-11.9-65.78-6.09-90.42,6.92-12.32,6.51-18.37,14.81-18.19,23" transform="translate(0 0)" style="fill:#010101"/></g></g><path d="M237.29,660.86c-.32,7.26-5.92,14.57-16.87,20.35-22.88,12.08-60.38,12.91-83.77,1.86-11.69-5.52-17.65-13-17.81-20.56l.35,15.8c.17,7.58,6.12,15,17.81,20.56,23.39,11,60.89,10.22,83.77-1.86,11.93-6.3,17.52-14.42,16.82-22.3Z" transform="translate(0 0)" style="fill:#4062ab"/><path d="M143.36,656.71c18.89-10,49.87-10.67,69.18-1.54,6.54,3.09,10.9,6.91,13.08,11,3.91-8.17-.57-17-13.35-23C193,634,162,634.69,143.09,644.67c-12.49,6.6-16.57,15.61-12.3,23.6,2-4.18,6.18-8.18,12.57-11.56" transform="translate(0 0)" style="fill:#2a4d96"/><g style="opacity:0.580002009868622"><g style="clip-path:url(#clip-path-29)"><path d="M213.08,647.63c-19.71-9.31-51.32-8.61-70.6,1.57-9.16,4.84-13.88,10.95-14.21,17-.36,6.71,4.65,13.39,15,18.27,19.71,9.32,51.32,8.62,70.6-1.57C224,677.59,228.69,670.7,228,664c-.6-6.06-5.59-12-15-16.38" transform="translate(0 0)" style="fill:#fff"/></g></g><path d="M219.49,639.32c-23.39-11.05-60.9-10.21-83.77,1.87-11.44,6-17,13.74-16.88,21.32s6.12,15,17.81,20.56c23.39,11,60.89,10.22,83.77-1.86,11-5.78,16.55-13.09,16.87-20.35.34-7.92-5.61-15.77-17.8-21.54M213,677.72c-18.89,10-49.86,10.67-69.18,1.54-10.14-4.79-15-11.33-14.69-17.91.32-6,5-11.94,13.92-16.68,18.89-10,49.87-10.67,69.18-1.54,9.18,4.34,14.07,10.11,14.66,16,.64,6.55-4,13.3-13.89,18.54" transform="translate(0 0)" style="fill:#4bb7e9"/><path d="M307.73,740.68l12.85-19.76-91.79-39.85c-1.26-.83-3.11-.8-5.17.28-3.67,1.94-6.58,6.53-6.5,10.25A4.15,4.15,0,0,0,218.6,695h0a3.35,3.35,0,0,0,1.2.58Z" transform="translate(0 0)" style="fill:#3153a0"/><path d="M322.87,725.75c.11,5.11-3.89,11.41-8.94,14.08s-9.25.69-9.36-4.42,3.89-11.41,8.94-14.08,9.24-.69,9.36,4.42" transform="translate(0 0)" style="fill:#476ab0"/><g style="opacity:0.13000500202179"><g style="clip-path:url(#clip-path-30)"><path d="M261.28,736.2c-13.13,7.09-13.7,17.46-1.26,23.15s33.16,4.56,46.29-2.53,13.7-17.46,1.27-23.15-33.16-4.56-46.3,2.53" transform="translate(0 0)" style="fill:#010101"/></g></g><path d="M259.68,736.8a19.48,19.48,0,0,1,6.52-4.91c11.57-5.79,30.33-5.79,41.9,0a19.48,19.48,0,0,1,6.52,4.91h2.16v5.56c0,3.8-2.89,7.59-8.68,10.48-11.57,5.79-30.33,5.79-41.9,0-5.78-2.89-8.68-6.68-8.68-10.48V736.8Z" transform="translate(0 0)" style="fill:#f2a232"/><g style="clip-path:url(#clip-path-31)"><rect x="313.06" y="710.66" width="1.09" height="48.45" style="fill:#e69018"/><rect x="309.39" y="713.57" width="1.08" height="48.45" style="fill:#e69018"/><rect x="305.71" y="716.48" width="1.08" height="48.45" style="fill:#e69018"/><rect x="302.04" y="719.39" width="1.09" height="48.45" style="fill:#e69018"/><rect x="297.8" y="717.77" width="1.08" height="48.45" style="fill:#e69018"/><rect x="293.55" y="716.14" width="1.09" height="48.45" style="fill:#e69018"/><rect x="289.31" y="714.5" width="1.09" height="48.45" style="fill:#e69018"/><rect x="285.07" y="712.88" width="1.09" height="48.45" style="fill:#e69018"/><rect x="281.13" y="714.5" width="1.09" height="48.45" style="fill:#e69018"/><rect x="277.2" y="716.14" width="1.08" height="48.45" style="fill:#e69018"/><rect x="273.26" y="717.77" width="1.08" height="48.45" style="fill:#e69018"/><rect x="269.33" y="719.39" width="1.08" height="48.45" style="fill:#e69018"/><rect x="265.39" y="721.02" width="1.08" height="48.45" style="fill:#e69018"/><rect x="261.46" y="722.66" width="1.09" height="48.45" style="fill:#e69018"/></g><g style="clip-path:url(#clip-path-32)"><rect x="313.06" y="703.52" width="1.09" height="48.45" style="fill:#e69018"/><rect x="309.39" y="706.43" width="1.08" height="48.45" style="fill:#e69018"/><rect x="305.71" y="709.34" width="1.08" height="48.45" style="fill:#e69018"/><rect x="302.04" y="712.25" width="1.09" height="48.45" style="fill:#e69018"/><rect x="297.8" y="710.62" width="1.08" height="48.45" style="fill:#e69018"/><rect x="293.55" y="708.99" width="1.09" height="48.45" style="fill:#e69018"/><rect x="289.31" y="707.36" width="1.09" height="48.45" style="fill:#e69018"/><rect x="285.07" y="705.73" width="1.09" height="48.45" style="fill:#e69018"/><rect x="281.13" y="707.36" width="1.09" height="48.45" style="fill:#e69018"/><rect x="277.2" y="708.99" width="1.08" height="48.45" style="fill:#e69018"/><rect x="273.26" y="710.62" width="1.08" height="48.45" style="fill:#e69018"/><rect x="269.33" y="712.25" width="1.08" height="48.45" style="fill:#e69018"/><rect x="265.39" y="713.88" width="1.08" height="48.45" style="fill:#e69018"/><rect x="261.46" y="715.51" width="1.09" height="48.45" style="fill:#e69018"/></g></g></g></svg>