<svg xmlns="http://www.w3.org/2000/svg" xmlns:xlink="http://www.w3.org/1999/xlink" viewBox="0 0 445.44 186.91"><defs><clipPath id="clip-path"><rect x="31.07" y="4.85" width="38.92" height="77.19" style="fill:none"/></clipPath><clipPath id="clip-path-2"><rect x="86.39" y="4.85" width="9.22" height="77.19" style="fill:none"/></clipPath><clipPath id="clip-path-3"><rect x="112.67" y="4.85" width="80.11" height="182.04" style="fill:none"/></clipPath></defs><title>Asset 8</title><g style="isolation:isolate"><g id="Layer_2" data-name="Layer 2"><g id="Layer_1-2" data-name="Layer 1"><path d="M67.77,186.33c-10.18,0-27.47-4.8-37.27-15.24-13.82-14.7-14.11-23.57-14.37-31.4a44.32,44.32,0,0,1,1.13-9.42,21.68,21.68,0,0,0,.62-4.29l-.06-.49c-.32-2.71-1-8.36.94-11.28a10.3,10.3,0,0,1,3.65-3.32,7.62,7.62,0,0,0,1.83-1.37h0c.27-.29.59-.73,1-1.24,1.59-2.18,4.26-5.82,8.94-5.89a72.43,72.43,0,0,0,8.32-1c5.16-.79,11-1.67,14.94-1.22,8.19,1,28.32,5.15,38.52,23.14s7.9,27,5.39,36.41c-.76,2.89-1.34,4.9-1.77,6.41-1,3.59-1.22,4.24-1.27,7.17-.1,4.7-.68,7.4-1.89,8.74-2.81,3.11-5.2,2.78-7.5,2.46L88,184.4c-2.78-.29-10-.38-14.48,1.18a18.08,18.08,0,0,1-5.7.75M25.62,110.78a9.41,9.41,0,0,1-2.24,1.7,8.48,8.48,0,0,0-3.07,2.76c-1.55,2.35-.91,7.73-.64,10l.06.5a20.44,20.44,0,0,1-.64,4.85,42.71,42.71,0,0,0-1.09,9c.24,7.5.52,16,13.86,30.19,12,12.82,34.94,16.11,41,14,5.16-1.8,13-1.52,15.29-1.28l1,.13c2.16.29,3.72.5,5.86-1.87.86-.94,1.33-3.48,1.41-7.53.06-3.17.31-4,1.35-7.65.43-1.5,1-3.5,1.76-6.37,2.41-9,4.68-17.57-5.21-35C84.53,107,65.1,103,57.2,102c-3.69-.43-9.41.44-14.45,1.2a72.86,72.86,0,0,1-8.57,1c-3.75.06-5.9,3-7.47,5.12-.41.55-.76,1-1.09,1.4" style="fill:#fbd200"/><path d="M31.37,104.84c.33-1.14,20.42-3.61,26.72-2.88,8.76,1,26,5,35.35,20.71,10.28,17.17,8.79,25.3,6.19,35.09S97.06,170.25,97,174.58c0,2.18-5.78-6.44-4.17-15.09,1.54-8.24,1-21.57-7.93-32.12-8.37-9.94-15-13.77-23.12-17.18-12.95-5.47-30.39-5.35-30.39-5.35" style="fill:#ffe363"/><path d="M24.49,132.18c.81,7.63,16,24.81,29.51,30.45,24.18,10.09,39.82,13.33,41.75,11,.68-.82,1.51-.88,1.59-.38.27,1.82-.93,7.49-1.7,8.36-2.84,3.16-5,2.33-7.64,2.06s-10.1-.46-14.89,1.21c-6.56,2.3-29.66-1.1-42-14.24-13.46-14.33-13.87-23-14.11-30.78-.17-5.18,1.95-11.69,1.72-13.8s-1.13-8.31.76-11.14a10.13,10.13,0,0,1,1.4-1.66c-.38,2.45,2.89,12.22,3.59,18.88" style="fill:#fbd200"/><path d="M6.24,98.33s2.43,1,5.53,2.64c4.63,2.44,10.8,6.29,12.79,10.35.62,1.29,1.21-1.11,1.21-1.11S15.06,98.58,7.13,96.59C5.24,96.1,5,97.78,6.24,98.33" style="fill:#406f2d"/><path d="M11.75,104.42s-3.94,7.73-4.08,14-5.38,16-5.94,16.44c-.38.29,12.4-4.66,14.11-13.61s-2.24-15.2-4.09-16.8" style="fill:#406f2d"/><path d="M12.1,104.84l-.74-.17s.6-2.7-.08-4l.69-.35c.79,1.54.16,4.41.13,4.52" style="fill:#406f2d"/><path d="M10.94,104.21s-7.62-.07-10,8.59c-2,7.34-.47,9.61.3,12.52.56,2.05,1.77,7.68.6,9.28a30.38,30.38,0,0,0,5.79-16.21c.34-5.68,3.52-12.62,4.08-14,.08-.17-.81-.21-.81-.21" style="fill:#88ad27"/><path d="M16.18,99.34s6.17.43,10.33-1.2,12-.92,12.47-.67S32.46,90.61,26.1,92s-9.4,5.71-9.92,7.37" style="fill:#406f2d"/><path d="M13.91,100.77l-.58-.5c.81-1,2.91-1.36,3-1.39l.14.77a5.19,5.19,0,0,0-2.56,1.12" style="fill:#406f2d"/><path d="M16.25,99.93s2.08,5,8.43,4.17c5.39-.74,6.47-2.37,8.16-3.7,1.2-.94,4.57-3.31,5.95-3a21.57,21.57,0,0,0-12.28.7c-3.84,1.36-9.29,1.2-10.33,1.2-.14,0,.07.59.07.59" style="fill:#88ad27"/><g style="mix-blend-mode:multiply"><g style="clip-path:url(#clip-path)"><polygon points="67.77 79.82 33.3 79.82 33.3 7.08 38.07 7.08 38.07 75.44 67.77 75.44 67.77 79.82" style="fill:#1d1d1b"/><path d="M70,82H31.07V4.86H40.3V73.22H70ZM35.52,77.59h.32V9.31h-.32Z" style="fill:#1d1d1b"/></g></g><polygon points="65.54 77.59 31.07 77.59 31.07 4.86 35.84 4.86 35.84 73.22 65.54 73.22 65.54 77.59" style="fill:#fbd200"/><path d="M67.77,79.82H28.85V2.63h9.22V71h29.7ZM33.29,75.37h.33V7.08h-.33Z" style="fill:#fbd200"/><g style="mix-blend-mode:multiply"><g style="clip-path:url(#clip-path-2)"><rect x="88.62" y="7.08" width="4.77" height="72.73" style="fill:#1d1d1b"/><path d="M95.61,82H86.39V4.86h9.22Zm-4.77-4.45h.32V9.31h-.32Z" style="fill:#1d1d1b"/></g></g><rect x="86.39" y="4.86" width="4.77" height="72.73" style="fill:#fbd200"/><path d="M93.38,79.82H84.17V2.63h9.21Zm-4.76-4.45h.31V7.08h-.31Z" style="fill:#fbd200"/><path d="M268.73,77.59h-5l-7.3-16.84H214.29c-1.18,2.72-2.35,5.53-3.56,8.43s-2.41,5.7-3.65,8.41h-5L233,4.86h4.88ZM254.42,56.37Q249.73,45,245,33.68t-9.7-22.79q-4.89,11.63-9.49,22.69t-9.5,22.79Z" style="fill:#406f2d"/><path d="M272.09,79.82H262.3L255,63H215.75c-1,2.29-2,4.64-3,7.06-1.37,3.3-2.54,6-3.68,8.48l-.6,1.3h-9.75L231.51,2.63h7.82Zm-6.87-4.45h.14l-29-68.29h-.28L237.36,10c3.08,7.15,6.26,14.61,9.71,22.8q4.73,11.3,9.41,22.71l1.24,3h.2Zm-59.75,0h.17c.94-2.08,1.92-4.36,3-7.05,1.21-2.91,2.39-5.72,3.57-8.45l.58-1.34H213l4.27-10.23q3.3-7.94,6.49-15.58,4.62-11.07,9.5-22.69l1.24-2.95h0Zm14.19-21.23H251.1c-2.71-6.56-5.42-13.11-8.14-19.6s-5.18-12.29-7.61-18q-3.82,9.11-7.47,17.86-3.19,7.64-6.49,15.57Z" style="fill:#406f2d"/><path d="M317,56.76a19.11,19.11,0,0,1-1.74,8.09,21.55,21.55,0,0,1-4.67,6.6A22,22,0,0,1,303.8,76a20.69,20.69,0,0,1-8.08,1.64,21.22,21.22,0,0,1-7.9-1.43,20.19,20.19,0,0,1-6.57-4.07,20.74,20.74,0,0,1-4.67-6.61,26.27,26.27,0,0,1-2.19-8.92h4.67q1.08,8.3,5.45,12.47a15.42,15.42,0,0,0,11.11,4.19A16.9,16.9,0,0,0,302.05,72a17.29,17.29,0,0,0,5.3-3.48,16.15,16.15,0,0,0,3.61-5.1,14.78,14.78,0,0,0,1.32-6.15c0-6.44-2.94-11-8.78-13.76h.11c-3.12-1-6.11-2.07-9-3.12s-5.85-2.05-9-3q-9.74-4.5-9.73-15.5A19.4,19.4,0,0,1,277.5,14a18.76,18.76,0,0,1,4.29-6.2,20.31,20.31,0,0,1,6.37-4.05A20.87,20.87,0,0,1,296,2.32a19.34,19.34,0,0,1,7.21,1.32A17.5,17.5,0,0,1,309,7.38a19.54,19.54,0,0,1,4.06,5.85,27.59,27.59,0,0,1,2.13,7.49h-4.77Q307.78,6.92,295.81,6.9A16,16,0,0,0,289.93,8a15.21,15.21,0,0,0-4.83,2.95,13.75,13.75,0,0,0-3.22,4.54,14.18,14.18,0,0,0-1.17,5.85c0,5.9,3,10.12,8.87,12.65h-.09c2.92,1,5.89,2,8.9,3s6,2,8.92,3Q317,45,317,56.76" style="fill:#406f2d"/><path d="M295.72,79.82a23.44,23.44,0,0,1-8.72-1.6,22.1,22.1,0,0,1-7.26-4.5,22.77,22.77,0,0,1-5.18-7.31,28.51,28.51,0,0,1-2.39-9.68l-.19-2.4h9l.25,1.94c.66,5,2.27,8.74,4.79,11.15A13.13,13.13,0,0,0,295.62,71a14.53,14.53,0,0,0,5.58-1.1,14.86,14.86,0,0,0,4.61-3,14,14,0,0,0,3.12-4.42,12.7,12.7,0,0,0,1.12-5.23c0-5.53-2.45-9.38-7.49-11.75l-.14-.06c-3.35-1.12-6.07-2.07-8.54-3-2.93-1.07-5.92-2.07-8.86-3l-.27-.1c-7.31-3.37-11-9.26-11-17.52a21.87,21.87,0,0,1,1.72-8.68,21.14,21.14,0,0,1,4.8-6.93,22.67,22.67,0,0,1,7.09-4.5A23,23,0,0,1,296,.09a21.44,21.44,0,0,1,8,1.49,19.55,19.55,0,0,1,6.51,4.2,21.69,21.69,0,0,1,4.53,6.52,30,30,0,0,1,2.31,8.1l.37,2.55h-9.18l-.35-1.81c-1.56-8.2-5.51-12-12.42-12a14,14,0,0,0-5.08.92,13,13,0,0,0-4.13,2.52,11.63,11.63,0,0,0-2.68,3.8,11.77,11.77,0,0,0-1,4.95c0,5,2.46,8.43,7.53,10.61l.37.15c2.72.91,5.49,1.85,8.29,2.82q4.51,1.55,8.89,3l.31.13c7.26,3.72,10.94,10,10.94,18.74a21.38,21.38,0,0,1-1.95,9,23.92,23.92,0,0,1-5.15,7.28A24.53,24.53,0,0,1,304.67,78a22.92,22.92,0,0,1-8.95,1.82m-18.83-21a22.91,22.91,0,0,0,1.72,5.78,18.42,18.42,0,0,0,4.16,5.9l.35.32-.15-.14c-2.91-2.79-4.86-6.77-5.81-11.86Zm27.56-17.32c6.67,3.13,10.05,8.44,10.05,15.77A17.16,17.16,0,0,1,313,64.29a18.75,18.75,0,0,1-2.1,3.55,20.06,20.06,0,0,0,2.38-3.93,16.92,16.92,0,0,0,1.54-7.15c0-6.95-2.74-11.76-8.37-14.7q-3.09-1-6.26-2.1l4.13,1.4-.1.6ZM288.73,36l.06,0,0-.29Zm-2.24-.71c.56.17,1.13.35,1.69.54-6.35-2.91-9.7-7.9-9.7-14.47a16.37,16.37,0,0,1,1.37-6.76,16.07,16.07,0,0,1,3.74-5.26,17.51,17.51,0,0,1,5.53-3.4,18.51,18.51,0,0,1,6.69-1.22c6,0,13.55,2.45,16.4,13.82h.29A24.27,24.27,0,0,0,311,14.14,17.49,17.49,0,0,0,307.44,9a15.27,15.27,0,0,0-5.05-3.25A16.77,16.77,0,0,0,296,4.54a18.3,18.3,0,0,0-7,1.31,18.07,18.07,0,0,0-5.7,3.6,16.62,16.62,0,0,0-3.76,5.47,17.35,17.35,0,0,0-1.36,6.91c0,6.4,2.72,10.79,8.31,13.42" style="fill:#406f2d"/><path d="M400.53,39.91a38.2,38.2,0,0,1-2.82,14.66A36.79,36.79,0,0,1,378,74.62a36.51,36.51,0,0,1-14.8,3,37.33,37.33,0,0,1-14.9-2.9,36.66,36.66,0,0,1-11.84-8,37.07,37.07,0,0,1-7.83-12,38.22,38.22,0,0,1-2.83-14.75,37.74,37.74,0,0,1,2.88-14.75A37,37,0,0,1,363.24,2.22a36.29,36.29,0,0,1,14.69,3,37.62,37.62,0,0,1,22.6,34.72m-4.67,0A32.87,32.87,0,0,0,376,9.38,31.77,31.77,0,0,0,363.24,6.8a32.18,32.18,0,0,0-13,2.58A32.25,32.25,0,0,0,333.09,27a33.91,33.91,0,0,0-2.48,13,34.3,34.3,0,0,0,2.48,13,33,33,0,0,0,6.82,10.59,32,32,0,0,0,10.32,7.07,32.59,32.59,0,0,0,13,2.58A31.41,31.41,0,0,0,376,70.58a32.54,32.54,0,0,0,10.37-7.12A33.53,33.53,0,0,0,395.86,40" style="fill:#406f2d"/><path d="M363.24,79.81a39.58,39.58,0,0,1-15.77-3.08,38.66,38.66,0,0,1-20.86-21.22,40.59,40.59,0,0,1-3-15.6,40,40,0,0,1,3.05-15.62,39.54,39.54,0,0,1,8.4-12.67,40,40,0,0,1,43.75-8.47,39.88,39.88,0,0,1,23.94,36.76,40.48,40.48,0,0,1-3,15.5,39,39,0,0,1-20.84,21.25,39,39,0,0,1-15.69,3.15m0-75.24a34.08,34.08,0,0,1,13.64,2.77,35.94,35.94,0,0,1,18.5,46.45A36,36,0,0,1,388,65a35,35,0,0,1-11.08,7.61,30,30,0,0,1-4,1.46,30.76,30.76,0,0,0,4.23-1.5,34.54,34.54,0,0,0,18.51-18.86,36.2,36.2,0,0,0,2.65-13.81A35.13,35.13,0,0,0,377,7.23a34.23,34.23,0,0,0-13.8-2.78A34.77,34.77,0,0,0,330.77,26a35.62,35.62,0,0,0-2.71,13.9,36.26,36.26,0,0,0,2.66,13.9,35.21,35.21,0,0,0,7.37,11.28,34.59,34.59,0,0,0,11.13,7.55c.85.37,1.71.69,2.59,1-.83-.28-1.65-.6-2.46-.94a34.36,34.36,0,0,1-11-7.58A35.16,35.16,0,0,1,331,53.82,36.66,36.66,0,0,1,328.39,40,36.08,36.08,0,0,1,331,26.15a34.39,34.39,0,0,1,18.36-18.8,34.44,34.44,0,0,1,13.85-2.78m0,4.45a29.8,29.8,0,0,0-21.68,9,30.57,30.57,0,0,0-6.41,9.83A31.5,31.5,0,0,0,332.84,40a31.64,31.64,0,0,0,2.31,12.19A31,31,0,0,0,341.51,62a29.86,29.86,0,0,0,9.61,6.58A30.28,30.28,0,0,0,363.24,71a29.4,29.4,0,0,0,11.9-2.45,30.67,30.67,0,0,0,9.68-6.64,31.55,31.55,0,0,0,0-43.9,30.75,30.75,0,0,0-9.69-6.59A29.51,29.51,0,0,0,363.24,9" style="fill:#406f2d"/><polygon points="443.21 77.59 408.74 77.59 408.74 4.86 413.5 4.86 413.5 73.22 443.21 73.22 443.21 77.59" style="fill:#406f2d"/><path d="M445.44,79.82H406.51V2.63h9.22V71h29.71ZM411,75.37h.32V7.08H411Z" style="fill:#406f2d"/><polygon points="374.15 182.46 369.08 182.46 305.25 116.43 305.25 182.46 300.57 182.46 300.57 109.7 306.21 109.7 369.37 174.76 369.37 109.7 374.15 109.7 374.15 182.46" style="fill:#406f2d"/><path d="M376.37,184.68h-8.24l-60.66-62.75v62.75h-9.12v-77.2h8.81l60,61.8v-61.8h9.23Zm-4.78-4.45h.33v-68.3h-.33Zm-1.57,0h1.55l-66.3-68.3H304Zm-67.22,0H303v-68.3h-.22Z" style="fill:#406f2d"/><polygon points="236.33 182.46 201.84 182.46 201.84 109.7 206.62 109.7 206.62 178.06 236.33 178.06 236.33 182.46" style="fill:#406f2d"/><path d="M238.56,184.68H199.61v-77.2h9.24v68.36h29.71Zm-34.5-4.45h.34v-68.3h-.34Z" style="fill:#406f2d"/><rect x="266.08" y="109.7" width="4.78" height="72.76" style="fill:#406f2d"/><path d="M273.09,184.68h-9.24v-77.2h9.24Zm-4.79-4.45h.34v-68.3h-.34Z" style="fill:#406f2d"/><polygon points="440.52 182.46 397.57 182.46 397.57 109.79 440.52 109.79 440.52 114.18 402.25 114.18 402.25 143.59 432.93 143.59 432.93 147.97 402.25 147.97 402.25 178.06 440.52 178.06 440.52 182.46" style="fill:#406f2d"/><path d="M442.74,184.68H395.35V107.56h47.39v8.85H404.47v25h30.68v8.83H404.47v25.64h38.27Zm-42.94-4.45H400V112h-.22Z" style="fill:#406f2d"/><polygon points="188.32 97.71 188.32 49.13 183.42 59.78 183.56 97.71 188.32 97.71" style="fill:#406f2d"/><path d="M190.55,99.94h-9.21l-.15-40.64L190.55,39Zm-4.78-4.45h.33V59.27l-.46,1Z" style="fill:#406f2d"/><polygon points="186.98 182.46 186.98 109.7 182.21 109.7 182.21 174.76 147.13 138.59 144.7 143.91 181.92 182.46 186.98 182.46" style="fill:#406f2d"/><path d="M189.2,184.68H181L142,144.37l4.43-9.66L180,169.27V107.48h9.21Zm-4.76-4.45h.31v-68.3h-.31Zm-1.57,0h1.55L147.8,142.48l-.45,1Z" style="fill:#406f2d"/><g style="mix-blend-mode:multiply"><g style="clip-path:url(#clip-path-3)"><path d="M190.55,7.08h-5.93c-2.53,5.18-5.15,10.55-7.85,16s-5.38,11-8.08,16.54-5.38,11.08-8.08,16.55-5.31,10.84-7.84,16L120.92,7.08h-6V79.82h4.76V14.87L151.4,79.82h2.74Q162,63.58,169.86,47.5t15.72-32.43l.07,18.7,4.9-10.65Z" style="fill:#1d1d1b"/><path d="M155.53,82H150L121.88,24.49V82h-9.21V4.86h9.64l30.46,62.3q2.85-5.85,5.85-11.94,4-8.2,8.07-16.54t8-16.37l.08-.18Q178,15.62,181,9.38l2.21-4.52h9.54V23.6l-9.31,20.25-.07-19.12c-3.55,7.35-7.36,15.19-11.53,23.74q-7.06,14.47-14.17,29.12Zm-38.41-4.45h.31V9.31h-.31Zm2.29-68.28,33.36,68.24.92-1.9Q160.8,61,167.86,46.52c3.62-7.41,7-14.29,10.1-20.77q-3.63,7.39-7.26,14.88c-2.71,5.56-5.39,11.08-8.09,16.56q-3.45,7-6.7,13.68l-3.14,6.43-33.24-68Zm68.38,0,.05,14.37.48-1.05V9.31Z" style="fill:#1d1d1b"/><polygon points="121.29 111.93 115.64 111.93 115.64 184.68 120.32 184.68 120.32 118.65 137.38 136.38 139.82 131.08 121.29 111.93" style="fill:#1d1d1b"/><path d="M122.54,186.91h-9.12V109.7h8.81l20.25,20.93L138,140.27l-15.5-16.1Zm-4.68-4.45h.23V114.15h-.23Zm1.21-68.31,17.66,18.34.44-1-16.82-17.38Z" style="fill:#1d1d1b"/></g></g><path d="M188.32,4.86h-5.93c-2.53,5.18-5.15,10.54-7.84,16s-5.38,11-8.08,16.54S161.08,48.51,158.39,54s-5.31,10.84-7.85,16L118.7,4.86h-6V77.59h4.76V12.65l31.75,64.94h2.73q7.89-16.23,15.73-32.32t15.72-32.42l.06,18.69,4.9-10.65Z" style="fill:#fbd200"/><path d="M153.31,79.82h-5.52L119.65,22.26V79.82h-9.21V2.63h9.65l30.45,62.31c1.91-3.9,3.85-7.89,5.85-11.94q4.05-8.2,8.08-16.54t8-16.38l.09-.17q3.19-6.51,6.25-12.76L181,2.63h9.54V21.38l-9.32,20.25-.06-19.12c-3.55,7.35-7.36,15.19-11.53,23.74q-7.08,14.47-14.17,29.12Zm-38.42-4.45h.31V7.08h-.31Zm2.3-68.29,33.35,68.24.93-1.9q7.09-14.62,14.17-29.13c3.61-7.4,7-14.28,10.09-20.77q-3.61,7.41-7.26,14.88-4,8.34-8.09,16.56-3.47,7-6.74,13.77l-3.1,6.34-33.23-68Zm68.37,0,.05,14.38.49-1.05V7.08Z" style="fill:#fbd200"/><polygon points="119.06 109.7 113.41 109.7 113.41 182.46 118.09 182.46 118.09 116.43 135.16 134.16 137.6 128.86 119.06 109.7" style="fill:#fbd200"/><path d="M120.32,184.68h-9.13v-77.2H120l20.25,20.92-4.44,9.65L120.32,122Zm-4.68-4.45h.23v-68.3h-.23Zm1.21-68.3,17.65,18.33.44-.95-16.82-17.38Z" style="fill:#fbd200"/></g></g></g></svg>