<svg xmlns="http://www.w3.org/2000/svg" width="188" height="70" viewBox="0 0 188 70">
    <g fill="none" fill-rule="evenodd">
        <g>
            <g>
                <g>
                    <path fill="#FFF" fill-rule="nonzero" d="M32.184 12.05c2.54 0 3.881-1.338 3.881-3.874V6.415c0-2.536-1.34-3.874-3.881-3.874H28.02c-2.54 0-3.882 1.338-3.882 3.874v1.76c0 2.537 1.341 3.875 3.882 3.875h4.163zm.141 40.852c2.54 0 3.881-1.338 3.881-3.874V20.502c0-2.536-1.34-3.874-3.88-3.874h-4.447c-2.54 0-3.88 1.338-3.88 3.874v28.526c0 2.536 1.34 3.874 3.88 3.874h4.446zm19.406 0c2.54 0 3.88-1.338 3.88-3.874v-11.48c0-5.002 1.412-10.707 6.987-10.707 2.329 0 2.823 1.902 2.823 4.578v17.609c0 2.536 1.34 3.874 3.88 3.874h4.446c2.54 0 3.881-1.338 3.881-3.874v-11.48c0-5.424 1.694-10.707 6.987-10.707 2.328 0 2.822 1.902 2.822 4.578v17.609c0 2.536 1.34 3.874 3.881 3.874h4.446c2.54 0 3.881-1.338 3.881-3.874V29.377c0-10.002-5.151-13.594-11.784-13.594-5.434 0-9.739 3.099-11.644 6.128h-.141c-1.905-4.086-5.575-6.128-10.161-6.128-5.716 0-9.104 3.733-10.797 6.269h-.141s.07-.564.07-.916v-.634c0-2.536-1.27-3.874-3.81-3.874h-3.952c-2.54 0-3.881 1.338-3.881 3.874v28.526c0 2.536 1.34 3.874 3.881 3.874h4.446zm107.26 0c2.54 0 3.881-1.338 3.881-3.874V36.491c0-5.142 2.47-9.65 7.904-9.65 2.681 0 4.022 1.409 4.022 4.79v17.397c0 2.536 1.34 3.874 3.881 3.874h4.446c2.54 0 3.88-1.338 3.88-3.874V29.377c0-10.213-5.715-13.594-13.054-13.594-6.421 0-9.88 3.451-11.573 6.269h-.14s.07-.564.07-.916v-.634c0-2.536-1.27-3.874-3.81-3.874h-3.953c-2.54 0-3.88 1.338-3.88 3.874v28.526c0 2.536 1.34 3.874 3.88 3.874h4.446z" transform="translate(-94 -142) translate(94 140)"/>
                    <path fill="#F8B716" fill-rule="nonzero" d="M124.837 15.783c11.502 0 20.676 7.677 20.676 19.088 0 11.34-9.174 18.876-20.605 18.876-11.432 0-20.606-7.536-20.606-18.876 0-11.41 9.174-19.088 20.535-19.088zm.177 10.741c-5.505 0-8.962 3.804-8.962 8.241 0 4.437 3.457 8.24 8.962 8.24 5.433 0 8.75-3.803 8.75-8.24s-3.317-8.24-8.75-8.24z" transform="translate(-94 -142) translate(94 140)"/>
                    <path fill="#F8B716" d="M142.094 18.317c.16 0 4.934-3.782 4.93-8.452-.003-4.67-4.466-8.46-4.943-8.46-.478 0-4.935 3.782-4.931 8.452.004 4.67 4.785 8.46 4.944 8.46z" transform="translate(-94 -142) translate(94 140) scale(-1 1) rotate(-30 0 540.138)"/>
                    <path fill="#888DAD" stroke="#2F3148" d="M13.202 38.537v4.976c0 1.864.315 3.512.954 4.664.278.5.615.902 1.02 1.172.363.241.78.372 1.249.372 1.524 0 2.546-.52 3.191-1.432.812-1.148 1.054-2.849 1.054-4.776v-4.946l-7.468-.03z" transform="translate(-94 -142) translate(94 140)"/>
                    <path fill="#FFF" d="M8.61 2.541c1.814 0 3.296 1.496 3.296 3.322V37.49h-.016l-.016 6.344c.077 4.863 1.905 7.302 4.625 7.305.85 0 1.572-.14 2.184-.397-.923 1.503-2.59 2.512-4.454 2.512H6.417c-3.53 0-6.417-2.912-6.417-6.47V5.864C0 4.033 1.48 2.54 3.296 2.54H8.61z" transform="translate(-94 -142) translate(94 140)"/>
                </g>
                <text fill="#888DAD" font-family="MontserratAlternates-Medium, Montserrat Alternates" font-size="12" font-weight="400" letter-spacing="1.73" transform="translate(-94 -142) translate(94 140)">
                    <tspan x="0" y="69">fatura ödeme platformu</tspan>
                </text>
            </g>
        </g>
    </g>
</svg>
