<svg xmlns="http://www.w3.org/2000/svg" xmlns:xlink="http://www.w3.org/1999/xlink" width="48" height="48" viewBox="0 0 48 48">
    <defs>
        <rect id="mzxg6mxkla" width="48" height="48" x="0" y="0" rx="6"/>
    </defs>
    <g fill="none" fill-rule="evenodd">
        <g>
            <g>
                <g transform="translate(-32 -104) translate(16 88) translate(16 16)">
                    <use fill="#EDF1F7" xlink:href="#mzxg6mxkla"/>
                    <path fill="#595D80" fill-rule="nonzero" d="M25.584 14.51c-.518-.68-1.65-.68-2.168 0C21.486 17.035 17 23.248 17 26.506 17 30.636 20.361 34 24.5 34c4.139 0 7.5-3.364 7.5-7.495 0-3.258-4.486-9.471-6.416-11.994zm1.27 16.462c-.066.021-.126.028-.186.028-.26 0-.5-.154-.607-.413-.14-.315-.033-.686.247-.875.093-.063 2.159-1.525 1.992-4.976-.013-.343.2-.644.52-.72.313-.07.64.104.76.42.04.09.912 2.35.02 4.296-.5 1.085-1.426 1.841-2.746 2.24z"/>
                </g>
            </g>
        </g>
    </g>
</svg>
