<svg xmlns="http://www.w3.org/2000/svg" width="105" height="126" viewBox="0 0 105 126">
    <g fill="none" fill-rule="evenodd">
        <g fill="#FFF" fill-rule="nonzero">
            <g>
                <g>
                    <path d="M102.68 93.905L89.758 80.588l-6.097-28.98c-.582-4.265-4.22-7.364-8.383-7.14-1.9.123-3.686.986-4.996 2.414-1.598-1.635-3.782-2.51-6.029-2.414-.922.059-1.828.284-2.676.664l-12.295-12.67c-3.255-3.145-8.312-3.145-11.567 0-.38.402-.72.841-1.016 1.313-1.934-1.982-4.694-2.842-7.366-2.295-2.672.547-4.906 2.43-5.962 5.025l-5.386-5.565c-2.069-2.135-5.083-2.967-7.907-2.183-2.824.784-5.029 3.066-5.784 5.985-.754 2.92.055 6.033 2.125 8.168l.22.228c-.985.395-1.883.99-2.642 1.75-3.185 3.304-3.185 8.647 0 11.952l7.858 8.12c-.975.405-1.866.999-2.625 1.75l-.203.228c-1.538 1.582-2.403 3.733-2.403 5.976s.865 4.393 2.403 5.976l30.958 32.13c.373.385.852.642 1.371.735l10.992 1.995 8.196 8.487c.48.488 1.123.764 1.796.77.673.002 1.32-.275 1.795-.77l3.607-3.832 5.538 5.845c.474.51 1.128.8 1.812.805.684-.005 1.338-.295 1.812-.805l25.793-26.618c.477-.498.745-1.17.745-1.872-.001-.7-.276-1.368-.762-1.855zm-61.374-57.75c1.264-1.11 3.121-1.11 4.386 0L57.58 48.58c-.855 1.511-1.222 3.264-1.05 5.005-.015.099-.015.199 0 .297l.135.648-16.41-16.958c.278-.514.632-.98 1.05-1.382v-.035zm21.034 80.448l-6.978-7.228c-.375-.382-.853-.638-1.372-.735l-10.974-1.89-30.484-31.5c-.582-.6-.91-1.416-.91-2.266 0-.85.328-1.666.91-2.266l.22-.228c1.23-1.207 3.158-1.207 4.387 0l13.176 13.615c1.014.843 2.48.758 3.397-.198.916-.956.984-2.472.159-3.512L7.536 53.148c-1.133-1.27-1.094-3.238.088-4.46 1.182-1.221 3.086-1.261 4.316-.09L37.698 75.25c.474.496 1.121.773 1.796.77.675.01 1.324-.27 1.795-.77.48-.49.75-1.158.75-1.855 0-.697-.27-1.365-.75-1.855l-25.76-26.653-5.57-5.74c-.588-.6-.919-1.42-.919-2.274 0-.855.33-1.674.918-2.276 1.229-1.206 3.157-1.206 4.386 0L45.726 66.99h.084c1.006 1 2.606.969 3.574-.07s.938-2.692-.068-3.693L28.672 42c-.588-.601-.918-1.42-.918-2.275s.33-1.674.918-2.275c1.229-1.207 3.157-1.207 4.386 0l26.216 27.108c.793.832 2.025 1.017 3.015.454.994-.557 1.512-1.727 1.27-2.87l-1.914-9.222c-.106-1.657 1.106-3.09 2.71-3.203 1.552-.112 2.913 1.062 3.082 2.66v.245l7.282 34.633c.101.49.336.94.678 1.295l6.994 7.21-20.051 20.843zm12.803 2.082l-3.76-4.008 16.512-17.062c.477-.492.745-1.159.745-1.855-.004-.695-.271-1.361-.745-1.855l-8.298-8.523-5.589-26.652-1.185-5.512c-.021-.906.287-1.786.863-2.468.438-.56 1.083-.903 1.779-.945 1.552-.113 2.913 1.062 3.082 2.66v.245l6.283 29.75c.1.494.342.945.694 1.295L97.26 95.778l-22.117 22.907zM28.689 22.243c1.403 0 2.54-1.176 2.54-2.625V3.5c0-1.45-1.137-2.625-2.54-2.625s-2.54 1.175-2.54 2.625v16.047c-.019.709.24 1.395.719 1.902.478.508 1.135.794 1.82.794zM37.648 26.25c.672-.006 1.316-.282 1.795-.77L50.417 14c.981-1.029.981-2.681 0-3.71-.474-.496-1.12-.775-1.795-.775-.675 0-1.321.28-1.795.775L35.852 21.63c-.832.731-1.118 1.93-.711 2.978.407 1.047 1.416 1.708 2.507 1.642zM17.935 24.797c.991 1.024 2.598 1.024 3.59 0 .48-.49.75-1.157.75-1.855 0-.697-.27-1.365-.75-1.855L10.551 9.73c-.996-1.024-2.608-1.02-3.599.009-.991 1.03-.988 2.694.008 3.718l10.975 11.34z" transform="translate(-135 -259) matrix(-1 0 0 1 240 259)"/>
                </g>
            </g>
        </g>
    </g>
</svg>
