<svg xmlns="http://www.w3.org/2000/svg" xmlns:xlink="http://www.w3.org/1999/xlink" width="48" height="48" viewBox="0 0 48 48">
    <defs>
        <rect id="umai2dl2ca" width="48" height="48" x="0" y="0" rx="10"/>
    </defs>
    <g fill="none" fill-rule="evenodd">
        <g>
            <g>
                <g transform="translate(-32 -680) translate(16 664) translate(16 16)">
                    <mask id="pefaurd3kb" fill="#fff">
                        <use xlink:href="#umai2dl2ca"/>
                    </mask>
                    <use fill="#EDF1F7" xlink:href="#umai2dl2ca"/>
                    <g mask="url(#pefaurd3kb)">
                        <g>
                            <g fill="#565A7C">
                                <path d="M6.56 0h12.057c1.385 0 2.508 1.072 2.508 2.393v19.632c0 1.317-1.123 2.388-2.508 2.388h-2.08v.543c0 1.094-.776 2.021-1.825 2.301V32h-4.236v-4.743c-1.05-.28-1.825-1.207-1.825-2.301v-.543H6.566c-1.38 0-2.503-1.071-2.503-2.388V2.393C4.058 1.081 5.18 0 6.56 0zm16.19 2.4h2.314c.268 0 .496.088.68.252.182.167.272.366.254.591-.157 2.41-2.131 3.387-2.314 6.402-.032.468-.492.755-.934.755v-8zM3.25 13.6H.936c-.273 0-.496.084-.68.252-.182.163-.272.362-.254.591.157 2.406 2.131 3.382 2.314 6.402.032.464.492.755.934.755v-8zm0-11.2H.936c-.273 0-.496.088-.68.252-.182.167-.272.366-.254.591.157 2.41 2.131 3.382 2.314 6.402.032.468.492.755.934.755v-8zm19.5 11.2h2.314c.268 0 .496.084.68.252.182.163.272.362.254.591-.157 2.406-2.131 3.382-2.314 6.402-.032.464-.492.755-.934.755v-8zm-9.748 0c-.552 0-1.072.106-1.557.305-.493.203-.946.495-1.319.866-.376.366-.673.808-.879 1.298-.202.469-.31.99-.31 1.533 0 .54.108 1.056.31 1.529.206.49.503.932.88 1.298.372.371.825.667 1.318.87.48.195 1.005.301 1.557.301 1.122 0 2.14-.45 2.872-1.175.376-.367.677-.808.883-1.299.198-.468.305-.99.305-1.528 0-.544-.107-1.06-.305-1.533-.206-.49-.507-.932-.883-1.299-.373-.37-.821-.662-1.32-.866-.48-.194-1.004-.3-1.552-.3zm0-11.2c-.552 0-1.072.106-1.557.305-.493.203-.946.499-1.319.866-.376.37-.673.812-.879 1.298-.202.473-.31.99-.31 1.533 0 .54.108 1.056.31 1.533.206.486.503.928.88 1.299.372.366.825.662 1.318.866.48.194 1.005.3 1.557.3 1.122 0 2.14-.45 2.872-1.17.376-.372.677-.813.883-1.3.198-.472.305-.993.305-1.532 0-.544-.107-1.056-.305-1.533-.206-.486-.507-.928-.883-1.299-.373-.366-.821-.662-1.32-.866-.48-.194-1.004-.3-1.552-.3z" transform="translate(-99 8) translate(110)"/>
                            </g>
                        </g>
                    </g>
                </g>
            </g>
        </g>
    </g>
</svg>
